<ttFont>
    <TTGlyph name=".notdef" xMin="123" yMin="0" xMax="1028" yMax="1581">
      <contour>
        <pt x="1028" y="0" on="1"/>
        <pt x="123" y="0" on="1"/>
        <pt x="123" y="1581" on="1"/>
        <pt x="1028" y="1581" on="1"/>
      </contour>
      <contour>
        <pt x="954" y="1520" on="1"/>
        <pt x="197" y="1520" on="1"/>
        <pt x="197" y="61" on="1"/>
        <pt x="954" y="61" on="1"/>
      </contour>
    </TTGlyph>
    <TTGlyph name=".ttfautohint" xMin="0" yMin="0" xMax="0" yMax="0">
      <contour>
        <pt x="0" y="0" on="1"/>
      </contour>
    </TTGlyph>
    <TTGlyph name="A" xMin="-178" yMin="0" xMax="1133" yMax="1460">
      <contour>
        <pt x="1037" y="105" on="0"/>
        <pt x="1096" y="43" on="0"/>
        <pt x="1133" y="41" on="1"/>
        <pt x="1124" y="0" on="1"/>
        <pt x="1042" y="6" on="0"/>
        <pt x="901" y="6" on="1"/>
        <pt x="736" y="6" on="0"/>
        <pt x="655" y="0" on="1"/>
        <pt x="664" y="41" on="1"/>
        <pt x="734" y="44" on="0"/>
        <pt x="810" y="73" on="0"/>
        <pt x="843" y="144" on="0"/>
        <pt x="840" y="213" on="1"/>
        <pt x="821" y="549" on="1"/>
        <pt x="318" y="549" on="1"/>
        <pt x="164" y="332" on="1"/>
        <pt x="68" y="196" on="0"/>
        <pt x="68" y="128" on="1"/>
        <pt x="68" y="44" on="0"/>
        <pt x="219" y="41" on="1"/>
        <pt x="209" y="0" on="1"/>
        <pt x="95" y="6" on="0"/>
        <pt x="-25" y="6" on="1"/>
        <pt x="-114" y="6" on="0"/>
        <pt x="-178" y="0" on="1"/>
        <pt x="-168" y="41" on="1"/>
        <pt x="-74" y="61" on="0"/>
        <pt x="37" y="219" on="1"/>
        <pt x="920" y="1460" on="1"/>
        <pt x="950" y="1460" on="1"/>
        <pt x="1032" y="172" on="1"/>
      </contour>
      <contour>
        <pt x="785" y="1209" on="1"/>
        <pt x="347" y="590" on="1"/>
        <pt x="819" y="590" on="1"/>
      </contour>
    </TTGlyph>
    <TTGlyph name="AE" xMin="-164" yMin="0" xMax="1913" yMax="1583">
      <contour>
        <pt x="1784" y="1444" on="0"/>
        <pt x="1913" y="1450" on="1"/>
        <pt x="1881" y="1361" on="0"/>
        <pt x="1835" y="1208" on="1"/>
        <pt x="1816" y="1140" on="0"/>
        <pt x="1808" y="1081" on="1"/>
        <pt x="1763" y="1081" on="1"/>
        <pt x="1778" y="1167" on="0"/>
        <pt x="1778" y="1226" on="1"/>
        <pt x="1778" y="1322" on="0"/>
        <pt x="1693" y="1403" on="0"/>
        <pt x="1597" y="1403" on="1"/>
        <pt x="1407" y="1403" on="1"/>
        <pt x="1336" y="1403" on="0"/>
        <pt x="1265" y="1379" on="0"/>
        <pt x="1222" y="1310" on="0"/>
        <pt x="1202" y="1233" on="1"/>
        <pt x="1074" y="750" on="1"/>
        <pt x="1294" y="750" on="1"/>
        <pt x="1352" y="750" on="0"/>
        <pt x="1429" y="811" on="0"/>
        <pt x="1476" y="902" on="0"/>
        <pt x="1505" y="979" on="1"/>
        <pt x="1550" y="979" on="1"/>
        <pt x="1524" y="897" on="0"/>
        <pt x="1491" y="770" on="1"/>
        <pt x="1484" y="739" on="0"/>
        <pt x="1481" y="729" on="1"/>
        <pt x="1459" y="654" on="0"/>
        <pt x="1427" y="479" on="1"/>
        <pt x="1382" y="479" on="1"/>
        <pt x="1382" y="490" on="0"/>
        <pt x="1387" y="542" on="1"/>
        <pt x="1393" y="586" on="0"/>
        <pt x="1393" y="606" on="1"/>
        <pt x="1393" y="651" on="0"/>
        <pt x="1347" y="705" on="0"/>
        <pt x="1286" y="709" on="1"/>
        <pt x="1063" y="709" on="1"/>
        <pt x="932" y="217" on="1"/>
        <pt x="914" y="147" on="0"/>
        <pt x="914" y="117" on="1"/>
        <pt x="914" y="88" on="0"/>
        <pt x="941" y="58" on="0"/>
        <pt x="997" y="47" on="0"/>
        <pt x="1049" y="47" on="1"/>
        <pt x="1260" y="47" on="1"/>
        <pt x="1359" y="47" on="0"/>
        <pt x="1485" y="115" on="0"/>
        <pt x="1578" y="269" on="0"/>
        <pt x="1626" y="410" on="1"/>
        <pt x="1671" y="410" on="1"/>
        <pt x="1652" y="360" on="0"/>
        <pt x="1628" y="262" on="1"/>
        <pt x="1593" y="135" on="0"/>
        <pt x="1575" y="0" on="1"/>
        <pt x="1436" y="6" on="0"/>
        <pt x="1112" y="6" on="1"/>
        <pt x="723" y="6" on="0"/>
        <pt x="522" y="0" on="1"/>
        <pt x="530" y="41" on="1"/>
        <pt x="604" y="44" on="0"/>
        <pt x="678" y="70" on="0"/>
        <pt x="721" y="140" on="0"/>
        <pt x="741" y="217" on="1"/>
        <pt x="872" y="709" on="1"/>
        <pt x="539" y="709" on="1"/>
        <pt x="82" y="193" on="1"/>
        <pt x="23" y="126" on="0"/>
        <pt x="23" y="96" on="1"/>
        <pt x="23" y="51" on="0"/>
        <pt x="150" y="41" on="1"/>
        <pt x="150" y="0" on="1"/>
        <pt x="95" y="6" on="0"/>
        <pt x="-27" y="6" on="1"/>
        <pt x="-114" y="6" on="0"/>
        <pt x="-164" y="0" on="1"/>
        <pt x="-164" y="41" on="1"/>
        <pt x="-99" y="44" on="0"/>
        <pt x="12" y="172" on="1"/>
        <pt x="1029" y="1322" on="1"/>
        <pt x="1031" y="1356" on="0"/>
        <pt x="1005" y="1392" on="0"/>
        <pt x="946" y="1406" on="0"/>
        <pt x="891" y="1409" on="1"/>
        <pt x="901" y="1450" on="1"/>
        <pt x="1049" y="1446" on="0"/>
        <pt x="1138" y="1446" on="1"/>
        <pt x="1260" y="1583" on="1"/>
        <pt x="1313" y="1583" on="1"/>
        <pt x="1191" y="1445" on="1"/>
        <pt x="1278" y="1444" on="0"/>
        <pt x="1430" y="1444" on="0"/>
        <pt x="1489" y="1444" on="1"/>
      </contour>
      <contour>
        <pt x="1012" y="1233" on="1"/>
        <pt x="1016" y="1247" on="1"/>
        <pt x="575" y="750" on="1"/>
        <pt x="883" y="750" on="1"/>
      </contour>
    </TTGlyph>
    <TTGlyph name="Aacute" xMin="-178" yMin="0" xMax="1348" yMax="1918">
      <component glyphName=".ttfautohint" x="0" y="0" flags="0x0"/>
      <component glyphName="A" x="0" y="0" flags="0x0"/>
      <component glyphName="acute.case" x="766" y="0" flags="0x0"/>
    </TTGlyph>
    <TTGlyph name="Abreve" xMin="-178" yMin="0" xMax="1452" yMax="1858">
      <component glyphName=".ttfautohint" x="0" y="0" flags="0x0"/>
      <component glyphName="A" x="0" y="0" flags="0x0"/>
      <component glyphName="breve.case" x="473" y="0" flags="0x0"/>
    </TTGlyph>
    <TTGlyph name="Acircumflex" xMin="-178" yMin="0" xMax="1334" yMax="1876">
      <component glyphName=".ttfautohint" x="0" y="0" flags="0x0"/>
      <component glyphName="A" x="0" y="0" flags="0x0"/>
      <component glyphName="circumflex.case" x="500" y="0" flags="0x0"/>
    </TTGlyph>
    <TTGlyph name="Adieresis" xMin="-178" yMin="0" xMax="1280" yMax="1819">
      <component glyphName=".ttfautohint" x="0" y="0" flags="0x0"/>
      <component glyphName="A" x="0" y="0" flags="0x0"/>
      <component glyphName="dieresis.case" x="545" y="0" flags="0x0"/>
    </TTGlyph>
    <TTGlyph name="Agrave" xMin="-178" yMin="0" xMax="1133" yMax="1962">
      <component glyphName=".ttfautohint" x="0" y="0" flags="0x0"/>
      <component glyphName="A" x="0" y="0" flags="0x0"/>
      <component glyphName="grave.case" x="547" y="0" flags="0x0"/>
    </TTGlyph>
    <TTGlyph name="Amacron" xMin="-178" yMin="0" xMax="1304" yMax="1729">
      <component glyphName=".ttfautohint" x="0" y="0" flags="0x0"/>
      <component glyphName="A" x="0" y="0" flags="0x0"/>
      <component glyphName="macron.case" x="520" y="0" flags="0x0"/>
    </TTGlyph>
    <TTGlyph name="Aogonek" xMin="-178" yMin="-385" xMax="1141" yMax="1460">
      <contour>
        <pt x="1018" y="-385" on="0"/>
        <pt x="877" y="-385" on="1"/>
        <pt x="803" y="-385" on="0"/>
        <pt x="725" y="-321" on="0"/>
        <pt x="725" y="-266" on="1"/>
        <pt x="725" y="-175" on="0"/>
        <pt x="914" y="-39" on="0"/>
        <pt x="1039" y="4" on="1"/>
        <pt x="951" y="6" on="0"/>
        <pt x="901" y="6" on="1"/>
        <pt x="736" y="6" on="0"/>
        <pt x="655" y="0" on="1"/>
        <pt x="664" y="41" on="1"/>
        <pt x="734" y="44" on="0"/>
        <pt x="810" y="73" on="0"/>
        <pt x="843" y="144" on="0"/>
        <pt x="840" y="213" on="1"/>
        <pt x="821" y="549" on="1"/>
        <pt x="318" y="549" on="1"/>
        <pt x="164" y="332" on="1"/>
        <pt x="68" y="196" on="0"/>
        <pt x="68" y="128" on="1"/>
        <pt x="68" y="44" on="0"/>
        <pt x="219" y="41" on="1"/>
        <pt x="209" y="0" on="1"/>
        <pt x="95" y="6" on="0"/>
        <pt x="-25" y="6" on="1"/>
        <pt x="-114" y="6" on="0"/>
        <pt x="-178" y="0" on="1"/>
        <pt x="-168" y="41" on="1"/>
        <pt x="-74" y="61" on="0"/>
        <pt x="37" y="219" on="1"/>
        <pt x="920" y="1460" on="1"/>
        <pt x="950" y="1460" on="1"/>
        <pt x="1032" y="172" on="1"/>
        <pt x="1037" y="105" on="0"/>
        <pt x="1096" y="43" on="0"/>
        <pt x="1133" y="41" on="1"/>
        <pt x="1124" y="0" on="1"/>
        <pt x="1106" y="1" on="1"/>
        <pt x="1015" y="-28" on="0"/>
        <pt x="881" y="-137" on="0"/>
        <pt x="881" y="-211" on="1"/>
        <pt x="881" y="-287" on="0"/>
        <pt x="961" y="-287" on="1"/>
        <pt x="1000" y="-287" on="0"/>
        <pt x="1091" y="-254" on="0"/>
        <pt x="1119" y="-233" on="1"/>
        <pt x="1141" y="-268" on="1"/>
      </contour>
      <contour>
        <pt x="785" y="1209" on="1"/>
        <pt x="347" y="590" on="1"/>
        <pt x="819" y="590" on="1"/>
      </contour>
    </TTGlyph>
    <TTGlyph name="Aring" xMin="-178" yMin="0" xMax="1172" yMax="1894">
      <component glyphName=".ttfautohint" x="0" y="0" flags="0x0"/>
      <component glyphName="A" x="0" y="0" flags="0x0"/>
      <component glyphName="ring.case" x="664" y="0" flags="0x0"/>
    </TTGlyph>
    <TTGlyph name="Atilde" xMin="-178" yMin="0" xMax="1391" yMax="1833">
      <component glyphName=".ttfautohint" x="0" y="0" flags="0x0"/>
      <component glyphName="A" x="0" y="0" flags="0x0"/>
      <component glyphName="tilde.case" x="447" y="0" flags="0x0"/>
    </TTGlyph>
    <TTGlyph name="B" xMin="-68" yMin="0" xMax="1229" yMax="1450">
      <contour>
        <pt x="1145" y="711" on="0"/>
        <pt x="1145" y="432" on="1"/>
        <pt x="1145" y="293" on="0"/>
        <pt x="969" y="97" on="0"/>
        <pt x="689" y="0" on="0"/>
        <pt x="535" y="0" on="1"/>
        <pt x="465" y="0" on="0"/>
        <pt x="385" y="3" on="1"/>
        <pt x="202" y="6" on="0"/>
        <pt x="182" y="6" on="1"/>
        <pt x="19" y="6" on="0"/>
        <pt x="-68" y="0" on="1"/>
        <pt x="-59" y="41" on="1"/>
        <pt x="15" y="44" on="0"/>
        <pt x="88" y="70" on="0"/>
        <pt x="132" y="140" on="0"/>
        <pt x="152" y="217" on="1"/>
        <pt x="422" y="1233" on="1"/>
        <pt x="439" y="1301" on="0"/>
        <pt x="439" y="1331" on="1"/>
        <pt x="439" y="1372" on="0"/>
        <pt x="379" y="1408" on="0"/>
        <pt x="301" y="1409" on="1"/>
        <pt x="311" y="1450" on="1"/>
        <pt x="395" y="1444" on="0"/>
        <pt x="555" y="1444" on="1"/>
        <pt x="599" y="1444" on="0"/>
        <pt x="693" y="1446" on="1"/>
        <pt x="791" y="1448" on="0"/>
        <pt x="844" y="1448" on="1"/>
        <pt x="1034" y="1448" on="0"/>
        <pt x="1229" y="1308" on="0"/>
        <pt x="1229" y="1186" on="1"/>
        <pt x="1229" y="1086" on="0"/>
        <pt x="1111" y="919" on="0"/>
        <pt x="921" y="801" on="0"/>
        <pt x="809" y="766" on="1"/>
      </contour>
      <contour>
        <pt x="623" y="770" on="1"/>
        <pt x="742" y="770" on="0"/>
        <pt x="926" y="881" on="0"/>
        <pt x="1026" y="1065" on="0"/>
        <pt x="1026" y="1171" on="1"/>
        <pt x="1026" y="1293" on="0"/>
        <pt x="921" y="1409" on="0"/>
        <pt x="805" y="1409" on="1"/>
        <pt x="743" y="1409" on="0"/>
        <pt x="674" y="1385" on="0"/>
        <pt x="634" y="1325" on="0"/>
        <pt x="618" y="1264" on="1"/>
        <pt x="488" y="770" on="1"/>
      </contour>
      <contour>
        <pt x="707" y="47" on="0"/>
        <pt x="940" y="257" on="0"/>
        <pt x="940" y="463" on="1"/>
        <pt x="940" y="735" on="0"/>
        <pt x="647" y="735" on="1"/>
        <pt x="479" y="735" on="1"/>
        <pt x="342" y="217" on="1"/>
        <pt x="323" y="144" on="0"/>
        <pt x="323" y="117" on="1"/>
        <pt x="323" y="79" on="0"/>
        <pt x="377" y="47" on="0"/>
        <pt x="446" y="47" on="1"/>
      </contour>
    </TTGlyph>
    <TTGlyph name="C" xMin="104" yMin="-29" xMax="1458" yMax="1479">
      <contour>
        <pt x="1390" y="1273" on="0"/>
        <pt x="1327" y="979" on="1"/>
        <pt x="1282" y="979" on="1"/>
        <pt x="1294" y="1059" on="0"/>
        <pt x="1294" y="1119" on="1"/>
        <pt x="1294" y="1215" on="0"/>
        <pt x="1262" y="1282" on="1"/>
        <pt x="1224" y="1358" on="0"/>
        <pt x="1079" y="1442" on="0"/>
        <pt x="993" y="1442" on="1"/>
        <pt x="823" y="1442" on="0"/>
        <pt x="506" y="1122" on="0"/>
        <pt x="309" y="637" on="0"/>
        <pt x="309" y="410" on="1"/>
        <pt x="309" y="212" on="0"/>
        <pt x="464" y="8" on="0"/>
        <pt x="602" y="8" on="1"/>
        <pt x="692" y="8" on="0"/>
        <pt x="893" y="92" on="0"/>
        <pt x="967" y="168" on="1"/>
        <pt x="1019" y="221" on="0"/>
        <pt x="1098" y="363" on="0"/>
        <pt x="1151" y="492" on="1"/>
        <pt x="1196" y="492" on="1"/>
        <pt x="1103" y="152" on="0"/>
        <pt x="1075" y="0" on="1"/>
        <pt x="1030" y="0" on="1"/>
        <pt x="1036" y="44" on="0"/>
        <pt x="1036" y="70" on="1"/>
        <pt x="1036" y="122" on="0"/>
        <pt x="1012" y="122" on="1"/>
        <pt x="996" y="122" on="0"/>
        <pt x="969" y="104" on="1"/>
        <pt x="896" y="57" on="0"/>
        <pt x="797" y="5" on="0"/>
        <pt x="667" y="-29" on="0"/>
        <pt x="582" y="-29" on="1"/>
        <pt x="354" y="-29" on="0"/>
        <pt x="104" y="217" on="0"/>
        <pt x="104" y="453" on="1"/>
        <pt x="104" y="689" on="0"/>
        <pt x="340" y="1168" on="0"/>
        <pt x="751" y="1479" on="0"/>
        <pt x="997" y="1479" on="1"/>
        <pt x="1080" y="1479" on="0"/>
        <pt x="1192" y="1443" on="0"/>
        <pt x="1261" y="1390" on="0"/>
        <pt x="1303" y="1346" on="1"/>
        <pt x="1321" y="1328" on="0"/>
        <pt x="1334" y="1328" on="1"/>
        <pt x="1370" y="1328" on="0"/>
        <pt x="1415" y="1450" on="1"/>
        <pt x="1458" y="1450" on="1"/>
      </contour>
    </TTGlyph>
    <TTGlyph name="Cacute" xMin="104" yMin="-29" xMax="1458" yMax="1918">
      <component glyphName=".ttfautohint" x="104" y="0" flags="0x0"/>
      <component glyphName="C" x="0" y="0" flags="0x0"/>
      <component glyphName="acute.case" x="840" y="0" flags="0x0"/>
    </TTGlyph>
    <TTGlyph name="Cacute.loclPLK" xMin="104" yMin="-29" xMax="1458" yMax="1925">
      <component glyphName=".ttfautohint" x="104" y="0" flags="0x0"/>
      <component glyphName="C" x="0" y="0" flags="0x0"/>
      <component glyphName="acute.loclPLK.case" x="897" y="0" flags="0x0"/>
    </TTGlyph>
    <TTGlyph name="Ccaron" xMin="104" yMin="-29" xMax="1508" yMax="1892">
      <component glyphName=".ttfautohint" x="104" y="0" flags="0x0"/>
      <component glyphName="C" x="0" y="0" flags="0x0"/>
      <component glyphName="caron.case" x="568" y="0" flags="0x0"/>
    </TTGlyph>
    <TTGlyph name="Ccedilla" xMin="104" yMin="-385" xMax="1458" yMax="1479">
      <contour>
        <pt x="1390" y="1273" on="0"/>
        <pt x="1327" y="979" on="1"/>
        <pt x="1282" y="979" on="1"/>
        <pt x="1294" y="1058" on="0"/>
        <pt x="1294" y="1119" on="1"/>
        <pt x="1294" y="1215" on="0"/>
        <pt x="1262" y="1282" on="1"/>
        <pt x="1224" y="1358" on="0"/>
        <pt x="1079" y="1442" on="0"/>
        <pt x="993" y="1442" on="1"/>
        <pt x="823" y="1442" on="0"/>
        <pt x="506" y="1122" on="0"/>
        <pt x="309" y="637" on="0"/>
        <pt x="309" y="410" on="1"/>
        <pt x="309" y="212" on="0"/>
        <pt x="464" y="8" on="0"/>
        <pt x="602" y="8" on="1"/>
        <pt x="692" y="8" on="0"/>
        <pt x="893" y="92" on="0"/>
        <pt x="967" y="168" on="1"/>
        <pt x="1019" y="221" on="0"/>
        <pt x="1098" y="363" on="0"/>
        <pt x="1151" y="492" on="1"/>
        <pt x="1196" y="492" on="1"/>
        <pt x="1103" y="152" on="0"/>
        <pt x="1075" y="0" on="1"/>
        <pt x="1030" y="0" on="1"/>
        <pt x="1036" y="43" on="0"/>
        <pt x="1036" y="70" on="1"/>
        <pt x="1036" y="122" on="0"/>
        <pt x="1012" y="122" on="1"/>
        <pt x="996" y="122" on="0"/>
        <pt x="969" y="104" on="1"/>
        <pt x="898" y="58" on="0"/>
        <pt x="804" y="8" on="0"/>
        <pt x="680" y="-27" on="0"/>
        <pt x="601" y="-29" on="1"/>
        <pt x="545" y="-147" on="1"/>
        <pt x="596" y="-133" on="0"/>
        <pt x="649" y="-133" on="1"/>
        <pt x="700" y="-133" on="0"/>
        <pt x="758" y="-177" on="0"/>
        <pt x="758" y="-215" on="1"/>
        <pt x="758" y="-271" on="0"/>
        <pt x="661" y="-348" on="0"/>
        <pt x="516" y="-385" on="0"/>
        <pt x="445" y="-385" on="1"/>
        <pt x="378" y="-385" on="0"/>
        <pt x="270" y="-359" on="0"/>
        <pt x="240" y="-340" on="1"/>
        <pt x="254" y="-309" on="1"/>
        <pt x="325" y="-336" on="0"/>
        <pt x="418" y="-336" on="1"/>
        <pt x="456" y="-336" on="0"/>
        <pt x="554" y="-316" on="0"/>
        <pt x="627" y="-269" on="0"/>
        <pt x="627" y="-231" on="1"/>
        <pt x="627" y="-182" on="0"/>
        <pt x="549" y="-182" on="1"/>
        <pt x="507" y="-182" on="0"/>
        <pt x="465" y="-197" on="1"/>
        <pt x="546" y="-28" on="1"/>
        <pt x="334" y="-18" on="0"/>
        <pt x="104" y="227" on="0"/>
        <pt x="104" y="453" on="1"/>
        <pt x="104" y="689" on="0"/>
        <pt x="340" y="1168" on="0"/>
        <pt x="751" y="1479" on="0"/>
        <pt x="997" y="1479" on="1"/>
        <pt x="1080" y="1479" on="0"/>
        <pt x="1192" y="1443" on="0"/>
        <pt x="1261" y="1390" on="0"/>
        <pt x="1303" y="1346" on="1"/>
        <pt x="1321" y="1328" on="0"/>
        <pt x="1334" y="1328" on="1"/>
        <pt x="1370" y="1328" on="0"/>
        <pt x="1415" y="1450" on="1"/>
        <pt x="1458" y="1450" on="1"/>
      </contour>
    </TTGlyph>
    <TTGlyph name="Ccircumflex" xMin="104" yMin="-29" xMax="1458" yMax="1876">
      <component glyphName=".ttfautohint" x="104" y="0" flags="0x0"/>
      <component glyphName="C" x="0" y="0" flags="0x0"/>
      <component glyphName="circumflex.case" x="574" y="0" flags="0x0"/>
    </TTGlyph>
    <TTGlyph name="Cdotaccent" xMin="104" yMin="-29" xMax="1458" yMax="1843">
      <component glyphName=".ttfautohint" x="104" y="0" flags="0x0"/>
      <component glyphName="C" x="0" y="0" flags="0x0"/>
      <component glyphName="dotaccent.case" x="850" y="0" flags="0x0"/>
    </TTGlyph>
    <TTGlyph name="D" xMin="-61" yMin="0" xMax="1442" yMax="1450">
      <contour>
        <pt x="1442" y="741" on="0"/>
        <pt x="1189" y="281" on="0"/>
        <pt x="744" y="0" on="0"/>
        <pt x="471" y="0" on="1"/>
        <pt x="424" y="0" on="0"/>
        <pt x="352" y="3" on="1"/>
        <pt x="181" y="6" on="0"/>
        <pt x="184" y="6" on="1"/>
        <pt x="19" y="6" on="0"/>
        <pt x="-61" y="0" on="1"/>
        <pt x="-55" y="41" on="1"/>
        <pt x="15" y="44" on="0"/>
        <pt x="86" y="70" on="0"/>
        <pt x="130" y="141" on="0"/>
        <pt x="150" y="217" on="1"/>
        <pt x="418" y="1233" on="1"/>
        <pt x="437" y="1307" on="0"/>
        <pt x="437" y="1334" on="1"/>
        <pt x="437" y="1374" on="0"/>
        <pt x="377" y="1407" on="0"/>
        <pt x="299" y="1409" on="1"/>
        <pt x="305" y="1450" on="1"/>
        <pt x="415" y="1443" on="0"/>
        <pt x="505" y="1443" on="1"/>
        <pt x="555" y="1444" on="1"/>
        <pt x="639" y="1446" on="1"/>
        <pt x="799" y="1450" on="0"/>
        <pt x="864" y="1450" on="1"/>
        <pt x="1152" y="1450" on="0"/>
        <pt x="1442" y="1220" on="0"/>
        <pt x="1442" y="997" on="1"/>
      </contour>
      <contour>
        <pt x="700" y="37" on="0"/>
        <pt x="1061" y="314" on="0"/>
        <pt x="1245" y="775" on="0"/>
        <pt x="1245" y="1049" on="1"/>
        <pt x="1245" y="1234" on="0"/>
        <pt x="1037" y="1413" on="0"/>
        <pt x="807" y="1413" on="1"/>
        <pt x="743" y="1413" on="0"/>
        <pt x="671" y="1384" on="0"/>
        <pt x="627" y="1310" on="0"/>
        <pt x="608" y="1237" on="1"/>
        <pt x="340" y="213" on="1"/>
        <pt x="321" y="142" on="0"/>
        <pt x="321" y="112" on="1"/>
        <pt x="321" y="73" on="0"/>
        <pt x="377" y="37" on="0"/>
        <pt x="446" y="37" on="1"/>
      </contour>
    </TTGlyph>
    <TTGlyph name="Dcaron" xMin="-61" yMin="0" xMax="1442" yMax="1892">
      <component glyphName=".ttfautohint" x="0" y="0" flags="0x0"/>
      <component glyphName="D" x="0" y="0" flags="0x0"/>
      <component glyphName="caron.case" x="402" y="0" flags="0x0"/>
    </TTGlyph>
    <TTGlyph name="Dcroat" xMin="-61" yMin="0" xMax="1442" yMax="1450">
      <component glyphName=".ttfautohint" x="0" y="0" flags="0x0"/>
      <component glyphName="Eth" x="0" y="0" flags="0x0"/>
    </TTGlyph>
    <TTGlyph name="Delta" xMin="47" yMin="0" xMax="952" yMax="1479">
      <contour>
        <pt x="729" y="6" on="0"/>
        <pt x="502" y="6" on="1"/>
        <pt x="275" y="6" on="0"/>
        <pt x="47" y="0" on="1"/>
        <pt x="524" y="1479" on="1"/>
        <pt x="557" y="1479" on="1"/>
        <pt x="952" y="0" on="1"/>
      </contour>
      <contour>
        <pt x="731" y="61" on="1"/>
        <pt x="442" y="1110" on="1"/>
        <pt x="109" y="61" on="1"/>
      </contour>
    </TTGlyph>
    <TTGlyph name="E" xMin="-72" yMin="0" xMax="1315" yMax="1450">
      <contour>
        <pt x="1194" y="1444" on="0"/>
        <pt x="1315" y="1450" on="1"/>
        <pt x="1261" y="1302" on="0"/>
        <pt x="1237" y="1208" on="1"/>
        <pt x="1214" y="1128" on="0"/>
        <pt x="1208" y="1081" on="1"/>
        <pt x="1161" y="1081" on="1"/>
        <pt x="1179" y="1191" on="0"/>
        <pt x="1179" y="1246" on="1"/>
        <pt x="1179" y="1305" on="0"/>
        <pt x="1141" y="1372" on="0"/>
        <pt x="1052" y="1403" on="0"/>
        <pt x="973" y="1403" on="1"/>
        <pt x="823" y="1403" on="1"/>
        <pt x="750" y="1403" on="0"/>
        <pt x="677" y="1379" on="0"/>
        <pt x="633" y="1310" on="0"/>
        <pt x="612" y="1233" on="1"/>
        <pt x="483" y="750" on="1"/>
        <pt x="618" y="750" on="1"/>
        <pt x="690" y="750" on="0"/>
        <pt x="784" y="818" on="0"/>
        <pt x="837" y="909" on="0"/>
        <pt x="864" y="978" on="1"/>
        <pt x="879" y="1017" on="0"/>
        <pt x="881" y="1020" on="1"/>
        <pt x="928" y="1020" on="1"/>
        <pt x="884" y="885" on="0"/>
        <pt x="853" y="765" on="1"/>
        <pt x="844" y="729" on="1"/>
        <pt x="817" y="633" on="0"/>
        <pt x="778" y="438" on="1"/>
        <pt x="731" y="438" on="1"/>
        <pt x="735" y="464" on="1"/>
        <pt x="747" y="542" on="0"/>
        <pt x="747" y="577" on="1"/>
        <pt x="747" y="640" on="0"/>
        <pt x="685" y="709" on="0"/>
        <pt x="606" y="709" on="1"/>
        <pt x="472" y="709" on="1"/>
        <pt x="340" y="217" on="1"/>
        <pt x="322" y="153" on="0"/>
        <pt x="322" y="118" on="1"/>
        <pt x="322" y="88" on="0"/>
        <pt x="350" y="58" on="0"/>
        <pt x="408" y="47" on="0"/>
        <pt x="461" y="47" on="1"/>
        <pt x="610" y="47" on="1"/>
        <pt x="738" y="47" on="0"/>
        <pt x="889" y="115" on="0"/>
        <pt x="989" y="265" on="0"/>
        <pt x="1042" y="410" on="1"/>
        <pt x="1090" y="410" on="1"/>
        <pt x="1070" y="360" on="0"/>
        <pt x="1044" y="262" on="1"/>
        <pt x="1014" y="152" on="0"/>
        <pt x="989" y="0" on="1"/>
        <pt x="850" y="6" on="0"/>
        <pt x="520" y="6" on="1"/>
        <pt x="127" y="6" on="0"/>
        <pt x="-72" y="0" on="1"/>
        <pt x="-61" y="41" on="1"/>
        <pt x="13" y="44" on="0"/>
        <pt x="85" y="70" on="0"/>
        <pt x="129" y="140" on="0"/>
        <pt x="150" y="217" on="1"/>
        <pt x="422" y="1233" on="1"/>
        <pt x="440" y="1298" on="0"/>
        <pt x="440" y="1333" on="1"/>
        <pt x="440" y="1363" on="0"/>
        <pt x="413" y="1394" on="0"/>
        <pt x="356" y="1407" on="0"/>
        <pt x="303" y="1409" on="1"/>
        <pt x="313" y="1450" on="1"/>
        <pt x="514" y="1444" on="0"/>
        <pt x="907" y="1444" on="1"/>
      </contour>
    </TTGlyph>
    <TTGlyph name="Eacute" xMin="-72" yMin="0" xMax="1315" yMax="1918">
      <component glyphName=".ttfautohint" x="0" y="0" flags="0x0"/>
      <component glyphName="E" x="0" y="0" flags="0x0"/>
      <component glyphName="acute.case" x="694" y="0" flags="0x0"/>
    </TTGlyph>
    <TTGlyph name="Ebreve" xMin="-72" yMin="0" xMax="1380" yMax="1858">
      <component glyphName=".ttfautohint" x="0" y="0" flags="0x0"/>
      <component glyphName="E" x="0" y="0" flags="0x0"/>
      <component glyphName="breve.case" x="401" y="0" flags="0x0"/>
    </TTGlyph>
    <TTGlyph name="Ecaron" xMin="-72" yMin="0" xMax="1362" yMax="1892">
      <component glyphName=".ttfautohint" x="0" y="0" flags="0x0"/>
      <component glyphName="E" x="0" y="0" flags="0x0"/>
      <component glyphName="caron.case" x="422" y="0" flags="0x0"/>
    </TTGlyph>
    <TTGlyph name="Ecircumflex" xMin="-72" yMin="0" xMax="1315" yMax="1876">
      <component glyphName=".ttfautohint" x="0" y="0" flags="0x0"/>
      <component glyphName="E" x="0" y="0" flags="0x0"/>
      <component glyphName="circumflex.case" x="428" y="0" flags="0x0"/>
    </TTGlyph>
    <TTGlyph name="Edieresis" xMin="-72" yMin="0" xMax="1315" yMax="1819">
      <component glyphName=".ttfautohint" x="0" y="0" flags="0x0"/>
      <component glyphName="E" x="0" y="0" flags="0x0"/>
      <component glyphName="dieresis.case" x="473" y="0" flags="0x0"/>
    </TTGlyph>
    <TTGlyph name="Edotaccent" xMin="-72" yMin="0" xMax="1315" yMax="1843">
      <component glyphName=".ttfautohint" x="0" y="0" flags="0x0"/>
      <component glyphName="E" x="0" y="0" flags="0x0"/>
      <component glyphName="dotaccent.case" x="704" y="0" flags="0x0"/>
    </TTGlyph>
    <TTGlyph name="Egrave" xMin="-72" yMin="0" xMax="1315" yMax="1962">
      <component glyphName=".ttfautohint" x="0" y="0" flags="0x0"/>
      <component glyphName="E" x="0" y="0" flags="0x0"/>
      <component glyphName="grave.case" x="475" y="0" flags="0x0"/>
    </TTGlyph>
    <TTGlyph name="Emacron" xMin="-72" yMin="0" xMax="1315" yMax="1729">
      <component glyphName=".ttfautohint" x="0" y="0" flags="0x0"/>
      <component glyphName="E" x="0" y="0" flags="0x0"/>
      <component glyphName="macron.case" x="448" y="0" flags="0x0"/>
    </TTGlyph>
    <TTGlyph name="Eng" xMin="-68" yMin="-385" xMax="1585" yMax="1450">
      <contour>
        <pt x="1514" y="1444" on="0"/>
        <pt x="1585" y="1450" on="1"/>
        <pt x="1575" y="1409" on="1"/>
        <pt x="1503" y="1406" on="0"/>
        <pt x="1426" y="1371" on="0"/>
        <pt x="1381" y="1291" on="0"/>
        <pt x="1360" y="1212" on="1"/>
        <pt x="1075" y="137" on="1"/>
        <pt x="1015" y="-128" on="0"/>
        <pt x="815" y="-385" on="0"/>
        <pt x="668" y="-385" on="1"/>
        <pt x="593" y="-385" on="0"/>
        <pt x="483" y="-325" on="0"/>
        <pt x="483" y="-268" on="1"/>
        <pt x="483" y="-238" on="0"/>
        <pt x="513" y="-184" on="0"/>
        <pt x="565" y="-152" on="0"/>
        <pt x="596" y="-152" on="1"/>
        <pt x="633" y="-152" on="0"/>
        <pt x="682" y="-201" on="0"/>
        <pt x="682" y="-237" on="1"/>
        <pt x="682" y="-271" on="0"/>
        <pt x="635" y="-325" on="0"/>
        <pt x="600" y="-342" on="1"/>
        <pt x="630" y="-352" on="0"/>
        <pt x="672" y="-352" on="1"/>
        <pt x="782" y="-352" on="0"/>
        <pt x="940" y="-166" on="0"/>
        <pt x="991" y="-10" on="1"/>
        <pt x="494" y="1337" on="1"/>
        <pt x="205" y="238" on="1"/>
        <pt x="187" y="168" on="0"/>
        <pt x="187" y="135" on="1"/>
        <pt x="187" y="85" on="0"/>
        <pt x="256" y="44" on="0"/>
        <pt x="342" y="41" on="1"/>
        <pt x="332" y="0" on="1"/>
        <pt x="262" y="6" on="0"/>
        <pt x="125" y="6" on="1"/>
        <pt x="4" y="6" on="0"/>
        <pt x="-68" y="0" on="1"/>
        <pt x="-57" y="41" on="1"/>
        <pt x="15" y="44" on="0"/>
        <pt x="92" y="79" on="0"/>
        <pt x="137" y="159" on="0"/>
        <pt x="158" y="238" on="1"/>
        <pt x="422" y="1233" on="1"/>
        <pt x="439" y="1298" on="0"/>
        <pt x="439" y="1331" on="1"/>
        <pt x="439" y="1362" on="0"/>
        <pt x="411" y="1394" on="0"/>
        <pt x="354" y="1407" on="0"/>
        <pt x="301" y="1409" on="1"/>
        <pt x="311" y="1450" on="1"/>
        <pt x="376" y="1444" on="0"/>
        <pt x="494" y="1444" on="1"/>
        <pt x="588" y="1444" on="0"/>
        <pt x="659" y="1450" on="1"/>
        <pt x="1073" y="299" on="1"/>
        <pt x="1313" y="1212" on="1"/>
        <pt x="1330" y="1277" on="0"/>
        <pt x="1330" y="1314" on="1"/>
        <pt x="1330" y="1365" on="0"/>
        <pt x="1262" y="1406" on="0"/>
        <pt x="1176" y="1409" on="1"/>
        <pt x="1186" y="1450" on="1"/>
        <pt x="1256" y="1444" on="0"/>
        <pt x="1393" y="1444" on="1"/>
      </contour>
    </TTGlyph>
    <TTGlyph name="Eogonek" xMin="-72" yMin="-385" xMax="1315" yMax="1450">
      <contour>
        <pt x="1194" y="1444" on="0"/>
        <pt x="1315" y="1450" on="1"/>
        <pt x="1261" y="1302" on="0"/>
        <pt x="1237" y="1208" on="1"/>
        <pt x="1214" y="1127" on="0"/>
        <pt x="1208" y="1081" on="1"/>
        <pt x="1161" y="1081" on="1"/>
        <pt x="1179" y="1191" on="0"/>
        <pt x="1179" y="1246" on="1"/>
        <pt x="1179" y="1305" on="0"/>
        <pt x="1141" y="1372" on="0"/>
        <pt x="1052" y="1403" on="0"/>
        <pt x="973" y="1403" on="1"/>
        <pt x="823" y="1403" on="1"/>
        <pt x="750" y="1403" on="0"/>
        <pt x="677" y="1379" on="0"/>
        <pt x="633" y="1310" on="0"/>
        <pt x="612" y="1233" on="1"/>
        <pt x="483" y="750" on="1"/>
        <pt x="618" y="750" on="1"/>
        <pt x="690" y="750" on="0"/>
        <pt x="784" y="818" on="0"/>
        <pt x="837" y="909" on="0"/>
        <pt x="864" y="978" on="1"/>
        <pt x="880" y="1017" on="0"/>
        <pt x="881" y="1020" on="1"/>
        <pt x="928" y="1020" on="1"/>
        <pt x="884" y="885" on="0"/>
        <pt x="853" y="765" on="1"/>
        <pt x="844" y="729" on="1"/>
        <pt x="817" y="633" on="0"/>
        <pt x="778" y="438" on="1"/>
        <pt x="731" y="438" on="1"/>
        <pt x="735" y="464" on="1"/>
        <pt x="747" y="542" on="0"/>
        <pt x="747" y="577" on="1"/>
        <pt x="747" y="640" on="0"/>
        <pt x="685" y="709" on="0"/>
        <pt x="606" y="709" on="1"/>
        <pt x="472" y="709" on="1"/>
        <pt x="340" y="217" on="1"/>
        <pt x="322" y="152" on="0"/>
        <pt x="322" y="118" on="1"/>
        <pt x="322" y="88" on="0"/>
        <pt x="350" y="58" on="0"/>
        <pt x="408" y="47" on="0"/>
        <pt x="461" y="47" on="1"/>
        <pt x="610" y="47" on="1"/>
        <pt x="738" y="47" on="0"/>
        <pt x="889" y="115" on="0"/>
        <pt x="989" y="265" on="0"/>
        <pt x="1042" y="410" on="1"/>
        <pt x="1090" y="410" on="1"/>
        <pt x="1070" y="360" on="0"/>
        <pt x="1044" y="262" on="1"/>
        <pt x="1014" y="152" on="0"/>
        <pt x="989" y="0" on="1"/>
        <pt x="965" y="1" on="1"/>
        <pt x="874" y="-28" on="0"/>
        <pt x="740" y="-137" on="0"/>
        <pt x="740" y="-211" on="1"/>
        <pt x="740" y="-287" on="0"/>
        <pt x="820" y="-287" on="1"/>
        <pt x="859" y="-287" on="0"/>
        <pt x="950" y="-254" on="0"/>
        <pt x="978" y="-233" on="1"/>
        <pt x="1000" y="-268" on="1"/>
        <pt x="877" y="-385" on="0"/>
        <pt x="736" y="-385" on="1"/>
        <pt x="662" y="-385" on="0"/>
        <pt x="584" y="-321" on="0"/>
        <pt x="584" y="-266" on="1"/>
        <pt x="584" y="-176" on="0"/>
        <pt x="771" y="-39" on="0"/>
        <pt x="895" y="3" on="1"/>
        <pt x="771" y="6" on="0"/>
        <pt x="520" y="6" on="1"/>
        <pt x="127" y="6" on="0"/>
        <pt x="-72" y="0" on="1"/>
        <pt x="-61" y="41" on="1"/>
        <pt x="13" y="44" on="0"/>
        <pt x="85" y="70" on="0"/>
        <pt x="129" y="140" on="0"/>
        <pt x="150" y="217" on="1"/>
        <pt x="422" y="1233" on="1"/>
        <pt x="440" y="1298" on="0"/>
        <pt x="440" y="1333" on="1"/>
        <pt x="440" y="1363" on="0"/>
        <pt x="413" y="1394" on="0"/>
        <pt x="356" y="1407" on="0"/>
        <pt x="303" y="1409" on="1"/>
        <pt x="313" y="1450" on="1"/>
        <pt x="514" y="1444" on="0"/>
        <pt x="907" y="1444" on="1"/>
      </contour>
    </TTGlyph>
    <TTGlyph name="Eth" xMin="-61" yMin="0" xMax="1442" yMax="1450">
      <contour>
        <pt x="1152" y="1450" on="0"/>
        <pt x="1442" y="1220" on="0"/>
        <pt x="1442" y="997" on="1"/>
        <pt x="1442" y="741" on="0"/>
        <pt x="1189" y="281" on="0"/>
        <pt x="744" y="0" on="0"/>
        <pt x="471" y="0" on="1"/>
        <pt x="424" y="0" on="0"/>
        <pt x="352" y="3" on="1"/>
        <pt x="181" y="6" on="0"/>
        <pt x="184" y="6" on="1"/>
        <pt x="19" y="6" on="0"/>
        <pt x="-61" y="0" on="1"/>
        <pt x="-55" y="41" on="1"/>
        <pt x="15" y="44" on="0"/>
        <pt x="86" y="70" on="0"/>
        <pt x="130" y="141" on="0"/>
        <pt x="150" y="217" on="1"/>
        <pt x="279" y="707" on="1"/>
        <pt x="135" y="707" on="1"/>
        <pt x="147" y="759" on="1"/>
        <pt x="293" y="759" on="1"/>
        <pt x="418" y="1233" on="1"/>
        <pt x="437" y="1307" on="0"/>
        <pt x="437" y="1334" on="1"/>
        <pt x="437" y="1374" on="0"/>
        <pt x="377" y="1407" on="0"/>
        <pt x="299" y="1409" on="1"/>
        <pt x="305" y="1450" on="1"/>
        <pt x="415" y="1443" on="0"/>
        <pt x="505" y="1443" on="1"/>
        <pt x="555" y="1444" on="1"/>
        <pt x="639" y="1446" on="1"/>
        <pt x="799" y="1450" on="0"/>
        <pt x="864" y="1450" on="1"/>
      </contour>
      <contour>
        <pt x="700" y="37" on="0"/>
        <pt x="1061" y="314" on="0"/>
        <pt x="1245" y="775" on="0"/>
        <pt x="1245" y="1049" on="1"/>
        <pt x="1245" y="1234" on="0"/>
        <pt x="1037" y="1413" on="0"/>
        <pt x="807" y="1413" on="1"/>
        <pt x="743" y="1413" on="0"/>
        <pt x="671" y="1384" on="0"/>
        <pt x="627" y="1310" on="0"/>
        <pt x="608" y="1237" on="1"/>
        <pt x="483" y="759" on="1"/>
        <pt x="868" y="759" on="1"/>
        <pt x="856" y="707" on="1"/>
        <pt x="469" y="707" on="1"/>
        <pt x="340" y="213" on="1"/>
        <pt x="321" y="142" on="0"/>
        <pt x="321" y="112" on="1"/>
        <pt x="321" y="73" on="0"/>
        <pt x="377" y="37" on="0"/>
        <pt x="446" y="37" on="1"/>
      </contour>
    </TTGlyph>
    <TTGlyph name="Euro" xMin="78" yMin="-29" xMax="1298" yMax="1479">
      <contour>
        <pt x="1298" y="1351" on="0"/>
        <pt x="1298" y="1292" on="1"/>
        <pt x="1298" y="1257" on="0"/>
        <pt x="1260" y="1191" on="0"/>
        <pt x="1195" y="1151" on="0"/>
        <pt x="1157" y="1151" on="1"/>
        <pt x="1118" y="1151" on="0"/>
        <pt x="1071" y="1193" on="0"/>
        <pt x="1071" y="1229" on="1"/>
        <pt x="1071" y="1277" on="0"/>
        <pt x="1144" y="1356" on="0"/>
        <pt x="1198" y="1370" on="1"/>
        <pt x="1187" y="1400" on="0"/>
        <pt x="1094" y="1444" on="0"/>
        <pt x="1038" y="1444" on="1"/>
        <pt x="937" y="1444" on="0"/>
        <pt x="744" y="1284" on="0"/>
        <pt x="582" y="1016" on="0"/>
        <pt x="524" y="854" on="1"/>
        <pt x="940" y="854" on="1"/>
        <pt x="905" y="813" on="1"/>
        <pt x="510" y="813" on="1"/>
        <pt x="489" y="754" on="0"/>
        <pt x="462" y="649" on="1"/>
        <pt x="770" y="649" on="1"/>
        <pt x="733" y="608" on="1"/>
        <pt x="453" y="608" on="1"/>
        <pt x="420" y="452" on="0"/>
        <pt x="420" y="328" on="1"/>
        <pt x="420" y="169" on="0"/>
        <pt x="529" y="6" on="0"/>
        <pt x="635" y="6" on="1"/>
        <pt x="697" y="6" on="0"/>
        <pt x="819" y="53" on="0"/>
        <pt x="844" y="84" on="1"/>
        <pt x="780" y="96" on="0"/>
        <pt x="780" y="160" on="1"/>
        <pt x="780" y="196" on="0"/>
        <pt x="821" y="260" on="0"/>
        <pt x="890" y="299" on="0"/>
        <pt x="928" y="299" on="1"/>
        <pt x="967" y="299" on="0"/>
        <pt x="1012" y="257" on="0"/>
        <pt x="1012" y="221" on="1"/>
        <pt x="1012" y="128" on="0"/>
        <pt x="872" y="43" on="1"/>
        <pt x="755" y="-29" on="0"/>
        <pt x="616" y="-29" on="1"/>
        <pt x="498" y="-29" on="0"/>
        <pt x="325" y="74" on="0"/>
        <pt x="231" y="270" on="0"/>
        <pt x="231" y="408" on="1"/>
        <pt x="231" y="502" on="0"/>
        <pt x="252" y="608" on="1"/>
        <pt x="78" y="608" on="1"/>
        <pt x="90" y="649" on="1"/>
        <pt x="261" y="649" on="1"/>
        <pt x="282" y="736" on="0"/>
        <pt x="310" y="813" on="1"/>
        <pt x="133" y="813" on="1"/>
        <pt x="145" y="854" on="1"/>
        <pt x="326" y="854" on="1"/>
        <pt x="393" y="1024" on="0"/>
        <pt x="600" y="1307" on="0"/>
        <pt x="871" y="1479" on="0"/>
        <pt x="1026" y="1479" on="1"/>
        <pt x="1158" y="1479" on="0"/>
        <pt x="1239" y="1407" on="1"/>
      </contour>
    </TTGlyph>
    <TTGlyph name="Euro.smcp" xMin="49" yMin="-29" xMax="1167" yMax="1274">
      <contour>
        <pt x="1167" y="1146" on="0"/>
        <pt x="1167" y="1087" on="1"/>
        <pt x="1167" y="1052" on="0"/>
        <pt x="1128" y="987" on="0"/>
        <pt x="1063" y="946" on="0"/>
        <pt x="1026" y="946" on="1"/>
        <pt x="987" y="946" on="0"/>
        <pt x="940" y="988" on="0"/>
        <pt x="940" y="1024" on="1"/>
        <pt x="940" y="1073" on="0"/>
        <pt x="1012" y="1151" on="0"/>
        <pt x="1067" y="1165" on="1"/>
        <pt x="1056" y="1195" on="0"/>
        <pt x="963" y="1239" on="0"/>
        <pt x="907" y="1239" on="1"/>
        <pt x="812" y="1239" on="0"/>
        <pt x="638" y="1112" on="0"/>
        <pt x="500" y="891" on="0"/>
        <pt x="456" y="752" on="1"/>
        <pt x="911" y="752" on="1"/>
        <pt x="877" y="711" on="1"/>
        <pt x="443" y="711" on="1"/>
        <pt x="421" y="632" on="0"/>
        <pt x="407" y="547" on="1"/>
        <pt x="741" y="547" on="1"/>
        <pt x="705" y="506" on="1"/>
        <pt x="401" y="506" on="1"/>
        <pt x="391" y="414" on="0"/>
        <pt x="391" y="342" on="1"/>
        <pt x="391" y="6" on="0"/>
        <pt x="586" y="6" on="1"/>
        <pt x="648" y="6" on="0"/>
        <pt x="770" y="53" on="0"/>
        <pt x="795" y="84" on="1"/>
        <pt x="731" y="96" on="0"/>
        <pt x="731" y="160" on="1"/>
        <pt x="731" y="196" on="0"/>
        <pt x="772" y="260" on="0"/>
        <pt x="841" y="299" on="0"/>
        <pt x="879" y="299" on="1"/>
        <pt x="918" y="299" on="0"/>
        <pt x="963" y="257" on="0"/>
        <pt x="963" y="221" on="1"/>
        <pt x="963" y="128" on="0"/>
        <pt x="823" y="43" on="1"/>
        <pt x="706" y="-29" on="0"/>
        <pt x="567" y="-29" on="1"/>
        <pt x="436" y="-29" on="0"/>
        <pt x="277" y="56" on="0"/>
        <pt x="203" y="238" on="0"/>
        <pt x="203" y="387" on="1"/>
        <pt x="203" y="445" on="0"/>
        <pt x="212" y="506" on="1"/>
        <pt x="49" y="506" on="1"/>
        <pt x="61" y="547" on="1"/>
        <pt x="219" y="547" on="1"/>
        <pt x="236" y="632" on="0"/>
        <pt x="265" y="711" on="1"/>
        <pt x="104" y="711" on="1"/>
        <pt x="117" y="752" on="1"/>
        <pt x="281" y="752" on="1"/>
        <pt x="340" y="895" on="0"/>
        <pt x="525" y="1132" on="0"/>
        <pt x="763" y="1274" on="0"/>
        <pt x="895" y="1274" on="1"/>
        <pt x="1027" y="1274" on="0"/>
        <pt x="1108" y="1202" on="1"/>
      </contour>
    </TTGlyph>
    <TTGlyph name="F" xMin="-72" yMin="0" xMax="1315" yMax="1450">
      <contour>
        <pt x="1194" y="1444" on="0"/>
        <pt x="1315" y="1450" on="1"/>
        <pt x="1262" y="1301" on="0"/>
        <pt x="1231" y="1188" on="1"/>
        <pt x="1209" y="1112" on="0"/>
        <pt x="1192" y="1020" on="1"/>
        <pt x="1145" y="1020" on="1"/>
        <pt x="1168" y="1156" on="0"/>
        <pt x="1168" y="1224" on="1"/>
        <pt x="1168" y="1291" on="0"/>
        <pt x="1125" y="1368" on="0"/>
        <pt x="1023" y="1403" on="0"/>
        <pt x="932" y="1403" on="1"/>
        <pt x="823" y="1403" on="1"/>
        <pt x="750" y="1403" on="0"/>
        <pt x="677" y="1379" on="0"/>
        <pt x="633" y="1310" on="0"/>
        <pt x="612" y="1233" on="1"/>
        <pt x="477" y="729" on="1"/>
        <pt x="627" y="729" on="1"/>
        <pt x="700" y="729" on="0"/>
        <pt x="795" y="799" on="0"/>
        <pt x="847" y="892" on="0"/>
        <pt x="874" y="962" on="1"/>
        <pt x="884" y="988" on="0"/>
        <pt x="889" y="999" on="1"/>
        <pt x="936" y="999" on="1"/>
        <pt x="894" y="872" on="0"/>
        <pt x="862" y="749" on="1"/>
        <pt x="857" y="724" on="0"/>
        <pt x="852" y="709" on="1"/>
        <pt x="843" y="673" on="1"/>
        <pt x="768" y="331" on="0"/>
        <pt x="786" y="418" on="1"/>
        <pt x="739" y="418" on="1"/>
        <pt x="744" y="449" on="1"/>
        <pt x="756" y="527" on="0"/>
        <pt x="756" y="560" on="1"/>
        <pt x="756" y="621" on="0"/>
        <pt x="694" y="688" on="0"/>
        <pt x="616" y="688" on="1"/>
        <pt x="466" y="688" on="1"/>
        <pt x="340" y="217" on="1"/>
        <pt x="324" y="156" on="0"/>
        <pt x="324" y="126" on="1"/>
        <pt x="324" y="92" on="0"/>
        <pt x="358" y="57" on="0"/>
        <pt x="432" y="43" on="0"/>
        <pt x="500" y="41" on="1"/>
        <pt x="489" y="0" on="1"/>
        <pt x="383" y="6" on="0"/>
        <pt x="188" y="6" on="1"/>
        <pt x="15" y="6" on="0"/>
        <pt x="-72" y="0" on="1"/>
        <pt x="-61" y="41" on="1"/>
        <pt x="13" y="44" on="0"/>
        <pt x="85" y="70" on="0"/>
        <pt x="129" y="140" on="0"/>
        <pt x="150" y="217" on="1"/>
        <pt x="422" y="1233" on="1"/>
        <pt x="440" y="1298" on="0"/>
        <pt x="440" y="1333" on="1"/>
        <pt x="440" y="1363" on="0"/>
        <pt x="413" y="1394" on="0"/>
        <pt x="356" y="1407" on="0"/>
        <pt x="303" y="1409" on="1"/>
        <pt x="313" y="1450" on="1"/>
        <pt x="514" y="1444" on="0"/>
        <pt x="907" y="1444" on="1"/>
      </contour>
    </TTGlyph>
    <TTGlyph name="G" xMin="102" yMin="-29" xMax="1497" yMax="1479">
      <contour>
        <pt x="714" y="12" on="0"/>
        <pt x="836" y="50" on="0"/>
        <pt x="881" y="76" on="1"/>
        <pt x="922" y="100" on="0"/>
        <pt x="963" y="162" on="0"/>
        <pt x="975" y="205" on="1"/>
        <pt x="1022" y="385" on="1"/>
        <pt x="1040" y="453" on="0"/>
        <pt x="1040" y="491" on="1"/>
        <pt x="1040" y="527" on="0"/>
        <pt x="1006" y="564" on="0"/>
        <pt x="935" y="579" on="0"/>
        <pt x="868" y="582" on="1"/>
        <pt x="879" y="623" on="1"/>
        <pt x="978" y="616" on="0"/>
        <pt x="1165" y="616" on="1"/>
        <pt x="1311" y="616" on="0"/>
        <pt x="1380" y="623" on="1"/>
        <pt x="1370" y="582" on="1"/>
        <pt x="1321" y="578" on="0"/>
        <pt x="1273" y="553" on="0"/>
        <pt x="1240" y="485" on="0"/>
        <pt x="1219" y="406" on="1"/>
        <pt x="1110" y="0" on="1"/>
        <pt x="1069" y="0" on="1"/>
        <pt x="1075" y="32" on="0"/>
        <pt x="1075" y="54" on="1"/>
        <pt x="1075" y="117" on="0"/>
        <pt x="1044" y="117" on="1"/>
        <pt x="1031" y="117" on="0"/>
        <pt x="1002" y="104" on="0"/>
        <pt x="967" y="82" on="1"/>
        <pt x="881" y="27" on="0"/>
        <pt x="714" y="-29" on="0"/>
        <pt x="618" y="-29" on="1"/>
        <pt x="368" y="-29" on="0"/>
        <pt x="102" y="215" on="0"/>
        <pt x="102" y="440" on="1"/>
        <pt x="102" y="677" on="0"/>
        <pt x="334" y="1162" on="0"/>
        <pt x="745" y="1479" on="0"/>
        <pt x="999" y="1479" on="1"/>
        <pt x="1084" y="1479" on="0"/>
        <pt x="1206" y="1445" on="0"/>
        <pt x="1291" y="1389" on="0"/>
        <pt x="1335" y="1346" on="1"/>
        <pt x="1354" y="1327" on="0"/>
        <pt x="1371" y="1327" on="1"/>
        <pt x="1410" y="1327" on="0"/>
        <pt x="1452" y="1450" on="1"/>
        <pt x="1497" y="1450" on="1"/>
        <pt x="1429" y="1273" on="0"/>
        <pt x="1366" y="979" on="1"/>
        <pt x="1321" y="979" on="1"/>
        <pt x="1331" y="1067" on="0"/>
        <pt x="1331" y="1133" on="1"/>
        <pt x="1331" y="1227" on="0"/>
        <pt x="1303" y="1282" on="1"/>
        <pt x="1260" y="1357" on="0"/>
        <pt x="1090" y="1442" on="0"/>
        <pt x="987" y="1442" on="1"/>
        <pt x="775" y="1442" on="0"/>
        <pt x="460" y="1086" on="0"/>
        <pt x="293" y="582" on="0"/>
        <pt x="293" y="373" on="1"/>
        <pt x="293" y="189" on="0"/>
        <pt x="467" y="12" on="0"/>
        <pt x="647" y="12" on="1"/>
      </contour>
    </TTGlyph>
    <TTGlyph name="Gacute" xMin="102" yMin="-29" xMax="1497" yMax="1918">
      <component glyphName=".ttfautohint" x="102" y="0" flags="0x0"/>
      <component glyphName="G" x="0" y="0" flags="0x0"/>
      <component glyphName="acute.case" x="833" y="0" flags="0x0"/>
    </TTGlyph>
    <TTGlyph name="Gbreve" xMin="102" yMin="-29" xMax="1519" yMax="1858">
      <component glyphName=".ttfautohint" x="102" y="0" flags="0x0"/>
      <component glyphName="G" x="0" y="0" flags="0x0"/>
      <component glyphName="breve.case" x="540" y="0" flags="0x0"/>
    </TTGlyph>
    <TTGlyph name="Gcircumflex" xMin="102" yMin="-29" xMax="1497" yMax="1876">
      <component glyphName=".ttfautohint" x="102" y="0" flags="0x0"/>
      <component glyphName="G" x="0" y="0" flags="0x0"/>
      <component glyphName="circumflex.case" x="567" y="0" flags="0x0"/>
    </TTGlyph>
    <TTGlyph name="Gcommaaccent" xMin="102" yMin="-494" xMax="1497" yMax="1479">
      <component glyphName=".ttfautohint" x="102" y="0" flags="0x0"/>
      <component glyphName="G" x="0" y="0" flags="0x0"/>
      <component glyphName="commaaccentcomb.case" x="420" y="0" flags="0x0"/>
    </TTGlyph>
    <TTGlyph name="Gdotaccent" xMin="102" yMin="-29" xMax="1497" yMax="1843">
      <component glyphName=".ttfautohint" x="102" y="0" flags="0x0"/>
      <component glyphName="G" x="0" y="0" flags="0x0"/>
      <component glyphName="dotaccent.case" x="843" y="0" flags="0x0"/>
    </TTGlyph>
    <TTGlyph name="H" xMin="-68" yMin="0" xMax="1679" yMax="1450">
      <contour>
        <pt x="1590" y="1444" on="0"/>
        <pt x="1679" y="1450" on="1"/>
        <pt x="1669" y="1409" on="1"/>
        <pt x="1594" y="1406" on="0"/>
        <pt x="1521" y="1380" on="0"/>
        <pt x="1478" y="1310" on="0"/>
        <pt x="1458" y="1233" on="1"/>
        <pt x="1188" y="217" on="1"/>
        <pt x="1170" y="147" on="0"/>
        <pt x="1170" y="117" on="1"/>
        <pt x="1170" y="87" on="0"/>
        <pt x="1197" y="56" on="0"/>
        <pt x="1255" y="43" on="0"/>
        <pt x="1309" y="41" on="1"/>
        <pt x="1300" y="0" on="1"/>
        <pt x="1214" y="6" on="0"/>
        <pt x="1038" y="6" on="1"/>
        <pt x="874" y="6" on="0"/>
        <pt x="778" y="0" on="1"/>
        <pt x="786" y="41" on="1"/>
        <pt x="860" y="44" on="0"/>
        <pt x="934" y="70" on="0"/>
        <pt x="977" y="140" on="0"/>
        <pt x="997" y="217" on="1"/>
        <pt x="1128" y="709" on="1"/>
        <pt x="471" y="709" on="1"/>
        <pt x="340" y="217" on="1"/>
        <pt x="323" y="151" on="0"/>
        <pt x="323" y="118" on="1"/>
        <pt x="323" y="88" on="0"/>
        <pt x="350" y="56" on="0"/>
        <pt x="408" y="43" on="0"/>
        <pt x="461" y="41" on="1"/>
        <pt x="453" y="0" on="1"/>
        <pt x="357" y="6" on="0"/>
        <pt x="193" y="6" on="1"/>
        <pt x="22" y="6" on="0"/>
        <pt x="-68" y="0" on="1"/>
        <pt x="-57" y="41" on="1"/>
        <pt x="15" y="44" on="0"/>
        <pt x="87" y="70" on="0"/>
        <pt x="130" y="141" on="0"/>
        <pt x="150" y="217" on="1"/>
        <pt x="420" y="1233" on="1"/>
        <pt x="437" y="1298" on="0"/>
        <pt x="437" y="1331" on="1"/>
        <pt x="437" y="1362" on="0"/>
        <pt x="409" y="1394" on="0"/>
        <pt x="352" y="1407" on="0"/>
        <pt x="299" y="1409" on="1"/>
        <pt x="309" y="1450" on="1"/>
        <pt x="393" y="1444" on="0"/>
        <pt x="569" y="1444" on="1"/>
        <pt x="733" y="1444" on="0"/>
        <pt x="831" y="1450" on="1"/>
        <pt x="821" y="1409" on="1"/>
        <pt x="746" y="1406" on="0"/>
        <pt x="673" y="1380" on="0"/>
        <pt x="630" y="1310" on="0"/>
        <pt x="610" y="1233" on="1"/>
        <pt x="482" y="750" on="1"/>
        <pt x="1139" y="750" on="1"/>
        <pt x="1268" y="1233" on="1"/>
        <pt x="1286" y="1296" on="0"/>
        <pt x="1286" y="1331" on="1"/>
        <pt x="1286" y="1362" on="0"/>
        <pt x="1258" y="1394" on="0"/>
        <pt x="1200" y="1407" on="0"/>
        <pt x="1147" y="1409" on="1"/>
        <pt x="1157" y="1450" on="1"/>
        <pt x="1250" y="1444" on="0"/>
        <pt x="1415" y="1444" on="1"/>
      </contour>
    </TTGlyph>
    <TTGlyph name="Hbar" xMin="-64" yMin="0" xMax="1683" yMax="1450">
      <contour>
        <pt x="1598" y="1406" on="0"/>
        <pt x="1525" y="1380" on="0"/>
        <pt x="1482" y="1310" on="0"/>
        <pt x="1462" y="1233" on="1"/>
        <pt x="1425" y="1092" on="1"/>
        <pt x="1616" y="1092" on="1"/>
        <pt x="1606" y="1051" on="1"/>
        <pt x="1414" y="1051" on="1"/>
        <pt x="1192" y="217" on="1"/>
        <pt x="1174" y="147" on="0"/>
        <pt x="1174" y="117" on="1"/>
        <pt x="1174" y="87" on="0"/>
        <pt x="1201" y="56" on="0"/>
        <pt x="1259" y="43" on="0"/>
        <pt x="1313" y="41" on="1"/>
        <pt x="1304" y="0" on="1"/>
        <pt x="1219" y="6" on="0"/>
        <pt x="1042" y="6" on="1"/>
        <pt x="878" y="6" on="0"/>
        <pt x="782" y="0" on="1"/>
        <pt x="790" y="41" on="1"/>
        <pt x="864" y="44" on="0"/>
        <pt x="938" y="70" on="0"/>
        <pt x="981" y="140" on="0"/>
        <pt x="1001" y="217" on="1"/>
        <pt x="1132" y="709" on="1"/>
        <pt x="475" y="709" on="1"/>
        <pt x="344" y="217" on="1"/>
        <pt x="327" y="151" on="0"/>
        <pt x="327" y="118" on="1"/>
        <pt x="327" y="88" on="0"/>
        <pt x="354" y="56" on="0"/>
        <pt x="412" y="43" on="0"/>
        <pt x="465" y="41" on="1"/>
        <pt x="457" y="0" on="1"/>
        <pt x="361" y="6" on="0"/>
        <pt x="197" y="6" on="1"/>
        <pt x="26" y="6" on="0"/>
        <pt x="-64" y="0" on="1"/>
        <pt x="-53" y="41" on="1"/>
        <pt x="19" y="44" on="0"/>
        <pt x="91" y="70" on="0"/>
        <pt x="134" y="141" on="0"/>
        <pt x="154" y="217" on="1"/>
        <pt x="376" y="1051" on="1"/>
        <pt x="227" y="1051" on="1"/>
        <pt x="238" y="1092" on="1"/>
        <pt x="387" y="1092" on="1"/>
        <pt x="424" y="1233" on="1"/>
        <pt x="441" y="1298" on="0"/>
        <pt x="441" y="1331" on="1"/>
        <pt x="441" y="1362" on="0"/>
        <pt x="413" y="1394" on="0"/>
        <pt x="356" y="1407" on="0"/>
        <pt x="303" y="1409" on="1"/>
        <pt x="313" y="1450" on="1"/>
        <pt x="397" y="1444" on="0"/>
        <pt x="573" y="1444" on="1"/>
        <pt x="738" y="1444" on="0"/>
        <pt x="835" y="1450" on="1"/>
        <pt x="825" y="1409" on="1"/>
        <pt x="750" y="1406" on="0"/>
        <pt x="677" y="1380" on="0"/>
        <pt x="634" y="1310" on="0"/>
        <pt x="614" y="1233" on="1"/>
        <pt x="577" y="1092" on="1"/>
        <pt x="1234" y="1092" on="1"/>
        <pt x="1272" y="1233" on="1"/>
        <pt x="1290" y="1296" on="0"/>
        <pt x="1290" y="1331" on="1"/>
        <pt x="1290" y="1362" on="0"/>
        <pt x="1262" y="1394" on="0"/>
        <pt x="1204" y="1407" on="0"/>
        <pt x="1151" y="1409" on="1"/>
        <pt x="1161" y="1450" on="1"/>
        <pt x="1254" y="1444" on="0"/>
        <pt x="1419" y="1444" on="1"/>
        <pt x="1595" y="1444" on="0"/>
        <pt x="1683" y="1450" on="1"/>
        <pt x="1673" y="1409" on="1"/>
      </contour>
      <contour>
        <pt x="566" y="1051" on="1"/>
        <pt x="486" y="750" on="1"/>
        <pt x="1143" y="750" on="1"/>
        <pt x="1223" y="1051" on="1"/>
      </contour>
    </TTGlyph>
    <TTGlyph name="Hcircumflex" xMin="-68" yMin="0" xMax="1679" yMax="1876">
      <component glyphName=".ttfautohint" x="0" y="0" flags="0x0"/>
      <component glyphName="H" x="0" y="0" flags="0x0"/>
      <component glyphName="circumflex.case" x="565" y="0" flags="0x0"/>
    </TTGlyph>
    <TTGlyph name="I" xMin="-68" yMin="0" xMax="831" yMax="1450">
      <contour>
        <pt x="323" y="151" on="0"/>
        <pt x="323" y="118" on="1"/>
        <pt x="323" y="88" on="0"/>
        <pt x="350" y="56" on="0"/>
        <pt x="408" y="43" on="0"/>
        <pt x="461" y="41" on="1"/>
        <pt x="453" y="0" on="1"/>
        <pt x="357" y="6" on="0"/>
        <pt x="193" y="6" on="1"/>
        <pt x="22" y="6" on="0"/>
        <pt x="-68" y="0" on="1"/>
        <pt x="-57" y="41" on="1"/>
        <pt x="15" y="44" on="0"/>
        <pt x="87" y="70" on="0"/>
        <pt x="130" y="141" on="0"/>
        <pt x="150" y="217" on="1"/>
        <pt x="420" y="1233" on="1"/>
        <pt x="437" y="1298" on="0"/>
        <pt x="437" y="1331" on="1"/>
        <pt x="437" y="1362" on="0"/>
        <pt x="409" y="1394" on="0"/>
        <pt x="352" y="1407" on="0"/>
        <pt x="299" y="1409" on="1"/>
        <pt x="309" y="1450" on="1"/>
        <pt x="393" y="1444" on="0"/>
        <pt x="569" y="1444" on="1"/>
        <pt x="734" y="1444" on="0"/>
        <pt x="831" y="1450" on="1"/>
        <pt x="821" y="1409" on="1"/>
        <pt x="746" y="1406" on="0"/>
        <pt x="673" y="1380" on="0"/>
        <pt x="630" y="1310" on="0"/>
        <pt x="610" y="1233" on="1"/>
        <pt x="340" y="217" on="1"/>
      </contour>
    </TTGlyph>
    <TTGlyph name="IJ" xMin="80" yMin="-385" xMax="1853" yMax="1513">
      <contour>
        <pt x="1853" y="1483" on="0"/>
        <pt x="1853" y="1469" on="1"/>
        <pt x="1853" y="1421" on="0"/>
        <pt x="1706" y="1364" on="1"/>
        <pt x="1579" y="1257" on="0"/>
        <pt x="1433" y="974" on="0"/>
        <pt x="1380" y="750" on="1"/>
        <pt x="1602" y="750" on="1"/>
        <pt x="1593" y="709" on="1"/>
        <pt x="1371" y="709" on="1"/>
        <pt x="1368" y="696" on="1"/>
        <pt x="1243" y="133" on="1"/>
        <pt x="1212" y="-12" on="0"/>
        <pt x="1090" y="-245" on="0"/>
        <pt x="901" y="-385" on="0"/>
        <pt x="778" y="-385" on="1"/>
        <pt x="681" y="-385" on="0"/>
        <pt x="565" y="-324" on="0"/>
        <pt x="565" y="-265" on="1"/>
        <pt x="565" y="-220" on="0"/>
        <pt x="627" y="-152" on="0"/>
        <pt x="674" y="-152" on="1"/>
        <pt x="713" y="-152" on="0"/>
        <pt x="764" y="-204" on="0"/>
        <pt x="764" y="-240" on="1"/>
        <pt x="764" y="-273" on="0"/>
        <pt x="720" y="-326" on="0"/>
        <pt x="686" y="-342" on="1"/>
        <pt x="718" y="-352" on="0"/>
        <pt x="758" y="-352" on="1"/>
        <pt x="852" y="-352" on="0"/>
        <pt x="968" y="-211" on="0"/>
        <pt x="1032" y="1" on="0"/>
        <pt x="1071" y="189" on="1"/>
        <pt x="1094" y="297" on="1"/>
        <pt x="1159" y="604" on="1"/>
        <pt x="1169" y="651" on="0"/>
        <pt x="1185" y="709" on="1"/>
        <pt x="936" y="709" on="1"/>
        <pt x="944" y="750" on="1"/>
        <pt x="1198" y="750" on="1"/>
        <pt x="1241" y="882" on="0"/>
        <pt x="1368" y="1077" on="0"/>
        <pt x="1510" y="1218" on="0"/>
        <pt x="1634" y="1325" on="1"/>
        <pt x="1673" y="1358" on="1"/>
        <pt x="1440" y="1235" on="0"/>
        <pt x="1272" y="1235" on="1"/>
        <pt x="1171" y="1235" on="0"/>
        <pt x="1007" y="1263" on="0"/>
        <pt x="886" y="1292" on="1"/>
        <pt x="769" y="1321" on="0"/>
        <pt x="601" y="1350" on="0"/>
        <pt x="498" y="1350" on="1"/>
        <pt x="411" y="1350" on="0"/>
        <pt x="307" y="1284" on="0"/>
        <pt x="307" y="1221" on="1"/>
        <pt x="307" y="1161" on="0"/>
        <pt x="404" y="1089" on="0"/>
        <pt x="545" y="1059" on="0"/>
        <pt x="616" y="1059" on="1"/>
        <pt x="684" y="1059" on="0"/>
        <pt x="824" y="1100" on="0"/>
        <pt x="883" y="1139" on="1"/>
        <pt x="899" y="1108" on="1"/>
        <pt x="827" y="1060" on="0"/>
        <pt x="725" y="1035" on="1"/>
        <pt x="487" y="217" on="1"/>
        <pt x="468" y="152" on="0"/>
        <pt x="468" y="118" on="1"/>
        <pt x="468" y="76" on="0"/>
        <pt x="531" y="42" on="0"/>
        <pt x="608" y="41" on="1"/>
        <pt x="600" y="0" on="1"/>
        <pt x="505" y="6" on="0"/>
        <pt x="340" y="6" on="1"/>
        <pt x="168" y="6" on="0"/>
        <pt x="80" y="0" on="1"/>
        <pt x="90" y="41" on="1"/>
        <pt x="161" y="44" on="0"/>
        <pt x="232" y="71" on="0"/>
        <pt x="275" y="140" on="0"/>
        <pt x="297" y="217" on="1"/>
        <pt x="531" y="1021" on="1"/>
        <pt x="402" y="1031" on="0"/>
        <pt x="221" y="1140" on="0"/>
        <pt x="221" y="1253" on="1"/>
        <pt x="221" y="1326" on="0"/>
        <pt x="298" y="1445" on="0"/>
        <pt x="432" y="1513" on="0"/>
        <pt x="516" y="1513" on="1"/>
        <pt x="594" y="1513" on="0"/>
        <pt x="733" y="1483" on="0"/>
        <pt x="846" y="1440" on="0"/>
        <pt x="927" y="1403" on="1"/>
        <pt x="1007" y="1367" on="0"/>
        <pt x="1118" y="1323" on="0"/>
        <pt x="1253" y="1294" on="0"/>
        <pt x="1329" y="1294" on="1"/>
        <pt x="1395" y="1294" on="0"/>
        <pt x="1506" y="1316" on="0"/>
        <pt x="1604" y="1351" on="0"/>
        <pt x="1688" y="1386" on="1"/>
        <pt x="1763" y="1506" on="0"/>
        <pt x="1812" y="1506" on="1"/>
        <pt x="1825" y="1506" on="0"/>
        <pt x="1839" y="1495" on="1"/>
      </contour>
    </TTGlyph>
    <TTGlyph name="Iacute" xMin="-68" yMin="0" xMax="1026" yMax="1918">
      <component glyphName=".ttfautohint" x="0" y="0" flags="0x0"/>
      <component glyphName="I" x="0" y="0" flags="0x0"/>
      <component glyphName="acute.case" x="444" y="0" flags="0x0"/>
    </TTGlyph>
    <TTGlyph name="Ibreve" xMin="-68" yMin="0" xMax="1130" yMax="1858">
      <component glyphName=".ttfautohint" x="0" y="0" flags="0x0"/>
      <component glyphName="I" x="0" y="0" flags="0x0"/>
      <component glyphName="breve.case" x="151" y="0" flags="0x0"/>
    </TTGlyph>
    <TTGlyph name="Icircumflex" xMin="-68" yMin="0" xMax="1012" yMax="1876">
      <component glyphName=".ttfautohint" x="0" y="0" flags="0x0"/>
      <component glyphName="I" x="0" y="0" flags="0x0"/>
      <component glyphName="circumflex.case" x="178" y="0" flags="0x0"/>
    </TTGlyph>
    <TTGlyph name="Idieresis" xMin="-68" yMin="0" xMax="958" yMax="1819">
      <component glyphName=".ttfautohint" x="0" y="0" flags="0x0"/>
      <component glyphName="I" x="0" y="0" flags="0x0"/>
      <component glyphName="dieresis.case" x="223" y="0" flags="0x0"/>
    </TTGlyph>
    <TTGlyph name="Idotaccent" xMin="-68" yMin="0" xMax="831" yMax="1843">
      <component glyphName=".ttfautohint" x="0" y="0" flags="0x0"/>
      <component glyphName="I" x="0" y="0" flags="0x0"/>
      <component glyphName="dotaccent.case" x="454" y="0" flags="0x0"/>
    </TTGlyph>
    <TTGlyph name="Igrave" xMin="-68" yMin="0" xMax="831" yMax="1962">
      <component glyphName=".ttfautohint" x="0" y="0" flags="0x0"/>
      <component glyphName="I" x="0" y="0" flags="0x0"/>
      <component glyphName="grave.case" x="225" y="0" flags="0x0"/>
    </TTGlyph>
    <TTGlyph name="Imacron" xMin="-68" yMin="0" xMax="982" yMax="1729">
      <component glyphName=".ttfautohint" x="0" y="0" flags="0x0"/>
      <component glyphName="I" x="0" y="0" flags="0x0"/>
      <component glyphName="macron.case" x="198" y="0" flags="0x0"/>
    </TTGlyph>
    <TTGlyph name="Iogonek" xMin="-68" yMin="-385" xMax="831" yMax="1450">
      <contour>
        <pt x="733" y="1444" on="0"/>
        <pt x="831" y="1450" on="1"/>
        <pt x="821" y="1409" on="1"/>
        <pt x="746" y="1406" on="0"/>
        <pt x="673" y="1380" on="0"/>
        <pt x="630" y="1310" on="0"/>
        <pt x="610" y="1233" on="1"/>
        <pt x="340" y="217" on="1"/>
        <pt x="323" y="151" on="0"/>
        <pt x="323" y="118" on="1"/>
        <pt x="323" y="88" on="0"/>
        <pt x="350" y="56" on="0"/>
        <pt x="408" y="43" on="0"/>
        <pt x="461" y="41" on="1"/>
        <pt x="454" y="6" on="1"/>
        <pt x="474" y="6" on="1"/>
        <pt x="379" y="-20" on="0"/>
        <pt x="232" y="-133" on="0"/>
        <pt x="232" y="-211" on="1"/>
        <pt x="232" y="-287" on="0"/>
        <pt x="312" y="-287" on="1"/>
        <pt x="351" y="-287" on="0"/>
        <pt x="442" y="-254" on="0"/>
        <pt x="470" y="-233" on="1"/>
        <pt x="492" y="-268" on="1"/>
        <pt x="369" y="-385" on="0"/>
        <pt x="228" y="-385" on="1"/>
        <pt x="154" y="-385" on="0"/>
        <pt x="76" y="-321" on="0"/>
        <pt x="76" y="-266" on="1"/>
        <pt x="76" y="-176" on="0"/>
        <pt x="263" y="-39" on="0"/>
        <pt x="387" y="3" on="1"/>
        <pt x="300" y="6" on="0"/>
        <pt x="193" y="6" on="1"/>
        <pt x="22" y="6" on="0"/>
        <pt x="-68" y="0" on="1"/>
        <pt x="-57" y="41" on="1"/>
        <pt x="15" y="44" on="0"/>
        <pt x="87" y="70" on="0"/>
        <pt x="130" y="141" on="0"/>
        <pt x="150" y="217" on="1"/>
        <pt x="420" y="1233" on="1"/>
        <pt x="437" y="1298" on="0"/>
        <pt x="437" y="1331" on="1"/>
        <pt x="437" y="1362" on="0"/>
        <pt x="409" y="1394" on="0"/>
        <pt x="352" y="1407" on="0"/>
        <pt x="299" y="1409" on="1"/>
        <pt x="309" y="1450" on="1"/>
        <pt x="393" y="1444" on="0"/>
        <pt x="569" y="1444" on="1"/>
      </contour>
    </TTGlyph>
    <TTGlyph name="Itilde" xMin="-68" yMin="0" xMax="1069" yMax="1833">
      <component glyphName=".ttfautohint" x="0" y="0" flags="0x0"/>
      <component glyphName="I" x="0" y="0" flags="0x0"/>
      <component glyphName="tilde.case" x="125" y="0" flags="0x0"/>
    </TTGlyph>
    <TTGlyph name="J" xMin="92" yMin="-385" xMax="1522" yMax="1513">
      <contour>
        <pt x="1522" y="1484" on="0"/>
        <pt x="1522" y="1470" on="1"/>
        <pt x="1522" y="1420" on="0"/>
        <pt x="1372" y="1364" on="1"/>
        <pt x="1086" y="1173" on="0"/>
        <pt x="946" y="750" on="1"/>
        <pt x="1149" y="750" on="1"/>
        <pt x="1143" y="709" on="1"/>
        <pt x="933" y="709" on="1"/>
        <pt x="925" y="683" on="0"/>
        <pt x="911" y="629" on="1"/>
        <pt x="784" y="133" on="1"/>
        <pt x="726" y="-96" on="0"/>
        <pt x="483" y="-385" on="0"/>
        <pt x="301" y="-385" on="1"/>
        <pt x="205" y="-385" on="0"/>
        <pt x="92" y="-325" on="0"/>
        <pt x="92" y="-268" on="1"/>
        <pt x="92" y="-239" on="0"/>
        <pt x="121" y="-186" on="0"/>
        <pt x="173" y="-152" on="0"/>
        <pt x="205" y="-152" on="1"/>
        <pt x="242" y="-152" on="0"/>
        <pt x="291" y="-201" on="0"/>
        <pt x="291" y="-237" on="1"/>
        <pt x="291" y="-271" on="0"/>
        <pt x="245" y="-326" on="0"/>
        <pt x="209" y="-342" on="1"/>
        <pt x="239" y="-352" on="0"/>
        <pt x="281" y="-352" on="1"/>
        <pt x="374" y="-352" on="0"/>
        <pt x="494" y="-213" on="0"/>
        <pt x="565" y="-4" on="0"/>
        <pt x="610" y="180" on="1"/>
        <pt x="619" y="219" on="0"/>
        <pt x="639" y="297" on="1"/>
        <pt x="700" y="537" on="1"/>
        <pt x="724" y="629" on="0"/>
        <pt x="757" y="709" on="1"/>
        <pt x="485" y="709" on="1"/>
        <pt x="492" y="750" on="1"/>
        <pt x="775" y="750" on="1"/>
        <pt x="834" y="879" on="0"/>
        <pt x="1003" y="1090" on="0"/>
        <pt x="1202" y="1261" on="0"/>
        <pt x="1337" y="1358" on="1"/>
        <pt x="1100" y="1235" on="0"/>
        <pt x="932" y="1235" on="1"/>
        <pt x="866" y="1235" on="0"/>
        <pt x="759" y="1263" on="0"/>
        <pt x="681" y="1292" on="1"/>
        <pt x="605" y="1321" on="0"/>
        <pt x="495" y="1350" on="0"/>
        <pt x="428" y="1350" on="1"/>
        <pt x="360" y="1350" on="0"/>
        <pt x="292" y="1278" on="0"/>
        <pt x="295" y="1214" on="1"/>
        <pt x="296" y="1154" on="0"/>
        <pt x="374" y="1079" on="0"/>
        <pt x="446" y="1065" on="1"/>
        <pt x="440" y="1024" on="1"/>
        <pt x="347" y="1040" on="0"/>
        <pt x="218" y="1154" on="0"/>
        <pt x="215" y="1262" on="1"/>
        <pt x="212" y="1335" on="0"/>
        <pt x="268" y="1449" on="0"/>
        <pt x="378" y="1513" on="0"/>
        <pt x="453" y="1513" on="1"/>
        <pt x="506" y="1513" on="0"/>
        <pt x="598" y="1483" on="0"/>
        <pt x="674" y="1439" on="0"/>
        <pt x="726" y="1402" on="1"/>
        <pt x="778" y="1366" on="0"/>
        <pt x="850" y="1323" on="0"/>
        <pt x="940" y="1294" on="0"/>
        <pt x="991" y="1294" on="1"/>
        <pt x="1057" y="1294" on="0"/>
        <pt x="1170" y="1316" on="0"/>
        <pt x="1271" y="1352" on="0"/>
        <pt x="1354" y="1386" on="1"/>
        <pt x="1431" y="1506" on="0"/>
        <pt x="1481" y="1506" on="1"/>
        <pt x="1495" y="1506" on="0"/>
        <pt x="1509" y="1495" on="1"/>
      </contour>
    </TTGlyph>
    <TTGlyph name="Jcircumflex" xMin="92" yMin="-385" xMax="1522" yMax="1876">
      <component glyphName=".ttfautohint" x="92" y="0" flags="0x0"/>
      <component glyphName="J" x="0" y="0" flags="0x0"/>
      <component glyphName="circumflex.case" x="551" y="0" flags="0x0"/>
    </TTGlyph>
    <TTGlyph name="K" xMin="-68" yMin="-29" xMax="1448" yMax="1479">
      <contour>
        <pt x="1390" y="1479" on="0"/>
        <pt x="1448" y="1418" on="0"/>
        <pt x="1448" y="1369" on="1"/>
        <pt x="1448" y="1342" on="0"/>
        <pt x="1423" y="1275" on="0"/>
        <pt x="1370" y="1227" on="0"/>
        <pt x="1329" y="1227" on="1"/>
        <pt x="1288" y="1227" on="0"/>
        <pt x="1249" y="1275" on="0"/>
        <pt x="1249" y="1309" on="1"/>
        <pt x="1249" y="1338" on="0"/>
        <pt x="1287" y="1409" on="0"/>
        <pt x="1315" y="1436" on="1"/>
        <pt x="1309" y="1436" on="1"/>
        <pt x="1268" y="1434" on="0"/>
        <pt x="1235" y="1407" on="1"/>
        <pt x="1200" y="1375" on="0"/>
        <pt x="1149" y="1266" on="0"/>
        <pt x="1115" y="1169" on="1"/>
        <pt x="1072" y="1047" on="0"/>
        <pt x="996" y="890" on="0"/>
        <pt x="860" y="769" on="0"/>
        <pt x="756" y="757" on="1"/>
        <pt x="830" y="741" on="0"/>
        <pt x="918" y="689" on="0"/>
        <pt x="970" y="567" on="0"/>
        <pt x="970" y="455" on="1"/>
        <pt x="969" y="420" on="1"/>
        <pt x="961" y="188" on="1"/>
        <pt x="960" y="164" on="1"/>
        <pt x="960" y="124" on="0"/>
        <pt x="986" y="84" on="0"/>
        <pt x="1022" y="84" on="1"/>
        <pt x="1074" y="84" on="0"/>
        <pt x="1144" y="160" on="0"/>
        <pt x="1174" y="244" on="1"/>
        <pt x="1208" y="348" on="1"/>
        <pt x="1249" y="348" on="1"/>
        <pt x="1196" y="190" on="1"/>
        <pt x="1158" y="78" on="0"/>
        <pt x="1035" y="-29" on="0"/>
        <pt x="946" y="-29" on="1"/>
        <pt x="773" y="-29" on="0"/>
        <pt x="773" y="174" on="1"/>
        <pt x="773" y="197" on="0"/>
        <pt x="774" y="209" on="1"/>
        <pt x="788" y="440" on="1"/>
        <pt x="791" y="483" on="0"/>
        <pt x="791" y="519" on="1"/>
        <pt x="791" y="610" on="0"/>
        <pt x="755" y="701" on="0"/>
        <pt x="716" y="734" on="1"/>
        <pt x="644" y="715" on="0"/>
        <pt x="598" y="715" on="1"/>
        <pt x="535" y="715" on="0"/>
        <pt x="535" y="756" on="1"/>
        <pt x="535" y="797" on="0"/>
        <pt x="596" y="797" on="1"/>
        <pt x="637" y="797" on="0"/>
        <pt x="721" y="776" on="1"/>
        <pt x="825" y="789" on="0"/>
        <pt x="958" y="906" on="0"/>
        <pt x="1031" y="1057" on="0"/>
        <pt x="1073" y="1178" on="1"/>
        <pt x="1108" y="1280" on="0"/>
        <pt x="1163" y="1397" on="0"/>
        <pt x="1204" y="1432" on="1"/>
        <pt x="1265" y="1479" on="0"/>
        <pt x="1327" y="1479" on="1"/>
      </contour>
      <contour>
        <pt x="323" y="151" on="0"/>
        <pt x="323" y="118" on="1"/>
        <pt x="323" y="88" on="0"/>
        <pt x="350" y="56" on="0"/>
        <pt x="408" y="43" on="0"/>
        <pt x="461" y="41" on="1"/>
        <pt x="453" y="0" on="1"/>
        <pt x="357" y="6" on="0"/>
        <pt x="193" y="6" on="1"/>
        <pt x="22" y="6" on="0"/>
        <pt x="-68" y="0" on="1"/>
        <pt x="-57" y="41" on="1"/>
        <pt x="15" y="44" on="0"/>
        <pt x="87" y="70" on="0"/>
        <pt x="130" y="141" on="0"/>
        <pt x="150" y="217" on="1"/>
        <pt x="420" y="1233" on="1"/>
        <pt x="437" y="1298" on="0"/>
        <pt x="437" y="1331" on="1"/>
        <pt x="437" y="1362" on="0"/>
        <pt x="409" y="1394" on="0"/>
        <pt x="352" y="1407" on="0"/>
        <pt x="299" y="1409" on="1"/>
        <pt x="309" y="1450" on="1"/>
        <pt x="393" y="1444" on="0"/>
        <pt x="569" y="1444" on="1"/>
        <pt x="733" y="1444" on="0"/>
        <pt x="831" y="1450" on="1"/>
        <pt x="821" y="1409" on="1"/>
        <pt x="746" y="1406" on="0"/>
        <pt x="673" y="1380" on="0"/>
        <pt x="630" y="1310" on="0"/>
        <pt x="610" y="1233" on="1"/>
        <pt x="340" y="217" on="1"/>
      </contour>
    </TTGlyph>
    <TTGlyph name="Kcommaaccent" xMin="-68" yMin="-494" xMax="1448" yMax="1479">
      <component glyphName=".ttfautohint" x="0" y="0" flags="0x0"/>
      <component glyphName="K" x="0" y="0" flags="0x0"/>
      <component glyphName="commaaccentcomb.case" x="322" y="0" flags="0x0"/>
    </TTGlyph>
    <TTGlyph name="L" xMin="-72" yMin="0" xMax="1096" yMax="1450">
      <contour>
        <pt x="1083" y="396" on="0"/>
        <pt x="1052" y="292" on="1"/>
        <pt x="1050" y="282" on="0"/>
        <pt x="1044" y="262" on="1"/>
        <pt x="1014" y="152" on="0"/>
        <pt x="989" y="0" on="1"/>
        <pt x="850" y="6" on="0"/>
        <pt x="520" y="6" on="1"/>
        <pt x="127" y="6" on="0"/>
        <pt x="-72" y="0" on="1"/>
        <pt x="-61" y="41" on="1"/>
        <pt x="13" y="44" on="0"/>
        <pt x="85" y="70" on="0"/>
        <pt x="129" y="140" on="0"/>
        <pt x="150" y="217" on="1"/>
        <pt x="422" y="1233" on="1"/>
        <pt x="440" y="1298" on="0"/>
        <pt x="440" y="1333" on="1"/>
        <pt x="440" y="1363" on="0"/>
        <pt x="413" y="1394" on="0"/>
        <pt x="356" y="1407" on="0"/>
        <pt x="303" y="1409" on="1"/>
        <pt x="313" y="1450" on="1"/>
        <pt x="400" y="1444" on="0"/>
        <pt x="575" y="1444" on="1"/>
        <pt x="740" y="1444" on="0"/>
        <pt x="836" y="1450" on="1"/>
        <pt x="825" y="1409" on="1"/>
        <pt x="750" y="1406" on="0"/>
        <pt x="677" y="1380" on="0"/>
        <pt x="633" y="1310" on="0"/>
        <pt x="612" y="1233" on="1"/>
        <pt x="340" y="217" on="1"/>
        <pt x="322" y="153" on="0"/>
        <pt x="322" y="118" on="1"/>
        <pt x="322" y="88" on="0"/>
        <pt x="350" y="58" on="0"/>
        <pt x="408" y="47" on="0"/>
        <pt x="461" y="47" on="1"/>
        <pt x="610" y="47" on="1"/>
        <pt x="738" y="47" on="0"/>
        <pt x="890" y="119" on="0"/>
        <pt x="993" y="278" on="0"/>
        <pt x="1049" y="430" on="1"/>
        <pt x="1096" y="430" on="1"/>
      </contour>
    </TTGlyph>
    <TTGlyph name="Lacute" xMin="-72" yMin="0" xMax="1096" yMax="1918">
      <component glyphName=".ttfautohint" x="0" y="0" flags="0x0"/>
      <component glyphName="L" x="0" y="0" flags="0x0"/>
      <component glyphName="acute.case" x="409" y="0" flags="0x0"/>
    </TTGlyph>
    <TTGlyph name="Lcaron" xMin="-72" yMin="0" xMax="1166" yMax="1473">
      <component glyphName=".ttfautohint" x="0" y="0" flags="0x0"/>
      <component glyphName="L" x="0" y="0" flags="0x0"/>
      <component glyphName="hacek.case" x="720" y="0" flags="0x0"/>
    </TTGlyph>
    <TTGlyph name="Lcommaaccent" xMin="-72" yMin="-494" xMax="1096" yMax="1450">
      <component glyphName=".ttfautohint" x="0" y="0" flags="0x0"/>
      <component glyphName="L" x="0" y="0" flags="0x0"/>
      <component glyphName="commaaccentcomb.case" x="313" y="0" flags="0x0"/>
    </TTGlyph>
    <TTGlyph name="Ldot" xMin="-72" yMin="0" xMax="1194" yMax="1450">
      <component glyphName=".ttfautohint" x="0" y="0" flags="0x0"/>
      <component glyphName="L" x="0" y="0" flags="0x0"/>
      <component glyphName="period" x="940" y="625" flags="0x0"/>
    </TTGlyph>
    <TTGlyph name="Lslash" xMin="-68" yMin="0" xMax="1100" yMax="1450">
      <contour>
        <pt x="1087" y="396" on="0"/>
        <pt x="1056" y="292" on="1"/>
        <pt x="1054" y="282" on="0"/>
        <pt x="1048" y="262" on="1"/>
        <pt x="1018" y="152" on="0"/>
        <pt x="993" y="0" on="1"/>
        <pt x="854" y="6" on="0"/>
        <pt x="524" y="6" on="1"/>
        <pt x="131" y="6" on="0"/>
        <pt x="-68" y="0" on="1"/>
        <pt x="-57" y="41" on="1"/>
        <pt x="17" y="44" on="0"/>
        <pt x="89" y="70" on="0"/>
        <pt x="133" y="140" on="0"/>
        <pt x="154" y="217" on="1"/>
        <pt x="239" y="535" on="1"/>
        <pt x="31" y="430" on="1"/>
        <pt x="43" y="477" on="1"/>
        <pt x="252" y="582" on="1"/>
        <pt x="426" y="1233" on="1"/>
        <pt x="444" y="1297" on="0"/>
        <pt x="444" y="1333" on="1"/>
        <pt x="444" y="1363" on="0"/>
        <pt x="417" y="1394" on="0"/>
        <pt x="360" y="1407" on="0"/>
        <pt x="307" y="1409" on="1"/>
        <pt x="317" y="1450" on="1"/>
        <pt x="404" y="1444" on="0"/>
        <pt x="579" y="1444" on="1"/>
        <pt x="744" y="1444" on="0"/>
        <pt x="840" y="1450" on="1"/>
        <pt x="829" y="1409" on="1"/>
        <pt x="754" y="1406" on="0"/>
        <pt x="681" y="1380" on="0"/>
        <pt x="637" y="1310" on="0"/>
        <pt x="616" y="1233" on="1"/>
        <pt x="466" y="672" on="1"/>
        <pt x="1057" y="969" on="1"/>
        <pt x="1044" y="922" on="1"/>
        <pt x="453" y="624" on="1"/>
        <pt x="344" y="217" on="1"/>
        <pt x="326" y="153" on="0"/>
        <pt x="326" y="118" on="1"/>
        <pt x="326" y="88" on="0"/>
        <pt x="354" y="58" on="0"/>
        <pt x="412" y="47" on="0"/>
        <pt x="465" y="47" on="1"/>
        <pt x="614" y="47" on="1"/>
        <pt x="742" y="47" on="0"/>
        <pt x="894" y="119" on="0"/>
        <pt x="997" y="278" on="0"/>
        <pt x="1053" y="430" on="1"/>
        <pt x="1100" y="430" on="1"/>
      </contour>
    </TTGlyph>
    <TTGlyph name="M" xMin="-70" yMin="-10" xMax="1911" yMax="1450">
      <contour>
        <pt x="1812" y="1444" on="0"/>
        <pt x="1911" y="1450" on="1"/>
        <pt x="1901" y="1409" on="1"/>
        <pt x="1826" y="1406" on="0"/>
        <pt x="1753" y="1380" on="0"/>
        <pt x="1710" y="1310" on="0"/>
        <pt x="1690" y="1233" on="1"/>
        <pt x="1419" y="217" on="1"/>
        <pt x="1402" y="152" on="0"/>
        <pt x="1402" y="119" on="1"/>
        <pt x="1402" y="88" on="0"/>
        <pt x="1430" y="56" on="0"/>
        <pt x="1487" y="43" on="0"/>
        <pt x="1540" y="41" on="1"/>
        <pt x="1532" y="0" on="1"/>
        <pt x="1436" y="6" on="0"/>
        <pt x="1278" y="6" on="1"/>
        <pt x="1098" y="6" on="0"/>
        <pt x="1012" y="0" on="1"/>
        <pt x="1020" y="41" on="1"/>
        <pt x="1095" y="44" on="0"/>
        <pt x="1168" y="70" on="0"/>
        <pt x="1211" y="140" on="0"/>
        <pt x="1231" y="217" on="1"/>
        <pt x="1528" y="1321" on="1"/>
        <pt x="678" y="-10" on="1"/>
        <pt x="633" y="-10" on="1"/>
        <pt x="494" y="1337" on="1"/>
        <pt x="203" y="238" on="1"/>
        <pt x="185" y="168" on="0"/>
        <pt x="185" y="135" on="1"/>
        <pt x="185" y="85" on="0"/>
        <pt x="254" y="44" on="0"/>
        <pt x="340" y="41" on="1"/>
        <pt x="330" y="0" on="1"/>
        <pt x="260" y="6" on="0"/>
        <pt x="123" y="6" on="1"/>
        <pt x="1" y="6" on="0"/>
        <pt x="-70" y="0" on="1"/>
        <pt x="-59" y="41" on="1"/>
        <pt x="13" y="44" on="0"/>
        <pt x="90" y="79" on="0"/>
        <pt x="135" y="159" on="0"/>
        <pt x="156" y="238" on="1"/>
        <pt x="422" y="1233" on="1"/>
        <pt x="439" y="1298" on="0"/>
        <pt x="439" y="1331" on="1"/>
        <pt x="439" y="1362" on="0"/>
        <pt x="411" y="1394" on="0"/>
        <pt x="354" y="1407" on="0"/>
        <pt x="301" y="1409" on="1"/>
        <pt x="311" y="1450" on="1"/>
        <pt x="376" y="1444" on="0"/>
        <pt x="494" y="1444" on="1"/>
        <pt x="603" y="1444" on="0"/>
        <pt x="674" y="1450" on="1"/>
        <pt x="786" y="236" on="1"/>
        <pt x="1556" y="1444" on="1"/>
        <pt x="1655" y="1444" on="1"/>
      </contour>
    </TTGlyph>
    <TTGlyph name="N" xMin="-147" yMin="-152" xMax="1786" yMax="1544">
      <contour>
        <pt x="1729" y="1544" on="0"/>
        <pt x="1786" y="1486" on="0"/>
        <pt x="1786" y="1440" on="1"/>
        <pt x="1786" y="1404" on="0"/>
        <pt x="1758" y="1336" on="0"/>
        <pt x="1703" y="1292" on="0"/>
        <pt x="1665" y="1292" on="1"/>
        <pt x="1624" y="1292" on="0"/>
        <pt x="1587" y="1340" on="0"/>
        <pt x="1587" y="1372" on="1"/>
        <pt x="1587" y="1405" on="0"/>
        <pt x="1625" y="1474" on="0"/>
        <pt x="1653" y="1501" on="1"/>
        <pt x="1647" y="1501" on="1"/>
        <pt x="1547" y="1498" on="0"/>
        <pt x="1479" y="1397" on="1"/>
        <pt x="1388" y="1261" on="0"/>
        <pt x="1192" y="579" on="0"/>
        <pt x="1067" y="-10" on="1"/>
        <pt x="1022" y="-10" on="1"/>
        <pt x="555" y="1309" on="1"/>
        <pt x="456" y="798" on="0"/>
        <pt x="276" y="86" on="0"/>
        <pt x="195" y="-23" on="1"/>
        <pt x="148" y="-83" on="0"/>
        <pt x="49" y="-152" on="0"/>
        <pt x="-25" y="-152" on="1"/>
        <pt x="-147" y="-152" on="0"/>
        <pt x="-147" y="-45" on="1"/>
        <pt x="-147" y="-10" on="0"/>
        <pt x="-119" y="57" on="0"/>
        <pt x="-65" y="100" on="0"/>
        <pt x="-27" y="100" on="1"/>
        <pt x="15" y="100" on="0"/>
        <pt x="51" y="52" on="0"/>
        <pt x="51" y="20" on="1"/>
        <pt x="51" y="-13" on="0"/>
        <pt x="14" y="-82" on="0"/>
        <pt x="-14" y="-109" on="1"/>
        <pt x="-8" y="-109" on="1"/>
        <pt x="98" y="-105" on="0"/>
        <pt x="162" y="-2" on="1"/>
        <pt x="241" y="121" on="0"/>
        <pt x="407" y="762" on="0"/>
        <pt x="506" y="1278" on="1"/>
        <pt x="510" y="1302" on="0"/>
        <pt x="510" y="1324" on="1"/>
        <pt x="510" y="1358" on="0"/>
        <pt x="481" y="1393" on="0"/>
        <pt x="415" y="1407" on="0"/>
        <pt x="352" y="1409" on="1"/>
        <pt x="362" y="1450" on="1"/>
        <pt x="428" y="1444" on="0"/>
        <pt x="545" y="1444" on="1"/>
        <pt x="640" y="1444" on="0"/>
        <pt x="711" y="1450" on="1"/>
        <pt x="1098" y="318" on="1"/>
        <pt x="1186" y="711" on="0"/>
        <pt x="1355" y="1287" on="0"/>
        <pt x="1442" y="1413" on="1"/>
        <pt x="1532" y="1544" on="0"/>
        <pt x="1663" y="1544" on="1"/>
      </contour>
    </TTGlyph>
    <TTGlyph name="Nacute" xMin="-147" yMin="-152" xMax="1786" yMax="1918">
      <component glyphName=".ttfautohint" x="0" y="0" flags="0x0"/>
      <component glyphName="N" x="0" y="0" flags="0x0"/>
      <component glyphName="acute.case" x="895" y="0" flags="0x0"/>
    </TTGlyph>
    <TTGlyph name="Nacute.loclPLK" xMin="-147" yMin="-152" xMax="1786" yMax="1925">
      <component glyphName=".ttfautohint" x="0" y="0" flags="0x0"/>
      <component glyphName="N" x="0" y="0" flags="0x0"/>
      <component glyphName="acute.loclPLK.case" x="952" y="0" flags="0x0"/>
    </TTGlyph>
    <TTGlyph name="Ncaron" xMin="-147" yMin="-152" xMax="1786" yMax="1892">
      <component glyphName=".ttfautohint" x="0" y="0" flags="0x0"/>
      <component glyphName="N" x="0" y="0" flags="0x0"/>
      <component glyphName="caron.case" x="623" y="0" flags="0x0"/>
    </TTGlyph>
    <TTGlyph name="Ncommaaccent" xMin="-147" yMin="-494" xMax="1786" yMax="1544">
      <component glyphName=".ttfautohint" x="0" y="0" flags="0x0"/>
      <component glyphName="N" x="0" y="0" flags="0x0"/>
      <component glyphName="commaaccentcomb.case" x="377" y="0" flags="0x0"/>
    </TTGlyph>
    <TTGlyph name="Ntilde" xMin="-147" yMin="-152" xMax="1786" yMax="1833">
      <component glyphName=".ttfautohint" x="0" y="0" flags="0x0"/>
      <component glyphName="N" x="0" y="0" flags="0x0"/>
      <component glyphName="tilde.case" x="576" y="0" flags="0x0"/>
    </TTGlyph>
    <TTGlyph name="O" xMin="111" yMin="-29" xMax="1448" yMax="1479">
      <contour>
        <pt x="111" y="695" on="0"/>
        <pt x="329" y="1169" on="0"/>
        <pt x="720" y="1479" on="0"/>
        <pt x="965" y="1479" on="1"/>
        <pt x="1116" y="1479" on="0"/>
        <pt x="1333" y="1363" on="0"/>
        <pt x="1448" y="1141" on="0"/>
        <pt x="1448" y="985" on="1"/>
        <pt x="1448" y="754" on="0"/>
        <pt x="1228" y="281" on="0"/>
        <pt x="836" y="-29" on="0"/>
        <pt x="592" y="-29" on="1"/>
        <pt x="441" y="-29" on="0"/>
        <pt x="225" y="87" on="0"/>
        <pt x="111" y="308" on="0"/>
        <pt x="111" y="463" on="1"/>
      </contour>
      <contour>
        <pt x="792" y="1442" on="0"/>
        <pt x="505" y="1147" on="0"/>
        <pt x="328" y="679" on="0"/>
        <pt x="328" y="436" on="1"/>
        <pt x="328" y="304" on="0"/>
        <pt x="399" y="111" on="0"/>
        <pt x="527" y="8" on="0"/>
        <pt x="610" y="8" on="1"/>
        <pt x="765" y="8" on="0"/>
        <pt x="1052" y="303" on="0"/>
        <pt x="1229" y="771" on="0"/>
        <pt x="1229" y="1014" on="1"/>
        <pt x="1229" y="1146" on="0"/>
        <pt x="1157" y="1339" on="0"/>
        <pt x="1029" y="1442" on="0"/>
        <pt x="946" y="1442" on="1"/>
      </contour>
    </TTGlyph>
    <TTGlyph name="OE" xMin="115" yMin="-29" xMax="2034" yMax="1479">
      <contour>
        <pt x="1917" y="1444" on="0"/>
        <pt x="2034" y="1450" on="1"/>
        <pt x="2003" y="1369" on="0"/>
        <pt x="1964" y="1235" on="1"/>
        <pt x="1956" y="1208" on="1"/>
        <pt x="1929" y="1138" on="0"/>
        <pt x="1929" y="1081" on="1"/>
        <pt x="1884" y="1081" on="1"/>
        <pt x="1899" y="1167" on="0"/>
        <pt x="1899" y="1226" on="1"/>
        <pt x="1899" y="1322" on="0"/>
        <pt x="1814" y="1403" on="0"/>
        <pt x="1718" y="1403" on="1"/>
        <pt x="1548" y="1403" on="1"/>
        <pt x="1477" y="1403" on="0"/>
        <pt x="1406" y="1379" on="0"/>
        <pt x="1363" y="1310" on="0"/>
        <pt x="1343" y="1233" on="1"/>
        <pt x="1215" y="750" on="1"/>
        <pt x="1415" y="750" on="1"/>
        <pt x="1473" y="750" on="0"/>
        <pt x="1550" y="811" on="0"/>
        <pt x="1597" y="902" on="0"/>
        <pt x="1626" y="979" on="1"/>
        <pt x="1671" y="979" on="1"/>
        <pt x="1643" y="894" on="0"/>
        <pt x="1615" y="780" on="1"/>
        <pt x="1602" y="729" on="1"/>
        <pt x="1574" y="632" on="0"/>
        <pt x="1548" y="479" on="1"/>
        <pt x="1503" y="479" on="1"/>
        <pt x="1503" y="490" on="0"/>
        <pt x="1508" y="542" on="1"/>
        <pt x="1514" y="586" on="0"/>
        <pt x="1514" y="606" on="1"/>
        <pt x="1514" y="651" on="0"/>
        <pt x="1468" y="705" on="0"/>
        <pt x="1407" y="709" on="1"/>
        <pt x="1204" y="709" on="1"/>
        <pt x="1073" y="217" on="1"/>
        <pt x="1056" y="151" on="0"/>
        <pt x="1056" y="118" on="1"/>
        <pt x="1056" y="88" on="0"/>
        <pt x="1083" y="58" on="0"/>
        <pt x="1139" y="47" on="0"/>
        <pt x="1190" y="47" on="1"/>
        <pt x="1380" y="47" on="1"/>
        <pt x="1479" y="47" on="0"/>
        <pt x="1607" y="115" on="0"/>
        <pt x="1700" y="269" on="0"/>
        <pt x="1747" y="410" on="1"/>
        <pt x="1792" y="410" on="1"/>
        <pt x="1779" y="379" on="0"/>
        <pt x="1763" y="314" on="1"/>
        <pt x="1749" y="262" on="1"/>
        <pt x="1710" y="119" on="0"/>
        <pt x="1696" y="0" on="1"/>
        <pt x="1563" y="6" on="0"/>
        <pt x="1253" y="6" on="1"/>
        <pt x="946" y="6" on="0"/>
        <pt x="764" y="2" on="1"/>
        <pt x="654" y="-29" on="0"/>
        <pt x="555" y="-29" on="1"/>
        <pt x="416" y="-29" on="0"/>
        <pt x="219" y="86" on="0"/>
        <pt x="115" y="307" on="0"/>
        <pt x="115" y="463" on="1"/>
        <pt x="115" y="695" on="0"/>
        <pt x="322" y="1169" on="0"/>
        <pt x="694" y="1479" on="0"/>
        <pt x="928" y="1479" on="1"/>
        <pt x="1042" y="1479" on="0"/>
        <pt x="1135" y="1448" on="1"/>
        <pt x="1325" y="1444" on="0"/>
        <pt x="1651" y="1444" on="1"/>
      </contour>
      <contour>
        <pt x="1164" y="1273" on="0"/>
        <pt x="1164" y="1309" on="1"/>
        <pt x="1164" y="1388" on="0"/>
        <pt x="1046" y="1442" on="0"/>
        <pt x="934" y="1442" on="1"/>
        <pt x="778" y="1442" on="0"/>
        <pt x="500" y="1148" on="0"/>
        <pt x="332" y="681" on="0"/>
        <pt x="332" y="436" on="1"/>
        <pt x="332" y="304" on="0"/>
        <pt x="393" y="111" on="0"/>
        <pt x="502" y="8" on="0"/>
        <pt x="573" y="8" on="1"/>
        <pt x="663" y="8" on="0"/>
        <pt x="783" y="44" on="0"/>
        <pt x="862" y="135" on="0"/>
        <pt x="883" y="217" on="1"/>
        <pt x="1153" y="1233" on="1"/>
      </contour>
    </TTGlyph>
    <TTGlyph name="Oacute" xMin="111" yMin="-29" xMax="1448" yMax="1918">
      <component glyphName=".ttfautohint" x="111" y="0" flags="0x0"/>
      <component glyphName="O" x="0" y="0" flags="0x0"/>
      <component glyphName="acute.case" x="844" y="0" flags="0x0"/>
    </TTGlyph>
    <TTGlyph name="Oacute.loclPLK" xMin="111" yMin="-29" xMax="1448" yMax="1925">
      <component glyphName=".ttfautohint" x="111" y="0" flags="0x0"/>
      <component glyphName="O" x="0" y="0" flags="0x0"/>
      <component glyphName="acute.loclPLK.case" x="901" y="0" flags="0x0"/>
    </TTGlyph>
    <TTGlyph name="Obreve" xMin="111" yMin="-29" xMax="1530" yMax="1858">
      <component glyphName=".ttfautohint" x="111" y="0" flags="0x0"/>
      <component glyphName="O" x="0" y="0" flags="0x0"/>
      <component glyphName="breve.case" x="551" y="0" flags="0x0"/>
    </TTGlyph>
    <TTGlyph name="Ocircumflex" xMin="111" yMin="-29" xMax="1448" yMax="1876">
      <component glyphName=".ttfautohint" x="111" y="0" flags="0x0"/>
      <component glyphName="O" x="0" y="0" flags="0x0"/>
      <component glyphName="circumflex.case" x="578" y="0" flags="0x0"/>
    </TTGlyph>
    <TTGlyph name="Odieresis" xMin="111" yMin="-29" xMax="1448" yMax="1819">
      <component glyphName=".ttfautohint" x="111" y="0" flags="0x0"/>
      <component glyphName="O" x="0" y="0" flags="0x0"/>
      <component glyphName="dieresis.case" x="623" y="0" flags="0x0"/>
    </TTGlyph>
    <TTGlyph name="Ograve" xMin="111" yMin="-29" xMax="1448" yMax="1962">
      <component glyphName=".ttfautohint" x="111" y="0" flags="0x0"/>
      <component glyphName="O" x="0" y="0" flags="0x0"/>
      <component glyphName="grave.case" x="625" y="0" flags="0x0"/>
    </TTGlyph>
    <TTGlyph name="Ohungarumlaut" xMin="111" yMin="-29" xMax="1571" yMax="1917">
      <component glyphName=".ttfautohint" x="111" y="0" flags="0x0"/>
      <component glyphName="O" x="0" y="0" flags="0x0"/>
      <component glyphName="hungarumlaut.case" x="619" y="0" flags="0x0"/>
    </TTGlyph>
    <TTGlyph name="Omacron" xMin="111" yMin="-29" xMax="1448" yMax="1729">
      <component glyphName=".ttfautohint" x="111" y="0" flags="0x0"/>
      <component glyphName="O" x="0" y="0" flags="0x0"/>
      <component glyphName="macron.case" x="598" y="0" flags="0x0"/>
    </TTGlyph>
    <TTGlyph name="Omega" xMin="240" yMin="0" xMax="1419" yMax="1479">
      <contour>
        <pt x="1018" y="1479" on="0"/>
        <pt x="1282" y="1357" on="0"/>
        <pt x="1419" y="1127" on="0"/>
        <pt x="1419" y="967" on="1"/>
        <pt x="1419" y="852" on="0"/>
        <pt x="1353" y="651" on="0"/>
        <pt x="1253" y="485" on="0"/>
        <pt x="1165" y="361" on="1"/>
        <pt x="1092" y="255" on="0"/>
        <pt x="1006" y="125" on="0"/>
        <pt x="965" y="47" on="1"/>
        <pt x="1063" y="47" on="1"/>
        <pt x="1165" y="47" on="0"/>
        <pt x="1284" y="112" on="0"/>
        <pt x="1346" y="258" on="0"/>
        <pt x="1358" y="389" on="1"/>
        <pt x="1405" y="389" on="1"/>
        <pt x="1399" y="334" on="0"/>
        <pt x="1399" y="242" on="1"/>
        <pt x="1399" y="134" on="0"/>
        <pt x="1413" y="0" on="1"/>
        <pt x="1354" y="6" on="0"/>
        <pt x="1204" y="6" on="1"/>
        <pt x="1132" y="6" on="0"/>
        <pt x="1043" y="3" on="1"/>
        <pt x="913" y="0" on="1"/>
        <pt x="913" y="33" on="1"/>
        <pt x="1026" y="200" on="0"/>
        <pt x="1214" y="663" on="0"/>
        <pt x="1214" y="926" on="1"/>
        <pt x="1214" y="1179" on="0"/>
        <pt x="1034" y="1442" on="0"/>
        <pt x="829" y="1442" on="1"/>
        <pt x="625" y="1442" on="0"/>
        <pt x="444" y="1179" on="0"/>
        <pt x="444" y="926" on="1"/>
        <pt x="444" y="664" on="0"/>
        <pt x="631" y="203" on="0"/>
        <pt x="745" y="33" on="1"/>
        <pt x="745" y="0" on="1"/>
        <pt x="616" y="3" on="1"/>
        <pt x="529" y="6" on="0"/>
        <pt x="455" y="6" on="1"/>
        <pt x="305" y="6" on="0"/>
        <pt x="246" y="0" on="1"/>
        <pt x="260" y="134" on="0"/>
        <pt x="260" y="242" on="1"/>
        <pt x="260" y="334" on="0"/>
        <pt x="254" y="389" on="1"/>
        <pt x="301" y="389" on="1"/>
        <pt x="313" y="258" on="0"/>
        <pt x="375" y="112" on="0"/>
        <pt x="494" y="47" on="0"/>
        <pt x="596" y="47" on="1"/>
        <pt x="694" y="47" on="1"/>
        <pt x="653" y="125" on="0"/>
        <pt x="567" y="255" on="0"/>
        <pt x="494" y="361" on="1"/>
        <pt x="406" y="485" on="0"/>
        <pt x="306" y="651" on="0"/>
        <pt x="240" y="852" on="0"/>
        <pt x="240" y="967" on="1"/>
        <pt x="240" y="1127" on="0"/>
        <pt x="377" y="1357" on="0"/>
        <pt x="641" y="1479" on="0"/>
        <pt x="829" y="1479" on="1"/>
      </contour>
    </TTGlyph>
    <TTGlyph name="Oslash" xMin="-41" yMin="-150" xMax="1612" yMax="1583">
      <contour>
        <pt x="1448" y="1174" on="0"/>
        <pt x="1448" y="985" on="1"/>
        <pt x="1448" y="754" on="0"/>
        <pt x="1228" y="281" on="0"/>
        <pt x="836" y="-29" on="0"/>
        <pt x="592" y="-29" on="1"/>
        <pt x="359" y="-29" on="0"/>
        <pt x="233" y="105" on="1"/>
        <pt x="-6" y="-150" on="1"/>
        <pt x="-41" y="-121" on="1"/>
        <pt x="204" y="139" on="1"/>
        <pt x="111" y="264" on="0"/>
        <pt x="111" y="463" on="1"/>
        <pt x="111" y="695" on="0"/>
        <pt x="329" y="1169" on="0"/>
        <pt x="720" y="1479" on="0"/>
        <pt x="965" y="1479" on="1"/>
        <pt x="1212" y="1479" on="0"/>
        <pt x="1339" y="1330" on="1"/>
        <pt x="1581" y="1583" on="1"/>
        <pt x="1612" y="1556" on="1"/>
        <pt x="1365" y="1295" on="1"/>
      </contour>
      <contour>
        <pt x="792" y="1442" on="0"/>
        <pt x="505" y="1147" on="0"/>
        <pt x="328" y="679" on="0"/>
        <pt x="328" y="436" on="1"/>
        <pt x="328" y="349" on="0"/>
        <pt x="345" y="273" on="1"/>
        <pt x="1206" y="1203" on="1"/>
        <pt x="1175" y="1317" on="0"/>
        <pt x="1038" y="1442" on="0"/>
        <pt x="946" y="1442" on="1"/>
      </contour>
      <contour>
        <pt x="765" y="8" on="0"/>
        <pt x="1052" y="303" on="0"/>
        <pt x="1229" y="771" on="0"/>
        <pt x="1229" y="1014" on="1"/>
        <pt x="1229" y="1089" on="0"/>
        <pt x="1217" y="1152" on="1"/>
        <pt x="359" y="222" on="1"/>
        <pt x="392" y="120" on="0"/>
        <pt x="523" y="8" on="0"/>
        <pt x="610" y="8" on="1"/>
      </contour>
    </TTGlyph>
    <TTGlyph name="Otilde" xMin="111" yMin="-29" xMax="1469" yMax="1833">
      <component glyphName=".ttfautohint" x="111" y="0" flags="0x0"/>
      <component glyphName="O" x="0" y="0" flags="0x0"/>
      <component glyphName="tilde.case" x="525" y="0" flags="0x0"/>
    </TTGlyph>
    <TTGlyph name="P" xMin="-68" yMin="0" xMax="1270" yMax="1450">
      <contour>
        <pt x="1063" y="1448" on="0"/>
        <pt x="1270" y="1283" on="0"/>
        <pt x="1270" y="1139" on="1"/>
        <pt x="1270" y="979" on="0"/>
        <pt x="1075" y="726" on="0"/>
        <pt x="723" y="582" on="0"/>
        <pt x="498" y="582" on="1"/>
        <pt x="437" y="582" on="1"/>
        <pt x="340" y="217" on="1"/>
        <pt x="320" y="139" on="0"/>
        <pt x="320" y="114" on="1"/>
        <pt x="320" y="76" on="0"/>
        <pt x="381" y="43" on="0"/>
        <pt x="461" y="41" on="1"/>
        <pt x="453" y="0" on="1"/>
        <pt x="357" y="6" on="0"/>
        <pt x="199" y="6" on="1"/>
        <pt x="19" y="6" on="0"/>
        <pt x="-68" y="0" on="1"/>
        <pt x="-59" y="41" on="1"/>
        <pt x="15" y="44" on="0"/>
        <pt x="88" y="70" on="0"/>
        <pt x="132" y="140" on="0"/>
        <pt x="152" y="217" on="1"/>
        <pt x="422" y="1233" on="1"/>
        <pt x="440" y="1298" on="0"/>
        <pt x="440" y="1331" on="1"/>
        <pt x="440" y="1373" on="0"/>
        <pt x="379" y="1408" on="0"/>
        <pt x="301" y="1409" on="1"/>
        <pt x="311" y="1450" on="1"/>
        <pt x="395" y="1444" on="0"/>
        <pt x="563" y="1444" on="1"/>
        <pt x="612" y="1444" on="0"/>
        <pt x="710" y="1446" on="1"/>
        <pt x="810" y="1448" on="0"/>
        <pt x="862" y="1448" on="1"/>
      </contour>
      <contour>
        <pt x="805" y="623" on="0"/>
        <pt x="1063" y="922" on="0"/>
        <pt x="1063" y="1171" on="1"/>
        <pt x="1063" y="1293" on="0"/>
        <pt x="939" y="1409" on="0"/>
        <pt x="803" y="1409" on="1"/>
        <pt x="741" y="1409" on="0"/>
        <pt x="672" y="1379" on="0"/>
        <pt x="629" y="1305" on="0"/>
        <pt x="610" y="1233" on="1"/>
        <pt x="448" y="623" on="1"/>
        <pt x="518" y="623" on="1"/>
      </contour>
    </TTGlyph>
    <TTGlyph name="Q" xMin="-92" yMin="-385" xMax="1540" yMax="1479">
      <contour>
        <pt x="1370" y="102" on="0"/>
        <pt x="1427" y="40" on="0"/>
        <pt x="1427" y="-14" on="1"/>
        <pt x="1427" y="-104" on="0"/>
        <pt x="1268" y="-277" on="0"/>
        <pt x="1023" y="-385" on="0"/>
        <pt x="903" y="-385" on="1"/>
        <pt x="803" y="-385" on="0"/>
        <pt x="630" y="-307" on="0"/>
        <pt x="494" y="-192" on="0"/>
        <pt x="413" y="-107" on="1"/>
        <pt x="241" y="-168" on="0"/>
        <pt x="121" y="-168" on="1"/>
        <pt x="20" y="-168" on="0"/>
        <pt x="-92" y="-87" on="0"/>
        <pt x="-92" y="-16" on="1"/>
        <pt x="-92" y="37" on="0"/>
        <pt x="-27" y="120" on="0"/>
        <pt x="87" y="166" on="0"/>
        <pt x="158" y="166" on="1"/>
        <pt x="231" y="166" on="0"/>
        <pt x="358" y="118" on="0"/>
        <pt x="462" y="47" on="0"/>
        <pt x="540" y="-15" on="1"/>
        <pt x="742" y="87" on="0"/>
        <pt x="1104" y="431" on="0"/>
        <pt x="1327" y="844" on="0"/>
        <pt x="1327" y="1042" on="1"/>
        <pt x="1327" y="1162" on="0"/>
        <pt x="1246" y="1342" on="0"/>
        <pt x="1088" y="1442" on="0"/>
        <pt x="977" y="1442" on="1"/>
        <pt x="826" y="1442" on="0"/>
        <pt x="588" y="1266" on="0"/>
        <pt x="457" y="986" on="0"/>
        <pt x="457" y="838" on="1"/>
        <pt x="457" y="691" on="0"/>
        <pt x="584" y="545" on="0"/>
        <pt x="690" y="545" on="1"/>
        <pt x="780" y="545" on="0"/>
        <pt x="928" y="643" on="0"/>
        <pt x="1012" y="794" on="0"/>
        <pt x="1012" y="868" on="1"/>
        <pt x="1012" y="925" on="0"/>
        <pt x="997" y="950" on="1"/>
        <pt x="976" y="908" on="0"/>
        <pt x="891" y="858" on="0"/>
        <pt x="846" y="858" on="1"/>
        <pt x="801" y="858" on="0"/>
        <pt x="750" y="911" on="0"/>
        <pt x="750" y="954" on="1"/>
        <pt x="750" y="1008" on="0"/>
        <pt x="830" y="1079" on="0"/>
        <pt x="891" y="1079" on="1"/>
        <pt x="964" y="1079" on="0"/>
        <pt x="1053" y="969" on="0"/>
        <pt x="1053" y="879" on="1"/>
        <pt x="1053" y="778" on="0"/>
        <pt x="940" y="603" on="0"/>
        <pt x="738" y="498" on="0"/>
        <pt x="612" y="498" on="1"/>
        <pt x="497" y="498" on="0"/>
        <pt x="333" y="588" on="0"/>
        <pt x="248" y="750" on="0"/>
        <pt x="248" y="856" on="1"/>
        <pt x="248" y="1031" on="0"/>
        <pt x="467" y="1317" on="0"/>
        <pt x="820" y="1479" on="0"/>
        <pt x="1012" y="1479" on="1"/>
        <pt x="1174" y="1479" on="0"/>
        <pt x="1413" y="1377" on="0"/>
        <pt x="1540" y="1186" on="0"/>
        <pt x="1540" y="1055" on="1"/>
        <pt x="1540" y="848" on="0"/>
        <pt x="1255" y="425" on="0"/>
        <pt x="810" y="72" on="0"/>
        <pt x="572" y="-41" on="1"/>
        <pt x="652" y="-104" on="0"/>
        <pt x="790" y="-190" on="0"/>
        <pt x="967" y="-246" on="0"/>
        <pt x="1073" y="-246" on="1"/>
        <pt x="1175" y="-246" on="0"/>
        <pt x="1322" y="-183" on="0"/>
        <pt x="1368" y="-106" on="1"/>
        <pt x="1339" y="-119" on="0"/>
        <pt x="1305" y="-119" on="1"/>
        <pt x="1258" y="-119" on="0"/>
        <pt x="1204" y="-63" on="0"/>
        <pt x="1204" y="-20" on="1"/>
        <pt x="1204" y="11" on="0"/>
        <pt x="1236" y="68" on="0"/>
        <pt x="1291" y="102" on="0"/>
        <pt x="1325" y="102" on="1"/>
      </contour>
      <contour>
        <pt x="248" y="-133" on="0"/>
        <pt x="389" y="-81" on="1"/>
        <pt x="321" y="-10" on="0"/>
        <pt x="237" y="68" on="0"/>
        <pt x="144" y="121" on="0"/>
        <pt x="96" y="121" on="1"/>
        <pt x="59" y="121" on="0"/>
        <pt x="-10" y="89" on="0"/>
        <pt x="-53" y="28" on="0"/>
        <pt x="-53" y="-12" on="1"/>
        <pt x="-53" y="-133" on="0"/>
        <pt x="143" y="-133" on="1"/>
      </contour>
    </TTGlyph>
    <TTGlyph name="R" xMin="-68" yMin="-29" xMax="1270" yMax="1450">
      <contour>
        <pt x="1260" y="248" on="1"/>
        <pt x="1251" y="221" on="1"/>
        <pt x="1215" y="92" on="0"/>
        <pt x="1102" y="-29" on="0"/>
        <pt x="1008" y="-29" on="1"/>
        <pt x="947" y="-29" on="0"/>
        <pt x="863" y="20" on="0"/>
        <pt x="822" y="102" on="0"/>
        <pt x="822" y="150" on="1"/>
        <pt x="823" y="168" on="1"/>
        <pt x="840" y="397" on="1"/>
        <pt x="843" y="431" on="0"/>
        <pt x="843" y="461" on="1"/>
        <pt x="843" y="548" on="0"/>
        <pt x="781" y="643" on="0"/>
        <pt x="619" y="687" on="0"/>
        <pt x="465" y="688" on="1"/>
        <pt x="340" y="217" on="1"/>
        <pt x="321" y="146" on="0"/>
        <pt x="321" y="117" on="1"/>
        <pt x="321" y="76" on="0"/>
        <pt x="382" y="42" on="0"/>
        <pt x="461" y="41" on="1"/>
        <pt x="453" y="0" on="1"/>
        <pt x="357" y="6" on="0"/>
        <pt x="199" y="6" on="1"/>
        <pt x="19" y="6" on="0"/>
        <pt x="-68" y="0" on="1"/>
        <pt x="-59" y="41" on="1"/>
        <pt x="15" y="44" on="0"/>
        <pt x="88" y="70" on="0"/>
        <pt x="132" y="140" on="0"/>
        <pt x="152" y="217" on="1"/>
        <pt x="422" y="1233" on="1"/>
        <pt x="440" y="1298" on="0"/>
        <pt x="440" y="1329" on="1"/>
        <pt x="440" y="1372" on="0"/>
        <pt x="378" y="1408" on="0"/>
        <pt x="301" y="1409" on="1"/>
        <pt x="311" y="1450" on="1"/>
        <pt x="395" y="1444" on="0"/>
        <pt x="563" y="1444" on="1"/>
        <pt x="612" y="1444" on="0"/>
        <pt x="710" y="1446" on="1"/>
        <pt x="810" y="1448" on="0"/>
        <pt x="862" y="1448" on="1"/>
        <pt x="1063" y="1448" on="0"/>
        <pt x="1270" y="1293" on="0"/>
        <pt x="1270" y="1159" on="1"/>
        <pt x="1270" y="1048" on="0"/>
        <pt x="1139" y="861" on="0"/>
        <pt x="897" y="732" on="0"/>
        <pt x="735" y="705" on="1"/>
        <pt x="759" y="702" on="0"/>
        <pt x="807" y="694" on="1"/>
        <pt x="887" y="679" on="0"/>
        <pt x="984" y="630" on="0"/>
        <pt x="1034" y="540" on="0"/>
        <pt x="1034" y="467" on="1"/>
        <pt x="1034" y="454" on="0"/>
        <pt x="1032" y="424" on="1"/>
        <pt x="1016" y="215" on="1"/>
        <pt x="1014" y="187" on="0"/>
        <pt x="1014" y="173" on="1"/>
        <pt x="1014" y="47" on="0"/>
        <pt x="1079" y="47" on="1"/>
        <pt x="1114" y="47" on="0"/>
        <pt x="1170" y="131" on="0"/>
        <pt x="1202" y="219" on="1"/>
        <pt x="1212" y="248" on="1"/>
      </contour>
      <contour>
        <pt x="539" y="729" on="1"/>
        <pt x="815" y="729" on="0"/>
        <pt x="1063" y="970" on="0"/>
        <pt x="1063" y="1171" on="1"/>
        <pt x="1063" y="1293" on="0"/>
        <pt x="939" y="1409" on="0"/>
        <pt x="803" y="1409" on="1"/>
        <pt x="741" y="1409" on="0"/>
        <pt x="672" y="1379" on="0"/>
        <pt x="629" y="1305" on="0"/>
        <pt x="610" y="1233" on="1"/>
        <pt x="476" y="729" on="1"/>
      </contour>
    </TTGlyph>
    <TTGlyph name="Racute" xMin="-68" yMin="-29" xMax="1270" yMax="1918">
      <component glyphName=".ttfautohint" x="0" y="0" flags="0x0"/>
      <component glyphName="R" x="0" y="0" flags="0x0"/>
      <component glyphName="acute.case" x="661" y="0" flags="0x0"/>
    </TTGlyph>
    <TTGlyph name="Rcaron" xMin="-68" yMin="-29" xMax="1329" yMax="1892">
      <component glyphName=".ttfautohint" x="0" y="0" flags="0x0"/>
      <component glyphName="R" x="0" y="0" flags="0x0"/>
      <component glyphName="caron.case" x="389" y="0" flags="0x0"/>
    </TTGlyph>
    <TTGlyph name="Rcommaaccent" xMin="-68" yMin="-494" xMax="1270" yMax="1450">
      <component glyphName=".ttfautohint" x="0" y="0" flags="0x0"/>
      <component glyphName="R" x="0" y="0" flags="0x0"/>
      <component glyphName="commaaccentcomb.case" x="385" y="0" flags="0x0"/>
    </TTGlyph>
    <TTGlyph name="S" xMin="-37" yMin="-29" xMax="1180" yMax="1479">
      <contour>
        <pt x="1106" y="1284" on="0"/>
        <pt x="1059" y="1047" on="1"/>
        <pt x="1018" y="1047" on="1"/>
        <pt x="1030" y="1104" on="0"/>
        <pt x="1030" y="1163" on="1"/>
        <pt x="1030" y="1241" on="0"/>
        <pt x="969" y="1366" on="0"/>
        <pt x="838" y="1440" on="0"/>
        <pt x="739" y="1440" on="1"/>
        <pt x="610" y="1440" on="0"/>
        <pt x="453" y="1308" on="0"/>
        <pt x="453" y="1180" on="1"/>
        <pt x="453" y="1110" on="0"/>
        <pt x="520" y="981" on="0"/>
        <pt x="618" y="875" on="0"/>
        <pt x="703" y="796" on="1"/>
        <pt x="792" y="713" on="0"/>
        <pt x="898" y="598" on="0"/>
        <pt x="971" y="454" on="0"/>
        <pt x="971" y="373" on="1"/>
        <pt x="971" y="239" on="0"/>
        <pt x="817" y="58" on="0"/>
        <pt x="580" y="-29" on="0"/>
        <pt x="453" y="-29" on="1"/>
        <pt x="345" y="-29" on="0"/>
        <pt x="214" y="24" on="0"/>
        <pt x="162" y="66" on="1"/>
        <pt x="123" y="96" on="0"/>
        <pt x="88" y="96" on="1"/>
        <pt x="64" y="96" on="0"/>
        <pt x="30" y="48" on="0"/>
        <pt x="4" y="-14" on="1"/>
        <pt x="-37" y="-14" on="1"/>
        <pt x="32" y="149" on="0"/>
        <pt x="102" y="477" on="1"/>
        <pt x="143" y="477" on="1"/>
        <pt x="132" y="416" on="0"/>
        <pt x="124" y="349" on="0"/>
        <pt x="125" y="311" on="1"/>
        <pt x="138" y="12" on="0"/>
        <pt x="459" y="12" on="1"/>
        <pt x="598" y="12" on="0"/>
        <pt x="760" y="139" on="0"/>
        <pt x="760" y="268" on="1"/>
        <pt x="760" y="346" on="0"/>
        <pt x="698" y="478" on="0"/>
        <pt x="609" y="579" on="0"/>
        <pt x="532" y="652" on="1"/>
        <pt x="451" y="729" on="0"/>
        <pt x="354" y="840" on="0"/>
        <pt x="287" y="989" on="0"/>
        <pt x="287" y="1079" on="1"/>
        <pt x="287" y="1205" on="0"/>
        <pt x="415" y="1386" on="0"/>
        <pt x="622" y="1479" on="0"/>
        <pt x="737" y="1479" on="1"/>
        <pt x="821" y="1479" on="0"/>
        <pt x="944" y="1438" on="0"/>
        <pt x="1004" y="1393" on="1"/>
        <pt x="1051" y="1356" on="0"/>
        <pt x="1071" y="1356" on="1"/>
        <pt x="1088" y="1356" on="0"/>
        <pt x="1118" y="1406" on="0"/>
        <pt x="1139" y="1464" on="1"/>
        <pt x="1180" y="1464" on="1"/>
      </contour>
    </TTGlyph>
    <TTGlyph name="Sacute" xMin="-37" yMin="-29" xMax="1202" yMax="1918">
      <component glyphName=".ttfautohint" x="0" y="0" flags="0x0"/>
      <component glyphName="S" x="0" y="0" flags="0x0"/>
      <component glyphName="acute.case" x="620" y="0" flags="0x0"/>
    </TTGlyph>
    <TTGlyph name="Sacute.loclPLK" xMin="-37" yMin="-29" xMax="1180" yMax="1925">
      <component glyphName=".ttfautohint" x="0" y="0" flags="0x0"/>
      <component glyphName="S" x="0" y="0" flags="0x0"/>
      <component glyphName="acute.loclPLK.case" x="677" y="0" flags="0x0"/>
    </TTGlyph>
    <TTGlyph name="Scaron" xMin="-37" yMin="-29" xMax="1288" yMax="1892">
      <component glyphName=".ttfautohint" x="0" y="0" flags="0x0"/>
      <component glyphName="S" x="0" y="0" flags="0x0"/>
      <component glyphName="caron.case" x="348" y="0" flags="0x0"/>
    </TTGlyph>
    <TTGlyph name="Scedilla" xMin="-37" yMin="-385" xMax="1180" yMax="1479">
      <contour>
        <pt x="1106" y="1284" on="0"/>
        <pt x="1059" y="1047" on="1"/>
        <pt x="1018" y="1047" on="1"/>
        <pt x="1030" y="1104" on="0"/>
        <pt x="1030" y="1163" on="1"/>
        <pt x="1030" y="1241" on="0"/>
        <pt x="969" y="1366" on="0"/>
        <pt x="838" y="1440" on="0"/>
        <pt x="739" y="1440" on="1"/>
        <pt x="610" y="1440" on="0"/>
        <pt x="453" y="1308" on="0"/>
        <pt x="453" y="1180" on="1"/>
        <pt x="453" y="1110" on="0"/>
        <pt x="520" y="981" on="0"/>
        <pt x="618" y="875" on="0"/>
        <pt x="703" y="796" on="1"/>
        <pt x="792" y="713" on="0"/>
        <pt x="898" y="598" on="0"/>
        <pt x="971" y="454" on="0"/>
        <pt x="971" y="373" on="1"/>
        <pt x="971" y="239" on="0"/>
        <pt x="817" y="58" on="0"/>
        <pt x="580" y="-29" on="0"/>
        <pt x="453" y="-29" on="1"/>
        <pt x="451" y="-29" on="1"/>
        <pt x="395" y="-147" on="1"/>
        <pt x="446" y="-133" on="0"/>
        <pt x="499" y="-133" on="1"/>
        <pt x="550" y="-133" on="0"/>
        <pt x="608" y="-177" on="0"/>
        <pt x="608" y="-215" on="1"/>
        <pt x="608" y="-271" on="0"/>
        <pt x="511" y="-348" on="0"/>
        <pt x="366" y="-385" on="0"/>
        <pt x="295" y="-385" on="1"/>
        <pt x="228" y="-385" on="0"/>
        <pt x="120" y="-359" on="0"/>
        <pt x="90" y="-340" on="1"/>
        <pt x="104" y="-309" on="1"/>
        <pt x="175" y="-336" on="0"/>
        <pt x="268" y="-336" on="1"/>
        <pt x="306" y="-336" on="0"/>
        <pt x="404" y="-316" on="0"/>
        <pt x="477" y="-269" on="0"/>
        <pt x="477" y="-231" on="1"/>
        <pt x="477" y="-182" on="0"/>
        <pt x="399" y="-182" on="1"/>
        <pt x="357" y="-182" on="0"/>
        <pt x="315" y="-197" on="1"/>
        <pt x="396" y="-27" on="1"/>
        <pt x="313" y="-20" on="0"/>
        <pt x="208" y="30" on="0"/>
        <pt x="162" y="66" on="1"/>
        <pt x="123" y="96" on="0"/>
        <pt x="88" y="96" on="1"/>
        <pt x="64" y="96" on="0"/>
        <pt x="30" y="48" on="0"/>
        <pt x="4" y="-14" on="1"/>
        <pt x="-37" y="-14" on="1"/>
        <pt x="32" y="149" on="0"/>
        <pt x="102" y="477" on="1"/>
        <pt x="143" y="477" on="1"/>
        <pt x="132" y="416" on="0"/>
        <pt x="124" y="349" on="0"/>
        <pt x="125" y="311" on="1"/>
        <pt x="138" y="12" on="0"/>
        <pt x="459" y="12" on="1"/>
        <pt x="598" y="12" on="0"/>
        <pt x="760" y="139" on="0"/>
        <pt x="760" y="268" on="1"/>
        <pt x="760" y="346" on="0"/>
        <pt x="698" y="478" on="0"/>
        <pt x="609" y="579" on="0"/>
        <pt x="532" y="652" on="1"/>
        <pt x="451" y="729" on="0"/>
        <pt x="354" y="840" on="0"/>
        <pt x="287" y="989" on="0"/>
        <pt x="287" y="1079" on="1"/>
        <pt x="287" y="1205" on="0"/>
        <pt x="415" y="1386" on="0"/>
        <pt x="622" y="1479" on="0"/>
        <pt x="737" y="1479" on="1"/>
        <pt x="821" y="1479" on="0"/>
        <pt x="944" y="1438" on="0"/>
        <pt x="1004" y="1393" on="1"/>
        <pt x="1051" y="1356" on="0"/>
        <pt x="1071" y="1356" on="1"/>
        <pt x="1088" y="1356" on="0"/>
        <pt x="1118" y="1406" on="0"/>
        <pt x="1139" y="1464" on="1"/>
        <pt x="1180" y="1464" on="1"/>
      </contour>
    </TTGlyph>
    <TTGlyph name="Scircumflex" xMin="-37" yMin="-29" xMax="1188" yMax="1876">
      <component glyphName=".ttfautohint" x="0" y="0" flags="0x0"/>
      <component glyphName="S" x="0" y="0" flags="0x0"/>
      <component glyphName="circumflex.case" x="354" y="0" flags="0x0"/>
    </TTGlyph>
    <TTGlyph name="Scommaaccent" xMin="-37" yMin="-494" xMax="1180" yMax="1479">
      <component glyphName=".ttfautohint" x="0" y="0" flags="0x0"/>
      <component glyphName="S" x="0" y="0" flags="0x0"/>
      <component glyphName="commaaccentcomb.case" x="225" y="0" flags="0x0"/>
    </TTGlyph>
    <TTGlyph name="T" xMin="203" yMin="0" xMax="1665" yMax="1673">
      <contour>
        <pt x="1618" y="1673" on="0"/>
        <pt x="1665" y="1617" on="0"/>
        <pt x="1665" y="1575" on="1"/>
        <pt x="1665" y="1530" on="0"/>
        <pt x="1612" y="1454" on="0"/>
        <pt x="1569" y="1427" on="1"/>
        <pt x="1460" y="1360" on="0"/>
        <pt x="1245" y="1360" on="1"/>
        <pt x="1156" y="1360" on="0"/>
        <pt x="1035" y="1374" on="1"/>
        <pt x="733" y="238" on="1"/>
        <pt x="715" y="173" on="0"/>
        <pt x="715" y="134" on="1"/>
        <pt x="715" y="99" on="0"/>
        <pt x="749" y="60" on="0"/>
        <pt x="822" y="43" on="0"/>
        <pt x="887" y="41" on="1"/>
        <pt x="879" y="0" on="1"/>
        <pt x="771" y="6" on="0"/>
        <pt x="573" y="6" on="1"/>
        <pt x="373" y="6" on="0"/>
        <pt x="274" y="0" on="1"/>
        <pt x="283" y="41" on="1"/>
        <pt x="370" y="44" on="0"/>
        <pt x="465" y="80" on="0"/>
        <pt x="519" y="160" on="0"/>
        <pt x="543" y="238" on="1"/>
        <pt x="852" y="1398" on="1"/>
        <pt x="693" y="1421" on="0"/>
        <pt x="588" y="1421" on="1"/>
        <pt x="410" y="1421" on="0"/>
        <pt x="358" y="1386" on="1"/>
        <pt x="374" y="1365" on="0"/>
        <pt x="395" y="1298" on="0"/>
        <pt x="395" y="1268" on="1"/>
        <pt x="395" y="1221" on="0"/>
        <pt x="343" y="1149" on="0"/>
        <pt x="293" y="1149" on="1"/>
        <pt x="249" y="1149" on="0"/>
        <pt x="203" y="1204" on="0"/>
        <pt x="203" y="1251" on="1"/>
        <pt x="203" y="1358" on="0"/>
        <pt x="311" y="1411" on="1"/>
        <pt x="407" y="1458" on="0"/>
        <pt x="586" y="1458" on="1"/>
        <pt x="716" y="1458" on="0"/>
        <pt x="927" y="1429" on="1"/>
        <pt x="1141" y="1401" on="0"/>
        <pt x="1260" y="1401" on="1"/>
        <pt x="1351" y="1401" on="0"/>
        <pt x="1474" y="1421" on="0"/>
        <pt x="1523" y="1446" on="1"/>
        <pt x="1473" y="1498" on="0"/>
        <pt x="1473" y="1561" on="1"/>
        <pt x="1473" y="1607" on="0"/>
        <pt x="1524" y="1673" on="0"/>
        <pt x="1573" y="1673" on="1"/>
      </contour>
    </TTGlyph>
    <TTGlyph name="Tbar" xMin="207" yMin="0" xMax="1669" yMax="1673">
      <contour>
        <pt x="1622" y="1673" on="0"/>
        <pt x="1669" y="1617" on="0"/>
        <pt x="1669" y="1575" on="1"/>
        <pt x="1669" y="1530" on="0"/>
        <pt x="1616" y="1454" on="0"/>
        <pt x="1573" y="1427" on="1"/>
        <pt x="1464" y="1360" on="0"/>
        <pt x="1249" y="1360" on="1"/>
        <pt x="1160" y="1360" on="0"/>
        <pt x="1039" y="1374" on="1"/>
        <pt x="873" y="750" on="1"/>
        <pt x="1202" y="750" on="1"/>
        <pt x="1192" y="709" on="1"/>
        <pt x="862" y="709" on="1"/>
        <pt x="737" y="238" on="1"/>
        <pt x="719" y="173" on="0"/>
        <pt x="719" y="134" on="1"/>
        <pt x="719" y="99" on="0"/>
        <pt x="753" y="60" on="0"/>
        <pt x="826" y="43" on="0"/>
        <pt x="891" y="41" on="1"/>
        <pt x="883" y="0" on="1"/>
        <pt x="775" y="6" on="0"/>
        <pt x="577" y="6" on="1"/>
        <pt x="377" y="6" on="0"/>
        <pt x="278" y="0" on="1"/>
        <pt x="287" y="41" on="1"/>
        <pt x="374" y="44" on="0"/>
        <pt x="469" y="80" on="0"/>
        <pt x="523" y="160" on="0"/>
        <pt x="547" y="238" on="1"/>
        <pt x="672" y="709" on="1"/>
        <pt x="344" y="709" on="1"/>
        <pt x="354" y="750" on="1"/>
        <pt x="683" y="750" on="1"/>
        <pt x="856" y="1398" on="1"/>
        <pt x="697" y="1421" on="0"/>
        <pt x="592" y="1421" on="1"/>
        <pt x="414" y="1421" on="0"/>
        <pt x="362" y="1386" on="1"/>
        <pt x="378" y="1365" on="0"/>
        <pt x="399" y="1298" on="0"/>
        <pt x="399" y="1268" on="1"/>
        <pt x="399" y="1221" on="0"/>
        <pt x="347" y="1149" on="0"/>
        <pt x="297" y="1149" on="1"/>
        <pt x="253" y="1149" on="0"/>
        <pt x="207" y="1204" on="0"/>
        <pt x="207" y="1251" on="1"/>
        <pt x="207" y="1358" on="0"/>
        <pt x="315" y="1411" on="1"/>
        <pt x="411" y="1458" on="0"/>
        <pt x="590" y="1458" on="1"/>
        <pt x="720" y="1458" on="0"/>
        <pt x="931" y="1429" on="1"/>
        <pt x="1145" y="1401" on="0"/>
        <pt x="1264" y="1401" on="1"/>
        <pt x="1355" y="1401" on="0"/>
        <pt x="1478" y="1421" on="0"/>
        <pt x="1527" y="1446" on="1"/>
        <pt x="1477" y="1498" on="0"/>
        <pt x="1477" y="1561" on="1"/>
        <pt x="1477" y="1607" on="0"/>
        <pt x="1528" y="1673" on="0"/>
        <pt x="1577" y="1673" on="1"/>
      </contour>
    </TTGlyph>
    <TTGlyph name="Tcaron" xMin="203" yMin="0" xMax="1665" yMax="1892">
      <component glyphName=".ttfautohint" x="203" y="0" flags="0x0"/>
      <component glyphName="T" x="0" y="0" flags="0x0"/>
      <component glyphName="caron.case" x="518" y="0" flags="0x0"/>
    </TTGlyph>
    <TTGlyph name="Tcedilla" xMin="203" yMin="-385" xMax="1665" yMax="1673">
      <contour>
        <pt x="1618" y="1673" on="0"/>
        <pt x="1665" y="1617" on="0"/>
        <pt x="1665" y="1575" on="1"/>
        <pt x="1665" y="1530" on="0"/>
        <pt x="1612" y="1454" on="0"/>
        <pt x="1569" y="1427" on="1"/>
        <pt x="1460" y="1360" on="0"/>
        <pt x="1245" y="1360" on="1"/>
        <pt x="1156" y="1360" on="0"/>
        <pt x="1035" y="1374" on="1"/>
        <pt x="733" y="238" on="1"/>
        <pt x="715" y="173" on="0"/>
        <pt x="715" y="134" on="1"/>
        <pt x="715" y="99" on="0"/>
        <pt x="749" y="60" on="0"/>
        <pt x="822" y="43" on="0"/>
        <pt x="887" y="41" on="1"/>
        <pt x="879" y="0" on="1"/>
        <pt x="780" y="6" on="0"/>
        <pt x="603" y="6" on="1"/>
        <pt x="530" y="-147" on="1"/>
        <pt x="581" y="-133" on="0"/>
        <pt x="634" y="-133" on="1"/>
        <pt x="685" y="-133" on="0"/>
        <pt x="743" y="-177" on="0"/>
        <pt x="743" y="-215" on="1"/>
        <pt x="743" y="-271" on="0"/>
        <pt x="646" y="-348" on="0"/>
        <pt x="501" y="-385" on="0"/>
        <pt x="430" y="-385" on="1"/>
        <pt x="363" y="-385" on="0"/>
        <pt x="255" y="-359" on="0"/>
        <pt x="225" y="-340" on="1"/>
        <pt x="239" y="-309" on="1"/>
        <pt x="310" y="-336" on="0"/>
        <pt x="403" y="-336" on="1"/>
        <pt x="441" y="-336" on="0"/>
        <pt x="539" y="-316" on="0"/>
        <pt x="612" y="-269" on="0"/>
        <pt x="612" y="-231" on="1"/>
        <pt x="612" y="-182" on="0"/>
        <pt x="534" y="-182" on="1"/>
        <pt x="492" y="-182" on="0"/>
        <pt x="450" y="-197" on="1"/>
        <pt x="547" y="6" on="1"/>
        <pt x="366" y="6" on="0"/>
        <pt x="274" y="0" on="1"/>
        <pt x="283" y="41" on="1"/>
        <pt x="370" y="44" on="0"/>
        <pt x="465" y="80" on="0"/>
        <pt x="519" y="160" on="0"/>
        <pt x="543" y="238" on="1"/>
        <pt x="852" y="1398" on="1"/>
        <pt x="693" y="1421" on="0"/>
        <pt x="588" y="1421" on="1"/>
        <pt x="410" y="1421" on="0"/>
        <pt x="358" y="1386" on="1"/>
        <pt x="374" y="1365" on="0"/>
        <pt x="395" y="1298" on="0"/>
        <pt x="395" y="1268" on="1"/>
        <pt x="395" y="1221" on="0"/>
        <pt x="343" y="1149" on="0"/>
        <pt x="293" y="1149" on="1"/>
        <pt x="249" y="1149" on="0"/>
        <pt x="203" y="1204" on="0"/>
        <pt x="203" y="1251" on="1"/>
        <pt x="203" y="1358" on="0"/>
        <pt x="311" y="1411" on="1"/>
        <pt x="407" y="1458" on="0"/>
        <pt x="586" y="1458" on="1"/>
        <pt x="716" y="1458" on="0"/>
        <pt x="927" y="1429" on="1"/>
        <pt x="1141" y="1401" on="0"/>
        <pt x="1260" y="1401" on="1"/>
        <pt x="1351" y="1401" on="0"/>
        <pt x="1474" y="1421" on="0"/>
        <pt x="1523" y="1446" on="1"/>
        <pt x="1473" y="1498" on="0"/>
        <pt x="1473" y="1561" on="1"/>
        <pt x="1473" y="1607" on="0"/>
        <pt x="1524" y="1673" on="0"/>
        <pt x="1573" y="1673" on="1"/>
      </contour>
    </TTGlyph>
    <TTGlyph name="Thorn" xMin="-68" yMin="0" xMax="1219" yMax="1450">
      <contour>
        <pt x="340" y="217" on="1"/>
        <pt x="323" y="151" on="0"/>
        <pt x="323" y="118" on="1"/>
        <pt x="323" y="88" on="0"/>
        <pt x="350" y="56" on="0"/>
        <pt x="408" y="43" on="0"/>
        <pt x="461" y="41" on="1"/>
        <pt x="453" y="0" on="1"/>
        <pt x="357" y="6" on="0"/>
        <pt x="193" y="6" on="1"/>
        <pt x="22" y="6" on="0"/>
        <pt x="-68" y="0" on="1"/>
        <pt x="-57" y="41" on="1"/>
        <pt x="15" y="44" on="0"/>
        <pt x="87" y="70" on="0"/>
        <pt x="130" y="141" on="0"/>
        <pt x="150" y="217" on="1"/>
        <pt x="420" y="1233" on="1"/>
        <pt x="437" y="1298" on="0"/>
        <pt x="437" y="1331" on="1"/>
        <pt x="437" y="1362" on="0"/>
        <pt x="409" y="1394" on="0"/>
        <pt x="352" y="1407" on="0"/>
        <pt x="299" y="1409" on="1"/>
        <pt x="309" y="1450" on="1"/>
        <pt x="393" y="1444" on="0"/>
        <pt x="569" y="1444" on="1"/>
        <pt x="734" y="1444" on="0"/>
        <pt x="831" y="1450" on="1"/>
        <pt x="821" y="1409" on="1"/>
        <pt x="746" y="1406" on="0"/>
        <pt x="673" y="1380" on="0"/>
        <pt x="630" y="1310" on="0"/>
        <pt x="610" y="1233" on="1"/>
        <pt x="595" y="1175" on="1"/>
        <pt x="659" y="1176" on="1"/>
        <pt x="759" y="1178" on="0"/>
        <pt x="811" y="1178" on="1"/>
        <pt x="1012" y="1178" on="0"/>
        <pt x="1219" y="1012" on="0"/>
        <pt x="1219" y="868" on="1"/>
        <pt x="1219" y="709" on="0"/>
        <pt x="1024" y="455" on="0"/>
        <pt x="672" y="311" on="0"/>
        <pt x="446" y="311" on="1"/>
        <pt x="365" y="312" on="1"/>
      </contour>
      <contour>
        <pt x="467" y="352" on="1"/>
        <pt x="753" y="352" on="0"/>
        <pt x="1012" y="652" on="0"/>
        <pt x="1012" y="901" on="1"/>
        <pt x="1012" y="1023" on="0"/>
        <pt x="888" y="1139" on="0"/>
        <pt x="752" y="1139" on="1"/>
        <pt x="665" y="1139" on="0"/>
        <pt x="583" y="1132" on="1"/>
        <pt x="376" y="352" on="1"/>
      </contour>
    </TTGlyph>
    <TTGlyph name="U" xMin="170" yMin="-29" xMax="1565" yMax="1450">
      <contour>
        <pt x="1306" y="1268" on="0"/>
        <pt x="1306" y="1303" on="1"/>
        <pt x="1306" y="1359" on="0"/>
        <pt x="1236" y="1405" on="0"/>
        <pt x="1155" y="1409" on="1"/>
        <pt x="1165" y="1450" on="1"/>
        <pt x="1235" y="1444" on="0"/>
        <pt x="1372" y="1444" on="1"/>
        <pt x="1495" y="1444" on="0"/>
        <pt x="1565" y="1450" on="1"/>
        <pt x="1554" y="1409" on="1"/>
        <pt x="1482" y="1406" on="0"/>
        <pt x="1403" y="1370" on="0"/>
        <pt x="1356" y="1290" on="0"/>
        <pt x="1337" y="1212" on="1"/>
        <pt x="1178" y="596" on="1"/>
        <pt x="1103" y="311" on="0"/>
        <pt x="977" y="162" on="1"/>
        <pt x="902" y="74" on="0"/>
        <pt x="682" y="-29" on="0"/>
        <pt x="557" y="-29" on="1"/>
        <pt x="338" y="-29" on="0"/>
        <pt x="242" y="82" on="1"/>
        <pt x="170" y="162" on="0"/>
        <pt x="170" y="290" on="1"/>
        <pt x="170" y="396" on="0"/>
        <pt x="221" y="590" on="1"/>
        <pt x="391" y="1233" on="1"/>
        <pt x="408" y="1298" on="0"/>
        <pt x="408" y="1331" on="1"/>
        <pt x="408" y="1362" on="0"/>
        <pt x="381" y="1394" on="0"/>
        <pt x="323" y="1407" on="0"/>
        <pt x="270" y="1409" on="1"/>
        <pt x="283" y="1450" on="1"/>
        <pt x="365" y="1444" on="0"/>
        <pt x="547" y="1444" on="1"/>
        <pt x="704" y="1444" on="0"/>
        <pt x="803" y="1450" on="1"/>
        <pt x="791" y="1409" on="1"/>
        <pt x="716" y="1406" on="0"/>
        <pt x="642" y="1380" on="0"/>
        <pt x="600" y="1310" on="0"/>
        <pt x="580" y="1233" on="1"/>
        <pt x="399" y="555" on="1"/>
        <pt x="354" y="378" on="0"/>
        <pt x="354" y="278" on="1"/>
        <pt x="354" y="165" on="0"/>
        <pt x="465" y="43" on="0"/>
        <pt x="596" y="43" on="1"/>
        <pt x="811" y="43" on="0"/>
        <pt x="1058" y="322" on="0"/>
        <pt x="1124" y="573" on="1"/>
        <pt x="1292" y="1212" on="1"/>
      </contour>
    </TTGlyph>
    <TTGlyph name="Uacute" xMin="170" yMin="-29" xMax="1565" yMax="1918">
      <component glyphName=".ttfautohint" x="170" y="0" flags="0x0"/>
      <component glyphName="U" x="0" y="0" flags="0x0"/>
      <component glyphName="acute.case" x="803" y="0" flags="0x0"/>
    </TTGlyph>
    <TTGlyph name="Ubreve" xMin="170" yMin="-29" xMax="1565" yMax="1858">
      <component glyphName=".ttfautohint" x="170" y="0" flags="0x0"/>
      <component glyphName="U" x="0" y="0" flags="0x0"/>
      <component glyphName="breve.case" x="510" y="0" flags="0x0"/>
    </TTGlyph>
    <TTGlyph name="Ucircumflex" xMin="170" yMin="-29" xMax="1565" yMax="1876">
      <component glyphName=".ttfautohint" x="170" y="0" flags="0x0"/>
      <component glyphName="U" x="0" y="0" flags="0x0"/>
      <component glyphName="circumflex.case" x="537" y="0" flags="0x0"/>
    </TTGlyph>
    <TTGlyph name="Udieresis" xMin="170" yMin="-29" xMax="1565" yMax="1819">
      <component glyphName=".ttfautohint" x="170" y="0" flags="0x0"/>
      <component glyphName="U" x="0" y="0" flags="0x0"/>
      <component glyphName="dieresis.case" x="582" y="0" flags="0x0"/>
    </TTGlyph>
    <TTGlyph name="Ugrave" xMin="170" yMin="-29" xMax="1565" yMax="1962">
      <component glyphName=".ttfautohint" x="170" y="0" flags="0x0"/>
      <component glyphName="U" x="0" y="0" flags="0x0"/>
      <component glyphName="grave.case" x="584" y="0" flags="0x0"/>
    </TTGlyph>
    <TTGlyph name="Uhungarumlaut" xMin="170" yMin="-29" xMax="1565" yMax="1917">
      <component glyphName=".ttfautohint" x="170" y="0" flags="0x0"/>
      <component glyphName="U" x="0" y="0" flags="0x0"/>
      <component glyphName="hungarumlaut.case" x="578" y="0" flags="0x0"/>
    </TTGlyph>
    <TTGlyph name="Umacron" xMin="170" yMin="-29" xMax="1565" yMax="1729">
      <component glyphName=".ttfautohint" x="170" y="0" flags="0x0"/>
      <component glyphName="U" x="0" y="0" flags="0x0"/>
      <component glyphName="macron.case" x="557" y="0" flags="0x0"/>
    </TTGlyph>
    <TTGlyph name="Uogonek" xMin="170" yMin="-385" xMax="1565" yMax="1450">
      <contour>
        <pt x="1494" y="1444" on="0"/>
        <pt x="1565" y="1450" on="1"/>
        <pt x="1554" y="1409" on="1"/>
        <pt x="1482" y="1406" on="0"/>
        <pt x="1403" y="1370" on="0"/>
        <pt x="1356" y="1290" on="0"/>
        <pt x="1337" y="1212" on="1"/>
        <pt x="1178" y="596" on="1"/>
        <pt x="1103" y="311" on="0"/>
        <pt x="977" y="162" on="1"/>
        <pt x="867" y="33" on="0"/>
        <pt x="699" y="-11" on="1"/>
        <pt x="618" y="-42" on="0"/>
        <pt x="508" y="-144" on="0"/>
        <pt x="508" y="-211" on="1"/>
        <pt x="508" y="-287" on="0"/>
        <pt x="588" y="-287" on="1"/>
        <pt x="627" y="-287" on="0"/>
        <pt x="718" y="-254" on="0"/>
        <pt x="746" y="-233" on="1"/>
        <pt x="768" y="-268" on="1"/>
        <pt x="645" y="-385" on="0"/>
        <pt x="504" y="-385" on="1"/>
        <pt x="430" y="-385" on="0"/>
        <pt x="352" y="-321" on="0"/>
        <pt x="352" y="-266" on="1"/>
        <pt x="352" y="-132" on="0"/>
        <pt x="583" y="-28" on="1"/>
        <pt x="557" y="-29" on="1"/>
        <pt x="338" y="-29" on="0"/>
        <pt x="242" y="82" on="1"/>
        <pt x="170" y="162" on="0"/>
        <pt x="170" y="290" on="1"/>
        <pt x="170" y="396" on="0"/>
        <pt x="221" y="590" on="1"/>
        <pt x="391" y="1233" on="1"/>
        <pt x="408" y="1298" on="0"/>
        <pt x="408" y="1331" on="1"/>
        <pt x="408" y="1362" on="0"/>
        <pt x="381" y="1394" on="0"/>
        <pt x="323" y="1407" on="0"/>
        <pt x="270" y="1409" on="1"/>
        <pt x="283" y="1450" on="1"/>
        <pt x="365" y="1444" on="0"/>
        <pt x="547" y="1444" on="1"/>
        <pt x="704" y="1444" on="0"/>
        <pt x="803" y="1450" on="1"/>
        <pt x="791" y="1409" on="1"/>
        <pt x="716" y="1406" on="0"/>
        <pt x="642" y="1380" on="0"/>
        <pt x="600" y="1310" on="0"/>
        <pt x="580" y="1233" on="1"/>
        <pt x="399" y="555" on="1"/>
        <pt x="354" y="378" on="0"/>
        <pt x="354" y="278" on="1"/>
        <pt x="354" y="165" on="0"/>
        <pt x="465" y="43" on="0"/>
        <pt x="596" y="43" on="1"/>
        <pt x="811" y="43" on="0"/>
        <pt x="1058" y="322" on="0"/>
        <pt x="1124" y="573" on="1"/>
        <pt x="1292" y="1212" on="1"/>
        <pt x="1306" y="1268" on="0"/>
        <pt x="1306" y="1303" on="1"/>
        <pt x="1306" y="1359" on="0"/>
        <pt x="1236" y="1405" on="0"/>
        <pt x="1155" y="1409" on="1"/>
        <pt x="1165" y="1450" on="1"/>
        <pt x="1235" y="1444" on="0"/>
        <pt x="1372" y="1444" on="1"/>
      </contour>
    </TTGlyph>
    <TTGlyph name="Uring" xMin="170" yMin="-29" xMax="1565" yMax="1894">
      <component glyphName=".ttfautohint" x="170" y="0" flags="0x0"/>
      <component glyphName="U" x="0" y="0" flags="0x0"/>
      <component glyphName="ring.case" x="701" y="0" flags="0x0"/>
    </TTGlyph>
    <TTGlyph name="Utilde" xMin="170" yMin="-29" xMax="1565" yMax="1833">
      <component glyphName=".ttfautohint" x="170" y="0" flags="0x0"/>
      <component glyphName="U" x="0" y="0" flags="0x0"/>
      <component glyphName="tilde.case" x="484" y="0" flags="0x0"/>
    </TTGlyph>
    <TTGlyph name="V" xMin="197" yMin="-10" xMax="1520" yMax="1450">
      <contour>
        <pt x="1455" y="1444" on="0"/>
        <pt x="1520" y="1450" on="1"/>
        <pt x="1509" y="1409" on="1"/>
        <pt x="1400" y="1386" on="0"/>
        <pt x="1303" y="1231" on="1"/>
        <pt x="496" y="-10" on="1"/>
        <pt x="465" y="-10" on="1"/>
        <pt x="303" y="1278" on="1"/>
        <pt x="295" y="1345" on="0"/>
        <pt x="233" y="1407" on="0"/>
        <pt x="197" y="1409" on="1"/>
        <pt x="207" y="1450" on="1"/>
        <pt x="287" y="1444" on="0"/>
        <pt x="428" y="1444" on="1"/>
        <pt x="584" y="1444" on="0"/>
        <pt x="674" y="1450" on="1"/>
        <pt x="664" y="1409" on="1"/>
        <pt x="600" y="1406" on="0"/>
        <pt x="532" y="1389" on="0"/>
        <pt x="496" y="1340" on="0"/>
        <pt x="496" y="1290" on="1"/>
        <pt x="496" y="1277" on="0"/>
        <pt x="500" y="1237" on="1"/>
        <pt x="616" y="248" on="1"/>
        <pt x="1184" y="1118" on="1"/>
        <pt x="1272" y="1253" on="0"/>
        <pt x="1272" y="1321" on="1"/>
        <pt x="1272" y="1366" on="0"/>
        <pt x="1197" y="1407" on="0"/>
        <pt x="1120" y="1409" on="1"/>
        <pt x="1130" y="1450" on="1"/>
        <pt x="1244" y="1444" on="0"/>
        <pt x="1364" y="1444" on="1"/>
      </contour>
    </TTGlyph>
    <TTGlyph name="W" xMin="176" yMin="-10" xMax="2036" yMax="1450">
      <contour>
        <pt x="1972" y="1444" on="0"/>
        <pt x="2036" y="1450" on="1"/>
        <pt x="2025" y="1409" on="1"/>
        <pt x="1904" y="1384" on="0"/>
        <pt x="1831" y="1231" on="1"/>
        <pt x="1219" y="-10" on="1"/>
        <pt x="1186" y="-10" on="1"/>
        <pt x="1039" y="923" on="1"/>
        <pt x="483" y="-10" on="1"/>
        <pt x="451" y="-10" on="1"/>
        <pt x="289" y="1278" on="1"/>
        <pt x="271" y="1405" on="0"/>
        <pt x="176" y="1409" on="1"/>
        <pt x="184" y="1450" on="1"/>
        <pt x="268" y="1444" on="0"/>
        <pt x="387" y="1444" on="1"/>
        <pt x="535" y="1444" on="0"/>
        <pt x="608" y="1450" on="1"/>
        <pt x="600" y="1409" on="1"/>
        <pt x="537" y="1405" on="0"/>
        <pt x="482" y="1356" on="0"/>
        <pt x="482" y="1290" on="1"/>
        <pt x="482" y="1267" on="0"/>
        <pt x="485" y="1237" on="1"/>
        <pt x="600" y="260" on="1"/>
        <pt x="1029" y="986" on="1"/>
        <pt x="983" y="1278" on="1"/>
        <pt x="963" y="1405" on="0"/>
        <pt x="891" y="1409" on="1"/>
        <pt x="899" y="1450" on="1"/>
        <pt x="972" y="1444" on="0"/>
        <pt x="1081" y="1444" on="1"/>
        <pt x="1258" y="1444" on="0"/>
        <pt x="1343" y="1450" on="1"/>
        <pt x="1335" y="1409" on="1"/>
        <pt x="1273" y="1406" on="0"/>
        <pt x="1206" y="1388" on="0"/>
        <pt x="1174" y="1344" on="0"/>
        <pt x="1174" y="1302" on="1"/>
        <pt x="1174" y="1275" on="0"/>
        <pt x="1180" y="1237" on="1"/>
        <pt x="1326" y="306" on="1"/>
        <pt x="1726" y="1118" on="1"/>
        <pt x="1794" y="1254" on="0"/>
        <pt x="1794" y="1318" on="1"/>
        <pt x="1794" y="1368" on="0"/>
        <pt x="1718" y="1407" on="0"/>
        <pt x="1636" y="1409" on="1"/>
        <pt x="1647" y="1450" on="1"/>
        <pt x="1759" y="1444" on="0"/>
        <pt x="1880" y="1444" on="1"/>
      </contour>
    </TTGlyph>
    <TTGlyph name="Wacute" xMin="176" yMin="-10" xMax="2036" yMax="1918">
      <component glyphName=".ttfautohint" x="176" y="0" flags="0x0"/>
      <component glyphName="W" x="0" y="0" flags="0x0"/>
      <component glyphName="acute.case" x="1005" y="0" flags="0x0"/>
    </TTGlyph>
    <TTGlyph name="Wcircumflex" xMin="176" yMin="-10" xMax="2036" yMax="1876">
      <component glyphName=".ttfautohint" x="176" y="0" flags="0x0"/>
      <component glyphName="W" x="0" y="0" flags="0x0"/>
      <component glyphName="circumflex.case" x="739" y="0" flags="0x0"/>
    </TTGlyph>
    <TTGlyph name="Wdieresis" xMin="176" yMin="-10" xMax="2036" yMax="1819">
      <component glyphName=".ttfautohint" x="176" y="0" flags="0x0"/>
      <component glyphName="W" x="0" y="0" flags="0x0"/>
      <component glyphName="dieresis.case" x="784" y="0" flags="0x0"/>
    </TTGlyph>
    <TTGlyph name="Wgrave" xMin="176" yMin="-10" xMax="2036" yMax="1962">
      <component glyphName=".ttfautohint" x="176" y="0" flags="0x0"/>
      <component glyphName="W" x="0" y="0" flags="0x0"/>
      <component glyphName="grave.case" x="786" y="0" flags="0x0"/>
    </TTGlyph>
    <TTGlyph name="X" xMin="-69" yMin="-29" xMax="1535" yMax="1479">
      <contour>
        <pt x="1476" y="1479" on="0"/>
        <pt x="1535" y="1420" on="0"/>
        <pt x="1535" y="1373" on="1"/>
        <pt x="1535" y="1343" on="0"/>
        <pt x="1509" y="1275" on="0"/>
        <pt x="1454" y="1227" on="0"/>
        <pt x="1413" y="1227" on="1"/>
        <pt x="1374" y="1227" on="0"/>
        <pt x="1335" y="1272" on="0"/>
        <pt x="1335" y="1305" on="1"/>
        <pt x="1335" y="1336" on="0"/>
        <pt x="1372" y="1409" on="0"/>
        <pt x="1401" y="1436" on="1"/>
        <pt x="1395" y="1436" on="1"/>
        <pt x="1324" y="1436" on="0"/>
        <pt x="1264" y="1393" on="1"/>
        <pt x="1172" y="1326" on="0"/>
        <pt x="944" y="1008" on="0"/>
        <pt x="839" y="781" on="1"/>
        <pt x="893" y="317" on="1"/>
        <pt x="905" y="209" on="0"/>
        <pt x="979" y="84" on="0"/>
        <pt x="1055" y="84" on="1"/>
        <pt x="1115" y="84" on="0"/>
        <pt x="1189" y="159" on="0"/>
        <pt x="1219" y="244" on="1"/>
        <pt x="1253" y="348" on="1"/>
        <pt x="1294" y="348" on="1"/>
        <pt x="1241" y="190" on="1"/>
        <pt x="1203" y="78" on="0"/>
        <pt x="1080" y="-29" on="0"/>
        <pt x="991" y="-29" on="1"/>
        <pt x="857" y="-29" on="0"/>
        <pt x="740" y="151" on="0"/>
        <pt x="723" y="291" on="1"/>
        <pt x="686" y="613" on="1"/>
        <pt x="605" y="444" on="0"/>
        <pt x="353" y="123" on="0"/>
        <pt x="242" y="43" on="1"/>
        <pt x="147" y="-29" on="0"/>
        <pt x="53" y="-29" on="1"/>
        <pt x="-10" y="-29" on="0"/>
        <pt x="-69" y="30" on="0"/>
        <pt x="-69" y="77" on="1"/>
        <pt x="-69" y="107" on="0"/>
        <pt x="-43" y="175" on="0"/>
        <pt x="12" y="223" on="0"/>
        <pt x="53" y="223" on="1"/>
        <pt x="93" y="223" on="0"/>
        <pt x="131" y="178" on="0"/>
        <pt x="131" y="145" on="1"/>
        <pt x="131" y="115" on="0"/>
        <pt x="95" y="41" on="0"/>
        <pt x="66" y="14" on="1"/>
        <pt x="74" y="14" on="1"/>
        <pt x="143" y="17" on="0"/>
        <pt x="203" y="57" on="1"/>
        <pt x="309" y="127" on="0"/>
        <pt x="565" y="448" on="0"/>
        <pt x="678" y="680" on="1"/>
        <pt x="625" y="1133" on="1"/>
        <pt x="612" y="1241" on="0"/>
        <pt x="538" y="1366" on="0"/>
        <pt x="463" y="1366" on="1"/>
        <pt x="403" y="1366" on="0"/>
        <pt x="329" y="1291" on="0"/>
        <pt x="299" y="1206" on="1"/>
        <pt x="264" y="1102" on="1"/>
        <pt x="223" y="1102" on="1"/>
        <pt x="276" y="1260" on="1"/>
        <pt x="315" y="1372" on="0"/>
        <pt x="438" y="1479" on="0"/>
        <pt x="526" y="1479" on="1"/>
        <pt x="660" y="1479" on="0"/>
        <pt x="777" y="1300" on="0"/>
        <pt x="795" y="1159" on="1"/>
        <pt x="832" y="843" on="1"/>
        <pt x="912" y="1016" on="0"/>
        <pt x="1129" y="1328" on="0"/>
        <pt x="1225" y="1407" on="1"/>
        <pt x="1318" y="1479" on="0"/>
        <pt x="1413" y="1479" on="1"/>
      </contour>
    </TTGlyph>
    <TTGlyph name="Y" xMin="199" yMin="0" xMax="1548" yMax="1479">
      <contour>
        <pt x="1494" y="1479" on="0"/>
        <pt x="1548" y="1416" on="0"/>
        <pt x="1548" y="1369" on="1"/>
        <pt x="1548" y="1339" on="0"/>
        <pt x="1522" y="1273" on="0"/>
        <pt x="1467" y="1227" on="0"/>
        <pt x="1427" y="1227" on="1"/>
        <pt x="1350" y="1227" on="0"/>
        <pt x="1350" y="1308" on="1"/>
        <pt x="1350" y="1341" on="0"/>
        <pt x="1386" y="1409" on="0"/>
        <pt x="1415" y="1436" on="1"/>
        <pt x="1409" y="1436" on="1"/>
        <pt x="1354" y="1433" on="0"/>
        <pt x="1296" y="1391" on="1"/>
        <pt x="1189" y="1313" on="0"/>
        <pt x="942" y="966" on="0"/>
        <pt x="828" y="692" on="1"/>
        <pt x="709" y="217" on="1"/>
        <pt x="692" y="151" on="0"/>
        <pt x="692" y="118" on="1"/>
        <pt x="692" y="88" on="0"/>
        <pt x="719" y="56" on="0"/>
        <pt x="776" y="43" on="0"/>
        <pt x="829" y="41" on="1"/>
        <pt x="819" y="0" on="1"/>
        <pt x="727" y="6" on="0"/>
        <pt x="565" y="6" on="1"/>
        <pt x="385" y="6" on="0"/>
        <pt x="297" y="0" on="1"/>
        <pt x="307" y="41" on="1"/>
        <pt x="381" y="44" on="0"/>
        <pt x="455" y="70" on="0"/>
        <pt x="499" y="141" on="0"/>
        <pt x="518" y="217" on="1"/>
        <pt x="638" y="695" on="1"/>
        <pt x="565" y="1366" on="0"/>
        <pt x="399" y="1366" on="1"/>
        <pt x="364" y="1366" on="0"/>
        <pt x="318" y="1322" on="0"/>
        <pt x="301" y="1270" on="1"/>
        <pt x="244" y="1102" on="1"/>
        <pt x="199" y="1102" on="1"/>
        <pt x="266" y="1300" on="1"/>
        <pt x="288" y="1364" on="0"/>
        <pt x="336" y="1440" on="0"/>
        <pt x="410" y="1479" on="0"/>
        <pt x="467" y="1479" on="1"/>
        <pt x="575" y="1479" on="0"/>
        <pt x="708" y="1303" on="0"/>
        <pt x="782" y="988" on="0"/>
        <pt x="809" y="737" on="1"/>
        <pt x="957" y="1109" on="0"/>
        <pt x="1192" y="1346" on="1"/>
        <pt x="1325" y="1479" on="0"/>
        <pt x="1434" y="1479" on="1"/>
      </contour>
    </TTGlyph>
    <TTGlyph name="Yacute" xMin="199" yMin="0" xMax="1548" yMax="1918">
      <component glyphName=".ttfautohint" x="199" y="0" flags="0x0"/>
      <component glyphName="Y" x="0" y="0" flags="0x0"/>
      <component glyphName="acute.case" x="795" y="0" flags="0x0"/>
    </TTGlyph>
    <TTGlyph name="Ycircumflex" xMin="199" yMin="0" xMax="1548" yMax="1876">
      <component glyphName=".ttfautohint" x="199" y="0" flags="0x0"/>
      <component glyphName="Y" x="0" y="0" flags="0x0"/>
      <component glyphName="circumflex.case" x="529" y="0" flags="0x0"/>
    </TTGlyph>
    <TTGlyph name="Ydieresis" xMin="199" yMin="0" xMax="1548" yMax="1819">
      <component glyphName=".ttfautohint" x="199" y="0" flags="0x0"/>
      <component glyphName="Y" x="0" y="0" flags="0x0"/>
      <component glyphName="dieresis.case" x="574" y="0" flags="0x0"/>
    </TTGlyph>
    <TTGlyph name="Ygrave" xMin="199" yMin="0" xMax="1548" yMax="1962">
      <component glyphName=".ttfautohint" x="199" y="0" flags="0x0"/>
      <component glyphName="Y" x="0" y="0" flags="0x0"/>
      <component glyphName="grave.case" x="576" y="0" flags="0x0"/>
    </TTGlyph>
    <TTGlyph name="Z" xMin="-71" yMin="-29" xMax="1472" yMax="1479">
      <contour>
        <pt x="1472" y="1450" on="0"/>
        <pt x="1472" y="1433" on="1"/>
        <pt x="1472" y="1405" on="0"/>
        <pt x="1396" y="1336" on="0"/>
        <pt x="1319" y="1307" on="1"/>
        <pt x="752" y="750" on="1"/>
        <pt x="1063" y="750" on="1"/>
        <pt x="1047" y="709" on="1"/>
        <pt x="711" y="709" on="1"/>
        <pt x="131" y="139" on="1"/>
        <pt x="319" y="250" on="0"/>
        <pt x="485" y="250" on="1"/>
        <pt x="543" y="250" on="0"/>
        <pt x="634" y="222" on="0"/>
        <pt x="703" y="193" on="1"/>
        <pt x="768" y="164" on="0"/>
        <pt x="865" y="135" on="0"/>
        <pt x="924" y="135" on="1"/>
        <pt x="992" y="135" on="0"/>
        <pt x="1063" y="206" on="0"/>
        <pt x="1063" y="270" on="1"/>
        <pt x="1063" y="390" on="0"/>
        <pt x="915" y="420" on="1"/>
        <pt x="924" y="461" on="1"/>
        <pt x="1016" y="444" on="0"/>
        <pt x="1141" y="331" on="0"/>
        <pt x="1141" y="223" on="1"/>
        <pt x="1141" y="150" on="0"/>
        <pt x="1081" y="36" on="0"/>
        <pt x="968" y="-29" on="0"/>
        <pt x="893" y="-29" on="1"/>
        <pt x="846" y="-29" on="0"/>
        <pt x="765" y="1" on="0"/>
        <pt x="701" y="45" on="0"/>
        <pt x="654" y="82" on="1"/>
        <pt x="609" y="118" on="0"/>
        <pt x="547" y="161" on="0"/>
        <pt x="469" y="190" on="0"/>
        <pt x="424" y="190" on="1"/>
        <pt x="345" y="190" on="0"/>
        <pt x="218" y="147" on="0"/>
        <pt x="121" y="98" on="1"/>
        <pt x="84" y="45" on="0"/>
        <pt x="1" y="-21" on="0"/>
        <pt x="-30" y="-21" on="1"/>
        <pt x="-46" y="-21" on="0"/>
        <pt x="-59" y="-10" on="1"/>
        <pt x="-71" y="0" on="0"/>
        <pt x="-71" y="17" on="1"/>
        <pt x="-71" y="45" on="0"/>
        <pt x="5" y="114" on="0"/>
        <pt x="82" y="143" on="1"/>
        <pt x="658" y="709" on="1"/>
        <pt x="326" y="709" on="1"/>
        <pt x="340" y="750" on="1"/>
        <pt x="699" y="750" on="1"/>
        <pt x="1270" y="1311" on="1"/>
        <pt x="1082" y="1200" on="0"/>
        <pt x="915" y="1200" on="1"/>
        <pt x="857" y="1200" on="0"/>
        <pt x="766" y="1228" on="0"/>
        <pt x="697" y="1257" on="1"/>
        <pt x="631" y="1286" on="0"/>
        <pt x="536" y="1315" on="0"/>
        <pt x="477" y="1315" on="1"/>
        <pt x="409" y="1315" on="0"/>
        <pt x="338" y="1244" on="0"/>
        <pt x="338" y="1180" on="1"/>
        <pt x="338" y="1060" on="0"/>
        <pt x="485" y="1030" on="1"/>
        <pt x="477" y="989" on="1"/>
        <pt x="385" y="1006" on="0"/>
        <pt x="260" y="1119" on="0"/>
        <pt x="260" y="1227" on="1"/>
        <pt x="260" y="1300" on="0"/>
        <pt x="320" y="1414" on="0"/>
        <pt x="433" y="1479" on="0"/>
        <pt x="508" y="1479" on="1"/>
        <pt x="555" y="1479" on="0"/>
        <pt x="636" y="1449" on="0"/>
        <pt x="700" y="1405" on="0"/>
        <pt x="746" y="1368" on="1"/>
        <pt x="793" y="1331" on="0"/>
        <pt x="854" y="1289" on="0"/>
        <pt x="932" y="1260" on="0"/>
        <pt x="977" y="1260" on="1"/>
        <pt x="1056" y="1260" on="0"/>
        <pt x="1182" y="1302" on="0"/>
        <pt x="1280" y="1352" on="1"/>
        <pt x="1317" y="1405" on="0"/>
        <pt x="1398" y="1471" on="0"/>
        <pt x="1430" y="1471" on="1"/>
        <pt x="1446" y="1471" on="0"/>
        <pt x="1460" y="1460" on="1"/>
      </contour>
    </TTGlyph>
    <TTGlyph name="Zacute" xMin="-71" yMin="-29" xMax="1472" yMax="1918">
      <component glyphName=".ttfautohint" x="0" y="0" flags="0x0"/>
      <component glyphName="Z" x="0" y="0" flags="0x0"/>
      <component glyphName="acute.case" x="743" y="0" flags="0x0"/>
    </TTGlyph>
    <TTGlyph name="Zacute.loclPLK" xMin="-71" yMin="-29" xMax="1472" yMax="1925">
      <component glyphName=".ttfautohint" x="0" y="0" flags="0x0"/>
      <component glyphName="Z" x="0" y="0" flags="0x0"/>
      <component glyphName="acute.loclPLK.case" x="800" y="0" flags="0x0"/>
    </TTGlyph>
    <TTGlyph name="Zcaron" xMin="-71" yMin="-29" xMax="1472" yMax="1892">
      <component glyphName=".ttfautohint" x="0" y="0" flags="0x0"/>
      <component glyphName="Z" x="0" y="0" flags="0x0"/>
      <component glyphName="caron.case" x="471" y="0" flags="0x0"/>
    </TTGlyph>
    <TTGlyph name="Zdotaccent" xMin="-71" yMin="-29" xMax="1472" yMax="1843">
      <component glyphName=".ttfautohint" x="0" y="0" flags="0x0"/>
      <component glyphName="Z" x="0" y="0" flags="0x0"/>
      <component glyphName="dotaccent.case" x="753" y="0" flags="0x0"/>
    </TTGlyph>
    <TTGlyph name="a" xMin="-170" yMin="0" xMax="1135" yMax="1260">
      <contour>
        <pt x="1043" y="104" on="0"/>
        <pt x="1099" y="43" on="0"/>
        <pt x="1135" y="41" on="1"/>
        <pt x="1124" y="0" on="1"/>
        <pt x="1042" y="6" on="0"/>
        <pt x="901" y="6" on="1"/>
        <pt x="736" y="6" on="0"/>
        <pt x="655" y="0" on="1"/>
        <pt x="666" y="41" on="1"/>
        <pt x="729" y="44" on="0"/>
        <pt x="805" y="67" on="0"/>
        <pt x="845" y="122" on="0"/>
        <pt x="845" y="173" on="1"/>
        <pt x="845" y="191" on="0"/>
        <pt x="842" y="213" on="1"/>
        <pt x="811" y="467" on="1"/>
        <pt x="292" y="467" on="1"/>
        <pt x="152" y="293" on="1"/>
        <pt x="71" y="194" on="0"/>
        <pt x="71" y="129" on="1"/>
        <pt x="71" y="51" on="0"/>
        <pt x="195" y="41" on="1"/>
        <pt x="195" y="0" on="1"/>
        <pt x="134" y="6" on="0"/>
        <pt x="8" y="6" on="1"/>
        <pt x="-117" y="6" on="0"/>
        <pt x="-170" y="0" on="1"/>
        <pt x="-170" y="41" on="1"/>
        <pt x="-80" y="64" on="0"/>
        <pt x="53" y="231" on="1"/>
        <pt x="877" y="1260" on="1"/>
        <pt x="907" y="1260" on="1"/>
        <pt x="1034" y="172" on="1"/>
      </contour>
      <contour>
        <pt x="743" y="1027" on="1"/>
        <pt x="325" y="508" on="1"/>
        <pt x="806" y="508" on="1"/>
      </contour>
    </TTGlyph>
    <TTGlyph name="aacute" xMin="-170" yMin="0" xMax="1282" yMax="1713">
      <component glyphName=".ttfautohint" x="0" y="0" flags="0x0"/>
      <component glyphName="a" x="0" y="0" flags="0x0"/>
      <component glyphName="acute.smcp" x="700" y="0" flags="0x0"/>
    </TTGlyph>
    <TTGlyph name="abreve" xMin="-170" yMin="0" xMax="1362" yMax="1653">
      <component glyphName=".ttfautohint" x="0" y="0" flags="0x0"/>
      <component glyphName="a" x="0" y="0" flags="0x0"/>
      <component glyphName="breve.smcp" x="383" y="0" flags="0x0"/>
    </TTGlyph>
    <TTGlyph name="acircumflex" xMin="-170" yMin="0" xMax="1288" yMax="1671">
      <component glyphName=".ttfautohint" x="0" y="0" flags="0x0"/>
      <component glyphName="a" x="0" y="0" flags="0x0"/>
      <component glyphName="circumflex.smcp" x="428" y="0" flags="0x0"/>
    </TTGlyph>
    <TTGlyph name="acute" xMin="260" yMin="1227" xMax="712" yMax="1680">
      <contour>
        <pt x="345" y="1345" on="0"/>
        <pt x="448" y="1486" on="1"/>
        <pt x="530" y="1597" on="0"/>
        <pt x="567" y="1634" on="1"/>
        <pt x="607" y="1680" on="0"/>
        <pt x="651" y="1680" on="1"/>
        <pt x="676" y="1680" on="0"/>
        <pt x="696" y="1665" on="1"/>
        <pt x="712" y="1649" on="0"/>
        <pt x="712" y="1625" on="1"/>
        <pt x="712" y="1584" on="0"/>
        <pt x="666" y="1538" on="1"/>
        <pt x="627" y="1496" on="0"/>
        <pt x="528" y="1425" on="1"/>
        <pt x="386" y="1321" on="0"/>
        <pt x="281" y="1227" on="1"/>
        <pt x="260" y="1245" on="1"/>
      </contour>
    </TTGlyph>
    <TTGlyph name="acute.case" xMin="41" yMin="1581" xMax="582" yMax="1918">
      <contour>
        <pt x="160" y="1684" on="0"/>
        <pt x="295" y="1789" on="1"/>
        <pt x="396" y="1867" on="0"/>
        <pt x="442" y="1894" on="1"/>
        <pt x="481" y="1918" on="0"/>
        <pt x="520" y="1918" on="1"/>
        <pt x="563" y="1918" on="0"/>
        <pt x="578" y="1884" on="1"/>
        <pt x="582" y="1875" on="0"/>
        <pt x="582" y="1864" on="1"/>
        <pt x="582" y="1839" on="0"/>
        <pt x="539" y="1790" on="0"/>
        <pt x="510" y="1774" on="1"/>
        <pt x="460" y="1745" on="0"/>
        <pt x="347" y="1704" on="1"/>
        <pt x="177" y="1641" on="0"/>
        <pt x="55" y="1581" on="1"/>
        <pt x="41" y="1604" on="1"/>
      </contour>
    </TTGlyph>
    <TTGlyph name="acute.loclPLK" xMin="176" yMin="1229" xMax="476" yMax="1678">
      <contour>
        <pt x="218" y="1345" on="0"/>
        <pt x="254" y="1483" on="1"/>
        <pt x="268" y="1538" on="0"/>
        <pt x="287" y="1596" on="0"/>
        <pt x="303" y="1622" on="1"/>
        <pt x="337" y="1678" on="0"/>
        <pt x="391" y="1678" on="1"/>
        <pt x="412" y="1678" on="0"/>
        <pt x="436" y="1667" on="1"/>
        <pt x="476" y="1648" on="0"/>
        <pt x="476" y="1599" on="1"/>
        <pt x="476" y="1568" on="0"/>
        <pt x="459" y="1536" on="1"/>
        <pt x="437" y="1496" on="0"/>
        <pt x="363" y="1418" on="1"/>
        <pt x="262" y="1313" on="0"/>
        <pt x="199" y="1229" on="1"/>
        <pt x="176" y="1241" on="1"/>
      </contour>
    </TTGlyph>
    <TTGlyph name="acute.loclPLK.case" xMin="55" yMin="1554" xMax="348" yMax="1925">
      <contour>
        <pt x="94" y="1649" on="0"/>
        <pt x="130" y="1763" on="1"/>
        <pt x="156" y="1847" on="0"/>
        <pt x="178" y="1878" on="1"/>
        <pt x="216" y="1925" on="0"/>
        <pt x="264" y="1925" on="1"/>
        <pt x="292" y="1925" on="0"/>
        <pt x="315" y="1909" on="1"/>
        <pt x="348" y="1889" on="0"/>
        <pt x="348" y="1847" on="1"/>
        <pt x="348" y="1812" on="0"/>
        <pt x="324" y="1776" on="1"/>
        <pt x="311" y="1758" on="0"/>
        <pt x="277" y="1727" on="0"/>
        <pt x="237" y="1696" on="1"/>
        <pt x="135" y="1616" on="0"/>
        <pt x="76" y="1554" on="1"/>
        <pt x="55" y="1569" on="1"/>
      </contour>
    </TTGlyph>
    <TTGlyph name="acute.loclPLK.smcp" xMin="55" yMin="1350" xMax="348" yMax="1721">
      <contour>
        <pt x="94" y="1444" on="0"/>
        <pt x="130" y="1558" on="1"/>
        <pt x="156" y="1642" on="0"/>
        <pt x="178" y="1673" on="1"/>
        <pt x="217" y="1721" on="0"/>
        <pt x="264" y="1721" on="1"/>
        <pt x="290" y="1721" on="0"/>
        <pt x="315" y="1704" on="1"/>
        <pt x="348" y="1684" on="0"/>
        <pt x="348" y="1642" on="1"/>
        <pt x="348" y="1607" on="0"/>
        <pt x="324" y="1571" on="1"/>
        <pt x="312" y="1554" on="0"/>
        <pt x="277" y="1523" on="0"/>
        <pt x="239" y="1493" on="1"/>
        <pt x="144" y="1420" on="0"/>
        <pt x="76" y="1350" on="1"/>
        <pt x="55" y="1364" on="1"/>
      </contour>
    </TTGlyph>
    <TTGlyph name="acute.smcp" xMin="41" yMin="1376" xMax="582" yMax="1713">
      <contour>
        <pt x="160" y="1479" on="0"/>
        <pt x="298" y="1586" on="1"/>
        <pt x="403" y="1667" on="0"/>
        <pt x="442" y="1690" on="1"/>
        <pt x="482" y="1713" on="0"/>
        <pt x="520" y="1713" on="1"/>
        <pt x="563" y="1713" on="0"/>
        <pt x="578" y="1679" on="1"/>
        <pt x="582" y="1670" on="0"/>
        <pt x="582" y="1659" on="1"/>
        <pt x="582" y="1634" on="0"/>
        <pt x="539" y="1585" on="0"/>
        <pt x="510" y="1569" on="1"/>
        <pt x="460" y="1540" on="0"/>
        <pt x="347" y="1499" on="1"/>
        <pt x="177" y="1436" on="0"/>
        <pt x="55" y="1376" on="1"/>
        <pt x="41" y="1399" on="1"/>
      </contour>
    </TTGlyph>
    <TTGlyph name="adieresis" xMin="-170" yMin="0" xMax="1239" yMax="1614">
      <component glyphName=".ttfautohint" x="0" y="0" flags="0x0"/>
      <component glyphName="a" x="0" y="0" flags="0x0"/>
      <component glyphName="dieresis.smcp" x="504" y="0" flags="0x0"/>
    </TTGlyph>
    <TTGlyph name="ae" xMin="-154" yMin="0" xMax="1870" yMax="1354">
      <contour>
        <pt x="1742" y="1239" on="0"/>
        <pt x="1870" y="1245" on="1"/>
        <pt x="1836" y="1152" on="0"/>
        <pt x="1792" y="1004" on="1"/>
        <pt x="1773" y="935" on="0"/>
        <pt x="1765" y="877" on="1"/>
        <pt x="1720" y="877" on="1"/>
        <pt x="1735" y="963" on="0"/>
        <pt x="1735" y="1021" on="1"/>
        <pt x="1735" y="1117" on="0"/>
        <pt x="1650" y="1198" on="0"/>
        <pt x="1554" y="1198" on="1"/>
        <pt x="1364" y="1198" on="1"/>
        <pt x="1292" y="1198" on="0"/>
        <pt x="1222" y="1175" on="0"/>
        <pt x="1179" y="1105" on="0"/>
        <pt x="1159" y="1028" on="1"/>
        <pt x="1057" y="647" on="1"/>
        <pt x="1272" y="647" on="1"/>
        <pt x="1330" y="647" on="0"/>
        <pt x="1407" y="708" on="0"/>
        <pt x="1454" y="799" on="0"/>
        <pt x="1483" y="877" on="1"/>
        <pt x="1528" y="877" on="1"/>
        <pt x="1505" y="808" on="0"/>
        <pt x="1474" y="689" on="1"/>
        <pt x="1458" y="627" on="1"/>
        <pt x="1436" y="545" on="0"/>
        <pt x="1405" y="377" on="1"/>
        <pt x="1360" y="377" on="1"/>
        <pt x="1360" y="388" on="0"/>
        <pt x="1365" y="440" on="1"/>
        <pt x="1370" y="477" on="0"/>
        <pt x="1370" y="503" on="1"/>
        <pt x="1370" y="549" on="0"/>
        <pt x="1325" y="602" on="0"/>
        <pt x="1264" y="606" on="1"/>
        <pt x="1046" y="606" on="1"/>
        <pt x="942" y="217" on="1"/>
        <pt x="925" y="151" on="0"/>
        <pt x="925" y="118" on="1"/>
        <pt x="925" y="88" on="0"/>
        <pt x="952" y="58" on="0"/>
        <pt x="1008" y="47" on="0"/>
        <pt x="1059" y="47" on="1"/>
        <pt x="1270" y="47" on="1"/>
        <pt x="1369" y="47" on="0"/>
        <pt x="1495" y="115" on="0"/>
        <pt x="1588" y="269" on="0"/>
        <pt x="1636" y="410" on="1"/>
        <pt x="1681" y="410" on="1"/>
        <pt x="1668" y="375" on="0"/>
        <pt x="1638" y="262" on="1"/>
        <pt x="1603" y="135" on="0"/>
        <pt x="1585" y="0" on="1"/>
        <pt x="1446" y="6" on="0"/>
        <pt x="1122" y="6" on="1"/>
        <pt x="733" y="6" on="0"/>
        <pt x="532" y="0" on="1"/>
        <pt x="541" y="41" on="1"/>
        <pt x="615" y="44" on="0"/>
        <pt x="688" y="70" on="0"/>
        <pt x="732" y="140" on="0"/>
        <pt x="752" y="217" on="1"/>
        <pt x="856" y="606" on="1"/>
        <pt x="458" y="606" on="1"/>
        <pt x="92" y="193" on="1"/>
        <pt x="33" y="126" on="0"/>
        <pt x="33" y="96" on="1"/>
        <pt x="33" y="51" on="0"/>
        <pt x="160" y="41" on="1"/>
        <pt x="160" y="0" on="1"/>
        <pt x="105" y="6" on="0"/>
        <pt x="-16" y="6" on="1"/>
        <pt x="-104" y="6" on="0"/>
        <pt x="-154" y="0" on="1"/>
        <pt x="-154" y="41" on="1"/>
        <pt x="-90" y="44" on="0"/>
        <pt x="23" y="172" on="1"/>
        <pt x="927" y="1196" on="1"/>
        <pt x="894" y="1203" on="0"/>
        <pt x="848" y="1204" on="1"/>
        <pt x="858" y="1245" on="1"/>
        <pt x="968" y="1242" on="1"/>
        <pt x="1067" y="1354" on="1"/>
        <pt x="1120" y="1354" on="1"/>
        <pt x="1020" y="1241" on="1"/>
        <pt x="1186" y="1239" on="0"/>
        <pt x="1450" y="1239" on="1"/>
      </contour>
      <contour>
        <pt x="969" y="1028" on="1"/>
        <pt x="986" y="1093" on="0"/>
        <pt x="986" y="1126" on="1"/>
        <pt x="986" y="1164" on="0"/>
        <pt x="965" y="1179" on="1"/>
        <pt x="494" y="647" on="1"/>
        <pt x="867" y="647" on="1"/>
      </contour>
    </TTGlyph>
    <TTGlyph name="agrave" xMin="-170" yMin="0" xMax="1135" yMax="1758">
      <component glyphName=".ttfautohint" x="0" y="0" flags="0x0"/>
      <component glyphName="a" x="0" y="0" flags="0x0"/>
      <component glyphName="grave.smcp" x="508" y="0" flags="0x0"/>
    </TTGlyph>
    <TTGlyph name="amacron" xMin="-170" yMin="0" xMax="1261" yMax="1524">
      <component glyphName=".ttfautohint" x="0" y="0" flags="0x0"/>
      <component glyphName="a" x="0" y="0" flags="0x0"/>
      <component glyphName="macron.smcp" x="477" y="0" flags="0x0"/>
    </TTGlyph>
    <TTGlyph name="ampersand" xMin="78" yMin="-29" xMax="1778" yMax="1479">
      <contour>
        <pt x="1640" y="1479" on="0"/>
        <pt x="1778" y="1363" on="0"/>
        <pt x="1778" y="1245" on="1"/>
        <pt x="1778" y="1141" on="0"/>
        <pt x="1659" y="981" on="0"/>
        <pt x="1528" y="915" on="1"/>
        <pt x="1435" y="869" on="0"/>
        <pt x="1201" y="784" on="1"/>
        <pt x="1350" y="657" on="0"/>
        <pt x="1350" y="477" on="1"/>
        <pt x="1350" y="341" on="0"/>
        <pt x="1187" y="109" on="0"/>
        <pt x="878" y="-29" on="0"/>
        <pt x="668" y="-29" on="1"/>
        <pt x="488" y="-29" on="0"/>
        <pt x="222" y="75" on="0"/>
        <pt x="78" y="269" on="0"/>
        <pt x="78" y="403" on="1"/>
        <pt x="78" y="523" on="0"/>
        <pt x="192" y="733" on="0"/>
        <pt x="392" y="883" on="0"/>
        <pt x="518" y="918" on="1"/>
        <pt x="449" y="955" on="0"/>
        <pt x="375" y="1078" on="0"/>
        <pt x="375" y="1147" on="1"/>
        <pt x="375" y="1236" on="0"/>
        <pt x="496" y="1368" on="0"/>
        <pt x="684" y="1438" on="0"/>
        <pt x="780" y="1438" on="1"/>
        <pt x="856" y="1438" on="0"/>
        <pt x="970" y="1393" on="0"/>
        <pt x="1032" y="1313" on="0"/>
        <pt x="1032" y="1260" on="1"/>
        <pt x="1032" y="1210" on="0"/>
        <pt x="981" y="1141" on="0"/>
        <pt x="901" y="1106" on="0"/>
        <pt x="858" y="1106" on="1"/>
        <pt x="862" y="1143" on="1"/>
        <pt x="919" y="1143" on="0"/>
        <pt x="989" y="1203" on="0"/>
        <pt x="989" y="1255" on="1"/>
        <pt x="989" y="1323" on="0"/>
        <pt x="877" y="1405" on="0"/>
        <pt x="791" y="1405" on="1"/>
        <pt x="708" y="1405" on="0"/>
        <pt x="576" y="1326" on="0"/>
        <pt x="502" y="1187" on="0"/>
        <pt x="502" y="1100" on="1"/>
        <pt x="502" y="1005" on="0"/>
        <pt x="547" y="930" on="1"/>
        <pt x="620" y="942" on="0"/>
        <pt x="676" y="942" on="1"/>
        <pt x="750" y="942" on="0"/>
        <pt x="750" y="899" on="1"/>
        <pt x="750" y="877" on="0"/>
        <pt x="712" y="856" on="0"/>
        <pt x="686" y="856" on="1"/>
        <pt x="635" y="856" on="0"/>
        <pt x="545" y="901" on="1"/>
        <pt x="452" y="874" on="0"/>
        <pt x="310" y="754" on="0"/>
        <pt x="231" y="590" on="0"/>
        <pt x="231" y="498" on="1"/>
        <pt x="231" y="378" on="0"/>
        <pt x="363" y="209" on="0"/>
        <pt x="595" y="123" on="0"/>
        <pt x="745" y="123" on="1"/>
        <pt x="904" y="123" on="0"/>
        <pt x="1161" y="217" on="0"/>
        <pt x="1309" y="391" on="0"/>
        <pt x="1309" y="504" on="1"/>
        <pt x="1309" y="579" on="0"/>
        <pt x="1240" y="723" on="0"/>
        <pt x="1171" y="773" on="1"/>
        <pt x="1119" y="754" on="1"/>
        <pt x="932" y="684" on="0"/>
        <pt x="911" y="676" on="1"/>
        <pt x="819" y="640" on="0"/>
        <pt x="696" y="547" on="0"/>
        <pt x="696" y="473" on="1"/>
        <pt x="696" y="410" on="0"/>
        <pt x="797" y="336" on="0"/>
        <pt x="870" y="336" on="1"/>
        <pt x="951" y="336" on="0"/>
        <pt x="1053" y="416" on="0"/>
        <pt x="1079" y="457" on="1"/>
        <pt x="1106" y="438" on="1"/>
        <pt x="1024" y="303" on="0"/>
        <pt x="862" y="303" on="1"/>
        <pt x="767" y="303" on="0"/>
        <pt x="641" y="397" on="0"/>
        <pt x="641" y="504" on="1"/>
        <pt x="641" y="623" on="0"/>
        <pt x="811" y="779" on="0"/>
        <pt x="981" y="842" on="1"/>
        <pt x="1002" y="850" on="0"/>
        <pt x="1089" y="881" on="1"/>
        <pt x="1402" y="992" on="0"/>
        <pt x="1511" y="1044" on="1"/>
        <pt x="1612" y="1093" on="0"/>
        <pt x="1722" y="1200" on="0"/>
        <pt x="1722" y="1272" on="1"/>
        <pt x="1722" y="1321" on="0"/>
        <pt x="1669" y="1402" on="0"/>
        <pt x="1576" y="1448" on="0"/>
        <pt x="1520" y="1448" on="1"/>
        <pt x="1466" y="1448" on="0"/>
        <pt x="1454" y="1430" on="1"/>
        <pt x="1475" y="1418" on="0"/>
        <pt x="1497" y="1376" on="0"/>
        <pt x="1497" y="1352" on="1"/>
        <pt x="1497" y="1321" on="0"/>
        <pt x="1459" y="1267" on="0"/>
        <pt x="1397" y="1235" on="0"/>
        <pt x="1362" y="1235" on="1"/>
        <pt x="1321" y="1235" on="0"/>
        <pt x="1270" y="1281" on="0"/>
        <pt x="1270" y="1321" on="1"/>
        <pt x="1270" y="1363" on="0"/>
        <pt x="1327" y="1430" on="0"/>
        <pt x="1372" y="1450" on="1"/>
        <pt x="1440" y="1479" on="0"/>
        <pt x="1522" y="1479" on="1"/>
      </contour>
    </TTGlyph>
    <TTGlyph name="ampersand.smcp" xMin="47" yMin="-29" xMax="1671" yMax="1368">
      <contour>
        <pt x="1532" y="1368" on="0"/>
        <pt x="1671" y="1248" on="0"/>
        <pt x="1671" y="1130" on="1"/>
        <pt x="1671" y="1022" on="0"/>
        <pt x="1546" y="865" on="0"/>
        <pt x="1421" y="805" on="1"/>
        <pt x="1379" y="785" on="0"/>
        <pt x="1270" y="744" on="1"/>
        <pt x="1235" y="732" on="0"/>
        <pt x="1147" y="699" on="1"/>
        <pt x="1343" y="638" on="0"/>
        <pt x="1343" y="442" on="1"/>
        <pt x="1343" y="299" on="0"/>
        <pt x="1141" y="85" on="0"/>
        <pt x="811" y="-29" on="0"/>
        <pt x="625" y="-29" on="1"/>
        <pt x="462" y="-29" on="0"/>
        <pt x="199" y="60" on="0"/>
        <pt x="47" y="229" on="0"/>
        <pt x="47" y="346" on="1"/>
        <pt x="47" y="448" on="0"/>
        <pt x="163" y="631" on="0"/>
        <pt x="363" y="764" on="0"/>
        <pt x="487" y="795" on="1"/>
        <pt x="413" y="835" on="0"/>
        <pt x="344" y="944" on="0"/>
        <pt x="344" y="1001" on="1"/>
        <pt x="344" y="1080" on="0"/>
        <pt x="462" y="1205" on="0"/>
        <pt x="646" y="1274" on="0"/>
        <pt x="739" y="1274" on="1"/>
        <pt x="812" y="1274" on="0"/>
        <pt x="925" y="1231" on="0"/>
        <pt x="987" y="1154" on="0"/>
        <pt x="987" y="1104" on="1"/>
        <pt x="987" y="1060" on="0"/>
        <pt x="939" y="996" on="0"/>
        <pt x="859" y="963" on="0"/>
        <pt x="813" y="963" on="1"/>
        <pt x="813" y="997" on="1"/>
        <pt x="871" y="997" on="0"/>
        <pt x="946" y="1053" on="0"/>
        <pt x="946" y="1104" on="1"/>
        <pt x="946" y="1142" on="0"/>
        <pt x="898" y="1206" on="0"/>
        <pt x="809" y="1243" on="0"/>
        <pt x="750" y="1243" on="1"/>
        <pt x="668" y="1243" on="0"/>
        <pt x="541" y="1173" on="0"/>
        <pt x="471" y="1051" on="0"/>
        <pt x="471" y="975" on="1"/>
        <pt x="471" y="881" on="0"/>
        <pt x="516" y="807" on="1"/>
        <pt x="589" y="819" on="0"/>
        <pt x="645" y="819" on="1"/>
        <pt x="719" y="819" on="0"/>
        <pt x="719" y="776" on="1"/>
        <pt x="719" y="754" on="0"/>
        <pt x="681" y="733" on="0"/>
        <pt x="655" y="733" on="1"/>
        <pt x="607" y="733" on="0"/>
        <pt x="514" y="778" on="1"/>
        <pt x="422" y="754" on="0"/>
        <pt x="280" y="652" on="0"/>
        <pt x="201" y="513" on="0"/>
        <pt x="201" y="432" on="1"/>
        <pt x="201" y="332" on="0"/>
        <pt x="323" y="193" on="0"/>
        <pt x="532" y="123" on="0"/>
        <pt x="662" y="123" on="1"/>
        <pt x="795" y="123" on="0"/>
        <pt x="1086" y="192" on="0"/>
        <pt x="1290" y="349" on="0"/>
        <pt x="1290" y="471" on="1"/>
        <pt x="1290" y="628" on="0"/>
        <pt x="1105" y="682" on="1"/>
        <pt x="1053" y="661" on="0"/>
        <pt x="985" y="631" on="1"/>
        <pt x="892" y="590" on="0"/>
        <pt x="794" y="532" on="0"/>
        <pt x="750" y="475" on="0"/>
        <pt x="750" y="438" on="1"/>
        <pt x="750" y="384" on="0"/>
        <pt x="822" y="330" on="0"/>
        <pt x="877" y="330" on="1"/>
        <pt x="970" y="330" on="0"/>
        <pt x="1026" y="397" on="1"/>
        <pt x="1047" y="375" on="1"/>
        <pt x="980" y="297" on="0"/>
        <pt x="872" y="297" on="1"/>
        <pt x="795" y="297" on="0"/>
        <pt x="694" y="379" on="0"/>
        <pt x="694" y="469" on="1"/>
        <pt x="694" y="550" on="0"/>
        <pt x="783" y="666" on="0"/>
        <pt x="933" y="749" on="0"/>
        <pt x="1055" y="797" on="1"/>
        <pt x="1061" y="799" on="0"/>
        <pt x="1302" y="889" on="0"/>
        <pt x="1403" y="934" on="1"/>
        <pt x="1498" y="977" on="0"/>
        <pt x="1616" y="1081" on="0"/>
        <pt x="1616" y="1163" on="1"/>
        <pt x="1616" y="1242" on="0"/>
        <pt x="1502" y="1337" on="0"/>
        <pt x="1413" y="1337" on="1"/>
        <pt x="1362" y="1337" on="0"/>
        <pt x="1348" y="1319" on="1"/>
        <pt x="1368" y="1307" on="0"/>
        <pt x="1391" y="1265" on="0"/>
        <pt x="1391" y="1241" on="1"/>
        <pt x="1391" y="1210" on="0"/>
        <pt x="1352" y="1156" on="0"/>
        <pt x="1290" y="1124" on="0"/>
        <pt x="1255" y="1124" on="1"/>
        <pt x="1214" y="1124" on="0"/>
        <pt x="1163" y="1170" on="0"/>
        <pt x="1163" y="1210" on="1"/>
        <pt x="1163" y="1253" on="0"/>
        <pt x="1221" y="1320" on="0"/>
        <pt x="1266" y="1339" on="1"/>
        <pt x="1331" y="1368" on="0"/>
        <pt x="1415" y="1368" on="1"/>
      </contour>
    </TTGlyph>
    <TTGlyph name="aogonek" xMin="-170" yMin="-385" xMax="1135" yMax="1260">
      <contour>
        <pt x="969" y="-25" on="0"/>
        <pt x="830" y="-135" on="0"/>
        <pt x="830" y="-211" on="1"/>
        <pt x="830" y="-287" on="0"/>
        <pt x="910" y="-287" on="1"/>
        <pt x="949" y="-287" on="0"/>
        <pt x="1040" y="-254" on="0"/>
        <pt x="1068" y="-233" on="1"/>
        <pt x="1090" y="-268" on="1"/>
        <pt x="967" y="-385" on="0"/>
        <pt x="826" y="-385" on="1"/>
        <pt x="752" y="-385" on="0"/>
        <pt x="674" y="-321" on="0"/>
        <pt x="674" y="-266" on="1"/>
        <pt x="674" y="-175" on="0"/>
        <pt x="866" y="-37" on="0"/>
        <pt x="991" y="5" on="1"/>
        <pt x="901" y="6" on="1"/>
        <pt x="736" y="6" on="0"/>
        <pt x="655" y="0" on="1"/>
        <pt x="666" y="41" on="1"/>
        <pt x="729" y="44" on="0"/>
        <pt x="805" y="67" on="0"/>
        <pt x="845" y="122" on="0"/>
        <pt x="845" y="173" on="1"/>
        <pt x="845" y="191" on="0"/>
        <pt x="842" y="213" on="1"/>
        <pt x="811" y="467" on="1"/>
        <pt x="292" y="467" on="1"/>
        <pt x="152" y="293" on="1"/>
        <pt x="71" y="194" on="0"/>
        <pt x="71" y="129" on="1"/>
        <pt x="71" y="51" on="0"/>
        <pt x="195" y="41" on="1"/>
        <pt x="195" y="0" on="1"/>
        <pt x="133" y="6" on="0"/>
        <pt x="8" y="6" on="1"/>
        <pt x="-118" y="6" on="0"/>
        <pt x="-170" y="0" on="1"/>
        <pt x="-170" y="41" on="1"/>
        <pt x="-80" y="64" on="0"/>
        <pt x="53" y="231" on="1"/>
        <pt x="877" y="1260" on="1"/>
        <pt x="907" y="1260" on="1"/>
        <pt x="1034" y="172" on="1"/>
        <pt x="1043" y="104" on="0"/>
        <pt x="1099" y="43" on="0"/>
        <pt x="1135" y="41" on="1"/>
        <pt x="1124" y="0" on="1"/>
        <pt x="1062" y="3" on="1"/>
      </contour>
      <contour>
        <pt x="743" y="1027" on="1"/>
        <pt x="325" y="508" on="1"/>
        <pt x="806" y="508" on="1"/>
      </contour>
    </TTGlyph>
    <TTGlyph name="approxequal" xMin="133" yMin="485" xMax="1300" yMax="1028">
      <contour>
        <pt x="838" y="758" on="0"/>
        <pt x="738" y="800" on="0"/>
        <pt x="676" y="841" on="1"/>
        <pt x="617" y="880" on="0"/>
        <pt x="526" y="918" on="0"/>
        <pt x="463" y="918" on="1"/>
        <pt x="330" y="918" on="0"/>
        <pt x="227" y="799" on="1"/>
        <pt x="201" y="809" on="1"/>
        <pt x="272" y="911" on="0"/>
        <pt x="481" y="1028" on="0"/>
        <pt x="594" y="1028" on="1"/>
        <pt x="644" y="1028" on="0"/>
        <pt x="725" y="1005" on="0"/>
        <pt x="784" y="973" on="0"/>
        <pt x="826" y="945" on="1"/>
        <pt x="886" y="906" on="0"/>
        <pt x="975" y="868" on="0"/>
        <pt x="1038" y="868" on="1"/>
        <pt x="1171" y="868" on="0"/>
        <pt x="1276" y="987" on="1"/>
        <pt x="1300" y="977" on="1"/>
        <pt x="1229" y="875" on="0"/>
        <pt x="1022" y="758" on="0"/>
        <pt x="909" y="758" on="1"/>
      </contour>
      <contour>
        <pt x="790" y="485" on="0"/>
        <pt x="710" y="508" on="0"/>
        <pt x="651" y="539" on="0"/>
        <pt x="608" y="567" on="1"/>
        <pt x="549" y="606" on="0"/>
        <pt x="459" y="645" on="0"/>
        <pt x="395" y="645" on="1"/>
        <pt x="263" y="645" on="0"/>
        <pt x="158" y="526" on="1"/>
        <pt x="133" y="537" on="1"/>
        <pt x="204" y="639" on="0"/>
        <pt x="411" y="756" on="0"/>
        <pt x="524" y="756" on="1"/>
        <pt x="574" y="756" on="0"/>
        <pt x="655" y="733" on="0"/>
        <pt x="715" y="701" on="0"/>
        <pt x="757" y="674" on="1"/>
        <pt x="815" y="635" on="0"/>
        <pt x="907" y="596" on="0"/>
        <pt x="971" y="596" on="1"/>
        <pt x="1103" y="596" on="0"/>
        <pt x="1206" y="715" on="1"/>
        <pt x="1233" y="705" on="1"/>
        <pt x="1162" y="603" on="0"/>
        <pt x="953" y="485" on="0"/>
        <pt x="840" y="485" on="1"/>
      </contour>
    </TTGlyph>
    <TTGlyph name="aring" xMin="-170" yMin="0" xMax="1147" yMax="1690">
      <component glyphName=".ttfautohint" x="0" y="0" flags="0x0"/>
      <component glyphName="a" x="0" y="0" flags="0x0"/>
      <component glyphName="ring.smcp" x="639" y="0" flags="0x0"/>
    </TTGlyph>
    <TTGlyph name="arrowboth" xMin="51" yMin="158" xMax="1331" yMax="924">
      <contour>
        <pt x="977" y="770" on="0"/>
        <pt x="1184" y="584" on="0"/>
        <pt x="1331" y="541" on="1"/>
        <pt x="1184" y="497" on="0"/>
        <pt x="977" y="312" on="0"/>
        <pt x="907" y="158" on="1"/>
        <pt x="872" y="158" on="1"/>
        <pt x="957" y="337" on="0"/>
        <pt x="961" y="524" on="1"/>
        <pt x="422" y="524" on="1"/>
        <pt x="426" y="339" on="0"/>
        <pt x="510" y="158" on="1"/>
        <pt x="475" y="158" on="1"/>
        <pt x="405" y="312" on="0"/>
        <pt x="198" y="497" on="0"/>
        <pt x="51" y="541" on="1"/>
        <pt x="198" y="584" on="0"/>
        <pt x="405" y="770" on="0"/>
        <pt x="475" y="924" on="1"/>
        <pt x="510" y="924" on="1"/>
        <pt x="425" y="742" on="0"/>
        <pt x="422" y="557" on="1"/>
        <pt x="961" y="557" on="1"/>
        <pt x="958" y="743" on="0"/>
        <pt x="872" y="924" on="1"/>
        <pt x="907" y="924" on="1"/>
      </contour>
    </TTGlyph>
    <TTGlyph name="arrowdown" xMin="123" yMin="-20" xMax="889" yMax="1200">
      <contour>
        <pt x="552" y="952" on="0"/>
        <pt x="734" y="1128" on="0"/>
        <pt x="889" y="1200" on="1"/>
        <pt x="889" y="1165" on="1"/>
        <pt x="735" y="1095" on="0"/>
        <pt x="549" y="888" on="0"/>
        <pt x="506" y="741" on="1"/>
        <pt x="463" y="888" on="0"/>
        <pt x="277" y="1095" on="0"/>
        <pt x="123" y="1165" on="1"/>
        <pt x="123" y="1200" on="1"/>
        <pt x="278" y="1128" on="0"/>
        <pt x="459" y="952" on="0"/>
        <pt x="506" y="829" on="1"/>
      </contour>
      <contour>
        <pt x="552" y="768" on="0"/>
        <pt x="734" y="944" on="0"/>
        <pt x="889" y="1016" on="1"/>
        <pt x="889" y="981" on="1"/>
        <pt x="748" y="917" on="0"/>
        <pt x="569" y="733" on="0"/>
        <pt x="522" y="606" on="1"/>
        <pt x="522" y="350" on="1"/>
        <pt x="707" y="353" on="0"/>
        <pt x="889" y="438" on="1"/>
        <pt x="889" y="403" on="1"/>
        <pt x="735" y="333" on="0"/>
        <pt x="549" y="127" on="0"/>
        <pt x="506" y="-20" on="1"/>
        <pt x="463" y="127" on="0"/>
        <pt x="277" y="333" on="0"/>
        <pt x="123" y="403" on="1"/>
        <pt x="123" y="438" on="1"/>
        <pt x="304" y="354" on="0"/>
        <pt x="489" y="350" on="1"/>
        <pt x="489" y="608" on="1"/>
        <pt x="442" y="734" on="0"/>
        <pt x="264" y="917" on="0"/>
        <pt x="123" y="981" on="1"/>
        <pt x="123" y="1016" on="1"/>
        <pt x="278" y="944" on="0"/>
        <pt x="459" y="768" on="0"/>
        <pt x="506" y="645" on="1"/>
      </contour>
    </TTGlyph>
    <TTGlyph name="arrowdownleft" xMin="133" yMin="-20" xMax="1268" yMax="1114">
      <contour>
        <pt x="851" y="633" on="0"/>
        <pt x="970" y="633" on="1"/>
        <pt x="1103" y="633" on="0"/>
        <pt x="1268" y="571" on="1"/>
        <pt x="1243" y="547" on="1"/>
        <pt x="1103" y="600" on="0"/>
        <pt x="976" y="600" on="1"/>
        <pt x="822" y="600" on="0"/>
        <pt x="672" y="518" on="1"/>
        <pt x="754" y="667" on="0"/>
        <pt x="754" y="821" on="1"/>
        <pt x="754" y="948" on="0"/>
        <pt x="700" y="1090" on="1"/>
        <pt x="725" y="1114" on="1"/>
        <pt x="787" y="949" on="0"/>
        <pt x="787" y="817" on="1"/>
        <pt x="787" y="695" on="0"/>
        <pt x="735" y="582" on="1"/>
      </contour>
      <contour>
        <pt x="720" y="502" on="0"/>
        <pt x="841" y="502" on="1"/>
        <pt x="972" y="502" on="0"/>
        <pt x="1137" y="442" on="1"/>
        <pt x="1112" y="418" on="1"/>
        <pt x="972" y="470" on="0"/>
        <pt x="848" y="470" on="1"/>
        <pt x="716" y="470" on="0"/>
        <pt x="590" y="413" on="1"/>
        <pt x="407" y="231" on="1"/>
        <pt x="541" y="103" on="0"/>
        <pt x="729" y="33" on="1"/>
        <pt x="705" y="8" on="1"/>
        <pt x="563" y="62" on="0"/>
        <pt x="436" y="62" on="1"/>
        <pt x="282" y="62" on="0"/>
        <pt x="133" y="-20" on="1"/>
        <pt x="215" y="130" on="0"/>
        <pt x="215" y="284" on="1"/>
        <pt x="215" y="411" on="0"/>
        <pt x="162" y="551" on="1"/>
        <pt x="186" y="575" on="1"/>
        <pt x="257" y="389" on="0"/>
        <pt x="384" y="253" on="1"/>
        <pt x="567" y="438" on="1"/>
        <pt x="624" y="563" on="0"/>
        <pt x="624" y="692" on="1"/>
        <pt x="624" y="816" on="0"/>
        <pt x="571" y="958" on="1"/>
        <pt x="596" y="983" on="1"/>
        <pt x="656" y="818" on="0"/>
        <pt x="656" y="688" on="1"/>
        <pt x="656" y="565" on="0"/>
        <pt x="604" y="451" on="1"/>
      </contour>
    </TTGlyph>
    <TTGlyph name="arrowdownright" xMin="133" yMin="-20" xMax="1268" yMax="1114">
      <component glyphName=".ttfautohint" x="133" y="0" flags="0x0"/>
      <component glyphName="arrowupleft" x="1401" y="1094" scale="-1.0" flags="0x0"/>
    </TTGlyph>
    <TTGlyph name="arrowleft" xMin="51" yMin="158" xMax="1272" yMax="924">
      <contour>
        <pt x="840" y="495" on="0"/>
        <pt x="1015" y="313" on="0"/>
        <pt x="1087" y="158" on="1"/>
        <pt x="1053" y="158" on="1"/>
        <pt x="988" y="299" on="0"/>
        <pt x="806" y="476" on="0"/>
        <pt x="680" y="524" on="1"/>
        <pt x="422" y="524" on="1"/>
        <pt x="426" y="339" on="0"/>
        <pt x="510" y="158" on="1"/>
        <pt x="475" y="158" on="1"/>
        <pt x="405" y="312" on="0"/>
        <pt x="198" y="497" on="0"/>
        <pt x="51" y="541" on="1"/>
        <pt x="198" y="584" on="0"/>
        <pt x="405" y="770" on="0"/>
        <pt x="475" y="924" on="1"/>
        <pt x="510" y="924" on="1"/>
        <pt x="425" y="742" on="0"/>
        <pt x="422" y="557" on="1"/>
        <pt x="677" y="557" on="1"/>
        <pt x="804" y="604" on="0"/>
        <pt x="988" y="783" on="0"/>
        <pt x="1053" y="924" on="1"/>
        <pt x="1087" y="924" on="1"/>
        <pt x="1015" y="768" on="0"/>
        <pt x="840" y="587" on="0"/>
        <pt x="717" y="541" on="1"/>
      </contour>
      <contour>
        <pt x="1024" y="494" on="0"/>
        <pt x="1200" y="313" on="0"/>
        <pt x="1272" y="158" on="1"/>
        <pt x="1237" y="158" on="1"/>
        <pt x="1167" y="312" on="0"/>
        <pt x="960" y="497" on="0"/>
        <pt x="813" y="541" on="1"/>
        <pt x="960" y="584" on="0"/>
        <pt x="1167" y="770" on="0"/>
        <pt x="1237" y="924" on="1"/>
        <pt x="1272" y="924" on="1"/>
        <pt x="1200" y="769" on="0"/>
        <pt x="1024" y="587" on="0"/>
        <pt x="901" y="541" on="1"/>
      </contour>
    </TTGlyph>
    <TTGlyph name="arrowright" xMin="123" yMin="158" xMax="1344" yMax="924">
      <component glyphName=".ttfautohint" x="123" y="158" flags="0x0"/>
      <component glyphName="arrowleft" x="1395" y="0" scalex="-1.0" scaley="1.0" flags="0x0"/>
    </TTGlyph>
    <TTGlyph name="arrowup" xMin="123" yMin="-20" xMax="889" yMax="1200">
      <contour>
        <pt x="710" y="826" on="0"/>
        <pt x="522" y="829" on="1"/>
        <pt x="522" y="574" on="1"/>
        <pt x="569" y="447" on="0"/>
        <pt x="748" y="263" on="0"/>
        <pt x="889" y="199" on="1"/>
        <pt x="889" y="164" on="1"/>
        <pt x="734" y="236" on="0"/>
        <pt x="552" y="412" on="0"/>
        <pt x="506" y="535" on="1"/>
        <pt x="459" y="412" on="0"/>
        <pt x="278" y="236" on="0"/>
        <pt x="123" y="164" on="1"/>
        <pt x="123" y="199" on="1"/>
        <pt x="264" y="263" on="0"/>
        <pt x="442" y="446" on="0"/>
        <pt x="489" y="572" on="1"/>
        <pt x="489" y="829" on="1"/>
        <pt x="304" y="826" on="0"/>
        <pt x="123" y="741" on="1"/>
        <pt x="123" y="776" on="1"/>
        <pt x="277" y="846" on="0"/>
        <pt x="463" y="1053" on="0"/>
        <pt x="506" y="1200" on="1"/>
        <pt x="549" y="1053" on="0"/>
        <pt x="735" y="846" on="0"/>
        <pt x="889" y="776" on="1"/>
        <pt x="889" y="741" on="1"/>
      </contour>
      <contour>
        <pt x="549" y="292" on="0"/>
        <pt x="735" y="85" on="0"/>
        <pt x="889" y="14" on="1"/>
        <pt x="889" y="-20" on="1"/>
        <pt x="733" y="52" on="0"/>
        <pt x="552" y="227" on="0"/>
        <pt x="506" y="350" on="1"/>
        <pt x="460" y="227" on="0"/>
        <pt x="278" y="52" on="0"/>
        <pt x="123" y="-20" on="1"/>
        <pt x="123" y="14" on="1"/>
        <pt x="277" y="85" on="0"/>
        <pt x="463" y="292" on="0"/>
        <pt x="506" y="438" on="1"/>
      </contour>
    </TTGlyph>
    <TTGlyph name="arrowupleft" xMin="133" yMin="-20" xMax="1268" yMax="1114">
      <contour>
        <pt x="972" y="591" on="0"/>
        <pt x="842" y="591" on="1"/>
        <pt x="718" y="591" on="0"/>
        <pt x="604" y="643" on="1"/>
        <pt x="656" y="529" on="0"/>
        <pt x="656" y="405" on="1"/>
        <pt x="656" y="276" on="0"/>
        <pt x="596" y="111" on="1"/>
        <pt x="571" y="135" on="1"/>
        <pt x="624" y="277" on="0"/>
        <pt x="624" y="401" on="1"/>
        <pt x="624" y="532" on="0"/>
        <pt x="567" y="656" on="1"/>
        <pt x="384" y="841" on="1"/>
        <pt x="257" y="706" on="0"/>
        <pt x="186" y="518" on="1"/>
        <pt x="162" y="543" on="1"/>
        <pt x="215" y="683" on="0"/>
        <pt x="215" y="810" on="1"/>
        <pt x="215" y="964" on="0"/>
        <pt x="133" y="1114" on="1"/>
        <pt x="283" y="1032" on="0"/>
        <pt x="437" y="1032" on="1"/>
        <pt x="561" y="1032" on="0"/>
        <pt x="705" y="1085" on="1"/>
        <pt x="729" y="1061" on="1"/>
        <pt x="541" y="991" on="0"/>
        <pt x="407" y="863" on="1"/>
        <pt x="591" y="681" on="1"/>
        <pt x="718" y="623" on="0"/>
        <pt x="847" y="623" on="1"/>
        <pt x="970" y="623" on="0"/>
        <pt x="1112" y="676" on="1"/>
        <pt x="1137" y="651" on="1"/>
      </contour>
      <contour>
        <pt x="1103" y="460" on="0"/>
        <pt x="971" y="460" on="1"/>
        <pt x="849" y="460" on="0"/>
        <pt x="735" y="512" on="1"/>
        <pt x="787" y="398" on="0"/>
        <pt x="787" y="277" on="1"/>
        <pt x="787" y="145" on="0"/>
        <pt x="725" y="-20" on="1"/>
        <pt x="700" y="4" on="1"/>
        <pt x="754" y="146" on="0"/>
        <pt x="754" y="272" on="1"/>
        <pt x="754" y="426" on="0"/>
        <pt x="672" y="575" on="1"/>
        <pt x="821" y="493" on="0"/>
        <pt x="975" y="493" on="1"/>
        <pt x="1101" y="493" on="0"/>
        <pt x="1243" y="547" on="1"/>
        <pt x="1268" y="522" on="1"/>
      </contour>
    </TTGlyph>
    <TTGlyph name="arrowupright" xMin="133" yMin="-20" xMax="1268" yMax="1114">
      <component glyphName=".ttfautohint" x="133" y="0" flags="0x0"/>
      <component glyphName="arrowupleft" x="1401" y="0" scalex="-1.0" scaley="1.0" flags="0x0"/>
    </TTGlyph>
    <TTGlyph name="asciicircum" xMin="174" yMin="659" xMax="977" yMax="1081">
      <contour>
        <pt x="514" y="837" on="0"/>
        <pt x="292" y="704" on="0"/>
        <pt x="182" y="659" on="1"/>
        <pt x="174" y="688" on="1"/>
        <pt x="321" y="751" on="0"/>
        <pt x="581" y="963" on="0"/>
        <pt x="662" y="1081" on="1"/>
        <pt x="698" y="1081" on="1"/>
        <pt x="716" y="963" on="0"/>
        <pt x="863" y="751" on="0"/>
        <pt x="977" y="688" on="1"/>
        <pt x="952" y="659" on="1"/>
        <pt x="841" y="704" on="0"/>
        <pt x="644" y="838" on="0"/>
        <pt x="592" y="905" on="1"/>
      </contour>
    </TTGlyph>
    <TTGlyph name="asciicircum.case" xMin="166" yMin="1059" xMax="969" yMax="1481">
      <contour>
        <pt x="506" y="1236" on="0"/>
        <pt x="284" y="1103" on="0"/>
        <pt x="174" y="1059" on="1"/>
        <pt x="166" y="1087" on="1"/>
        <pt x="314" y="1151" on="0"/>
        <pt x="573" y="1363" on="0"/>
        <pt x="653" y="1481" on="1"/>
        <pt x="690" y="1481" on="1"/>
        <pt x="708" y="1363" on="0"/>
        <pt x="854" y="1151" on="0"/>
        <pt x="969" y="1087" on="1"/>
        <pt x="944" y="1059" on="1"/>
        <pt x="832" y="1104" on="0"/>
        <pt x="635" y="1238" on="0"/>
        <pt x="584" y="1305" on="1"/>
      </contour>
    </TTGlyph>
    <TTGlyph name="asciicircum.smcp" xMin="258" yMin="1057" xMax="1061" yMax="1479">
      <contour>
        <pt x="598" y="1234" on="0"/>
        <pt x="376" y="1101" on="0"/>
        <pt x="266" y="1057" on="1"/>
        <pt x="258" y="1085" on="1"/>
        <pt x="406" y="1148" on="0"/>
        <pt x="665" y="1361" on="0"/>
        <pt x="745" y="1479" on="1"/>
        <pt x="782" y="1479" on="1"/>
        <pt x="800" y="1360" on="0"/>
        <pt x="947" y="1148" on="0"/>
        <pt x="1061" y="1085" on="1"/>
        <pt x="1036" y="1057" on="1"/>
        <pt x="924" y="1102" on="0"/>
        <pt x="727" y="1236" on="0"/>
        <pt x="676" y="1303" on="1"/>
      </contour>
    </TTGlyph>
    <TTGlyph name="asciitilde" xMin="139" yMin="485" xMax="1198" yMax="756">
      <contour>
        <pt x="789" y="485" on="0"/>
        <pt x="679" y="527" on="0"/>
        <pt x="607" y="568" on="1"/>
        <pt x="537" y="607" on="0"/>
        <pt x="438" y="645" on="0"/>
        <pt x="375" y="645" on="1"/>
        <pt x="242" y="645" on="0"/>
        <pt x="168" y="526" on="1"/>
        <pt x="139" y="537" on="1"/>
        <pt x="186" y="639" on="0"/>
        <pt x="365" y="756" on="0"/>
        <pt x="477" y="756" on="1"/>
        <pt x="548" y="756" on="0"/>
        <pt x="656" y="715" on="0"/>
        <pt x="730" y="674" on="1"/>
        <pt x="798" y="635" on="0"/>
        <pt x="899" y="596" on="0"/>
        <pt x="963" y="596" on="1"/>
        <pt x="1095" y="596" on="0"/>
        <pt x="1169" y="715" on="1"/>
        <pt x="1198" y="705" on="1"/>
        <pt x="1152" y="602" on="0"/>
        <pt x="973" y="485" on="0"/>
        <pt x="860" y="485" on="1"/>
      </contour>
    </TTGlyph>
    <TTGlyph name="asciitilde.case" xMin="80" yMin="624" xMax="1139" yMax="895">
      <component glyphName=".ttfautohint" x="80" y="624" flags="0x0"/>
      <component glyphName="asciitilde" x="-59" y="139" flags="0x0"/>
    </TTGlyph>
    <TTGlyph name="asciitilde.smcp" xMin="143" yMin="485" xMax="1202" yMax="756">
      <component glyphName=".ttfautohint" x="143" y="485" flags="0x0"/>
      <component glyphName="asciitilde" x="4" y="0" flags="0x0"/>
    </TTGlyph>
    <TTGlyph name="asterisk" xMin="199" yMin="629" xMax="1048" yMax="1493">
      <contour>
        <pt x="1048" y="1264" on="0"/>
        <pt x="1048" y="1257" on="1"/>
        <pt x="1048" y="1203" on="0"/>
        <pt x="961" y="1157" on="1"/>
        <pt x="925" y="1139" on="0"/>
        <pt x="841" y="1115" on="0"/>
        <pt x="765" y="1096" on="1"/>
        <pt x="713" y="1084" on="0"/>
        <pt x="635" y="1063" on="1"/>
        <pt x="582" y="1080" on="0"/>
        <pt x="755" y="1027" on="1"/>
        <pt x="823" y="1008" on="0"/>
        <pt x="896" y="983" on="0"/>
        <pt x="920" y="967" on="1"/>
        <pt x="969" y="936" on="0"/>
        <pt x="969" y="894" on="1"/>
        <pt x="969" y="866" on="0"/>
        <pt x="950" y="844" on="1"/>
        <pt x="927" y="812" on="0"/>
        <pt x="887" y="812" on="1"/>
        <pt x="854" y="812" on="0"/>
        <pt x="819" y="836" on="1"/>
        <pt x="793" y="852" on="0"/>
        <pt x="749" y="900" on="0"/>
        <pt x="706" y="953" on="1"/>
        <pt x="669" y="1001" on="0"/>
        <pt x="632" y="1044" on="1"/>
        <pt x="633" y="995" on="0"/>
        <pt x="637" y="930" on="1"/>
        <pt x="641" y="838" on="0"/>
        <pt x="641" y="809" on="1"/>
        <pt x="641" y="767" on="0"/>
        <pt x="637" y="739" on="1"/>
        <pt x="622" y="682" on="0"/>
        <pt x="565" y="629" on="0"/>
        <pt x="532" y="629" on="1"/>
        <pt x="509" y="629" on="0"/>
        <pt x="480" y="661" on="0"/>
        <pt x="480" y="695" on="1"/>
        <pt x="480" y="718" on="0"/>
        <pt x="485" y="739" on="1"/>
        <pt x="492" y="779" on="0"/>
        <pt x="530" y="869" on="0"/>
        <pt x="575" y="960" on="1"/>
        <pt x="589" y="987" on="0"/>
        <pt x="622" y="1055" on="1"/>
        <pt x="621" y="1055" on="1"/>
        <pt x="589" y="1030" on="0"/>
        <pt x="539" y="988" on="0"/>
        <pt x="520" y="972" on="1"/>
        <pt x="452" y="914" on="0"/>
        <pt x="373" y="852" on="0"/>
        <pt x="338" y="834" on="1"/>
        <pt x="291" y="811" on="0"/>
        <pt x="258" y="811" on="1"/>
        <pt x="215" y="811" on="0"/>
        <pt x="203" y="846" on="1"/>
        <pt x="199" y="858" on="0"/>
        <pt x="199" y="865" on="1"/>
        <pt x="199" y="916" on="0"/>
        <pt x="287" y="965" on="1"/>
        <pt x="323" y="983" on="0"/>
        <pt x="407" y="1008" on="0"/>
        <pt x="482" y="1026" on="1"/>
        <pt x="539" y="1040" on="0"/>
        <pt x="611" y="1059" on="1"/>
        <pt x="565" y="1074" on="0"/>
        <pt x="493" y="1094" on="1"/>
        <pt x="422" y="1115" on="0"/>
        <pt x="352" y="1139" on="0"/>
        <pt x="328" y="1155" on="1"/>
        <pt x="278" y="1186" on="0"/>
        <pt x="278" y="1229" on="1"/>
        <pt x="278" y="1256" on="0"/>
        <pt x="297" y="1278" on="1"/>
        <pt x="320" y="1310" on="0"/>
        <pt x="361" y="1310" on="1"/>
        <pt x="394" y="1310" on="0"/>
        <pt x="428" y="1286" on="1"/>
        <pt x="455" y="1269" on="0"/>
        <pt x="503" y="1216" on="0"/>
        <pt x="541" y="1167" on="1"/>
        <pt x="592" y="1103" on="0"/>
        <pt x="622" y="1068" on="1"/>
        <pt x="621" y="1093" on="0"/>
        <pt x="617" y="1134" on="1"/>
        <pt x="607" y="1270" on="0"/>
        <pt x="607" y="1307" on="1"/>
        <pt x="607" y="1353" on="0"/>
        <pt x="612" y="1382" on="1"/>
        <pt x="625" y="1439" on="0"/>
        <pt x="682" y="1493" on="0"/>
        <pt x="713" y="1493" on="1"/>
        <pt x="737" y="1493" on="0"/>
        <pt x="767" y="1461" on="0"/>
        <pt x="767" y="1426" on="1"/>
        <pt x="767" y="1403" on="0"/>
        <pt x="762" y="1382" on="1"/>
        <pt x="757" y="1346" on="0"/>
        <pt x="723" y="1264" on="0"/>
        <pt x="687" y="1188" on="1"/>
        <pt x="652" y="1113" on="0"/>
        <pt x="634" y="1072" on="1"/>
        <pt x="736" y="1156" on="1"/>
        <pt x="805" y="1214" on="0"/>
        <pt x="877" y="1271" on="0"/>
        <pt x="909" y="1288" on="1"/>
        <pt x="956" y="1311" on="0"/>
        <pt x="989" y="1311" on="1"/>
        <pt x="1032" y="1311" on="0"/>
        <pt x="1044" y="1276" on="1"/>
      </contour>
    </TTGlyph>
    <TTGlyph name="at" xMin="59" yMin="-330" xMax="1688" yMax="1368">
      <contour>
        <pt x="946" y="53" on="0"/>
        <pt x="946" y="186" on="1"/>
        <pt x="946" y="232" on="0"/>
        <pt x="965" y="300" on="1"/>
        <pt x="904" y="173" on="0"/>
        <pt x="761" y="53" on="0"/>
        <pt x="662" y="53" on="1"/>
        <pt x="552" y="53" on="0"/>
        <pt x="451" y="188" on="0"/>
        <pt x="451" y="301" on="1"/>
        <pt x="451" y="453" on="0"/>
        <pt x="611" y="771" on="0"/>
        <pt x="860" y="979" on="0"/>
        <pt x="983" y="979" on="1"/>
        <pt x="1045" y="979" on="0"/>
        <pt x="1113" y="916" on="0"/>
        <pt x="1118" y="846" on="1"/>
        <pt x="1147" y="950" on="1"/>
        <pt x="1264" y="950" on="0"/>
        <pt x="1331" y="979" on="1"/>
        <pt x="1114" y="227" on="1"/>
        <pt x="1101" y="185" on="0"/>
        <pt x="1101" y="157" on="1"/>
        <pt x="1101" y="128" on="0"/>
        <pt x="1130" y="104" on="0"/>
        <pt x="1161" y="104" on="1"/>
        <pt x="1239" y="104" on="0"/>
        <pt x="1473" y="279" on="0"/>
        <pt x="1647" y="599" on="0"/>
        <pt x="1647" y="807" on="1"/>
        <pt x="1647" y="989" on="0"/>
        <pt x="1488" y="1223" on="0"/>
        <pt x="1220" y="1331" on="0"/>
        <pt x="1051" y="1331" on="1"/>
        <pt x="804" y="1331" on="0"/>
        <pt x="365" y="1046" on="0"/>
        <pt x="100" y="569" on="0"/>
        <pt x="100" y="297" on="1"/>
        <pt x="100" y="93" on="0"/>
        <pt x="256" y="-171" on="0"/>
        <pt x="532" y="-293" on="0"/>
        <pt x="715" y="-293" on="1"/>
        <pt x="952" y="-293" on="0"/>
        <pt x="1137" y="-182" on="1"/>
        <pt x="1151" y="-209" on="1"/>
        <pt x="1072" y="-265" on="0"/>
        <pt x="845" y="-330" on="0"/>
        <pt x="713" y="-330" on="1"/>
        <pt x="517" y="-330" on="0"/>
        <pt x="224" y="-197" on="0"/>
        <pt x="59" y="82" on="0"/>
        <pt x="59" y="293" on="1"/>
        <pt x="59" y="566" on="0"/>
        <pt x="326" y="1064" on="0"/>
        <pt x="781" y="1368" on="0"/>
        <pt x="1049" y="1368" on="1"/>
        <pt x="1234" y="1368" on="0"/>
        <pt x="1521" y="1249" on="0"/>
        <pt x="1688" y="997" on="0"/>
        <pt x="1688" y="805" on="1"/>
        <pt x="1688" y="588" on="0"/>
        <pt x="1498" y="244" on="0"/>
        <pt x="1219" y="53" on="0"/>
        <pt x="1094" y="53" on="1"/>
      </contour>
      <contour>
        <pt x="808" y="115" on="0"/>
        <pt x="953" y="327" on="0"/>
        <pt x="1034" y="546" on="1"/>
        <pt x="1102" y="788" on="1"/>
        <pt x="1101" y="932" on="0"/>
        <pt x="991" y="932" on="1"/>
        <pt x="896" y="932" on="0"/>
        <pt x="727" y="745" on="0"/>
        <pt x="625" y="456" on="0"/>
        <pt x="625" y="313" on="1"/>
        <pt x="625" y="115" on="0"/>
        <pt x="731" y="115" on="1"/>
      </contour>
    </TTGlyph>
    <TTGlyph name="at.case" xMin="106" yMin="-154" xMax="1735" yMax="1544">
      <component glyphName=".ttfautohint" x="106" y="0" flags="0x0"/>
      <component glyphName="at" x="47" y="176" flags="0x0"/>
    </TTGlyph>
    <TTGlyph name="at.smcp" xMin="75" yMin="-269" xMax="1704" yMax="1429">
      <component glyphName=".ttfautohint" x="75" y="0" flags="0x0"/>
      <component glyphName="at" x="16" y="61" flags="0x0"/>
    </TTGlyph>
    <TTGlyph name="atilde" xMin="-170" yMin="0" xMax="1299" yMax="1628">
      <component glyphName=".ttfautohint" x="0" y="0" flags="0x0"/>
      <component glyphName="a" x="0" y="0" flags="0x0"/>
      <component glyphName="tilde.smcp" x="416" y="0" flags="0x0"/>
    </TTGlyph>
    <TTGlyph name="b" xMin="-66" yMin="0" xMax="1178" yMax="1245">
      <contour>
        <pt x="935" y="639" on="0"/>
        <pt x="1094" y="496" on="0"/>
        <pt x="1094" y="391" on="1"/>
        <pt x="1094" y="282" on="0"/>
        <pt x="940" y="103" on="0"/>
        <pt x="683" y="0" on="0"/>
        <pt x="537" y="0" on="1"/>
        <pt x="467" y="0" on="0"/>
        <pt x="387" y="3" on="1"/>
        <pt x="204" y="6" on="0"/>
        <pt x="184" y="6" on="1"/>
        <pt x="21" y="6" on="0"/>
        <pt x="-66" y="0" on="1"/>
        <pt x="-57" y="41" on="1"/>
        <pt x="17" y="44" on="0"/>
        <pt x="90" y="70" on="0"/>
        <pt x="134" y="140" on="0"/>
        <pt x="154" y="217" on="1"/>
        <pt x="371" y="1028" on="1"/>
        <pt x="389" y="1093" on="0"/>
        <pt x="389" y="1126" on="1"/>
        <pt x="389" y="1168" on="0"/>
        <pt x="327" y="1204" on="0"/>
        <pt x="250" y="1204" on="1"/>
        <pt x="260" y="1245" on="1"/>
        <pt x="343" y="1239" on="0"/>
        <pt x="504" y="1239" on="1"/>
        <pt x="548" y="1239" on="0"/>
        <pt x="642" y="1241" on="1"/>
        <pt x="740" y="1243" on="0"/>
        <pt x="793" y="1243" on="1"/>
        <pt x="983" y="1243" on="0"/>
        <pt x="1178" y="1125" on="0"/>
        <pt x="1178" y="1022" on="1"/>
        <pt x="1178" y="937" on="0"/>
        <pt x="1060" y="794" on="0"/>
        <pt x="870" y="693" on="0"/>
        <pt x="758" y="664" on="1"/>
      </contour>
      <contour>
        <pt x="571" y="668" on="1"/>
        <pt x="691" y="668" on="0"/>
        <pt x="875" y="761" on="0"/>
        <pt x="975" y="917" on="0"/>
        <pt x="975" y="1008" on="1"/>
        <pt x="975" y="1107" on="0"/>
        <pt x="869" y="1204" on="0"/>
        <pt x="754" y="1204" on="1"/>
        <pt x="691" y="1204" on="0"/>
        <pt x="623" y="1181" on="0"/>
        <pt x="583" y="1120" on="0"/>
        <pt x="567" y="1059" on="1"/>
        <pt x="463" y="668" on="1"/>
      </contour>
      <contour>
        <pt x="621" y="47" on="0"/>
        <pt x="814" y="140" on="0"/>
        <pt x="889" y="303" on="0"/>
        <pt x="889" y="422" on="1"/>
        <pt x="889" y="633" on="0"/>
        <pt x="596" y="633" on="1"/>
        <pt x="454" y="633" on="1"/>
        <pt x="344" y="217" on="1"/>
        <pt x="325" y="144" on="0"/>
        <pt x="325" y="116" on="1"/>
        <pt x="325" y="78" on="0"/>
        <pt x="380" y="47" on="0"/>
        <pt x="449" y="47" on="1"/>
      </contour>
    </TTGlyph>
    <TTGlyph name="backslash" xMin="270" yMin="-29" xMax="801" yMax="1479">
      <contour>
        <pt x="733" y="-29" on="1"/>
        <pt x="270" y="1479" on="1"/>
        <pt x="334" y="1479" on="1"/>
        <pt x="801" y="-29" on="1"/>
      </contour>
    </TTGlyph>
    <TTGlyph name="bar" xMin="305" yMin="-399" xMax="387" yMax="1757">
      <contour>
        <pt x="305" y="-399" on="1"/>
        <pt x="305" y="1757" on="1"/>
        <pt x="387" y="1757" on="1"/>
        <pt x="387" y="-399" on="1"/>
      </contour>
    </TTGlyph>
    <TTGlyph name="blacksquare" xMin="207" yMin="104" xMax="1020" yMax="956">
      <contour>
        <pt x="1020" y="104" on="1"/>
        <pt x="207" y="104" on="1"/>
        <pt x="207" y="956" on="1"/>
        <pt x="1020" y="956" on="1"/>
      </contour>
    </TTGlyph>
    <TTGlyph name="blacksquare.case" xMin="254" yMin="303" xMax="1108" yMax="1155">
      <contour>
        <pt x="1108" y="303" on="1"/>
        <pt x="254" y="303" on="1"/>
        <pt x="254" y="1155" on="1"/>
        <pt x="1108" y="1155" on="1"/>
      </contour>
    </TTGlyph>
    <TTGlyph name="blacksquare.smcp" xMin="244" yMin="197" xMax="1098" yMax="1049">
      <contour>
        <pt x="1098" y="197" on="1"/>
        <pt x="244" y="197" on="1"/>
        <pt x="244" y="1049" on="1"/>
        <pt x="1098" y="1049" on="1"/>
      </contour>
    </TTGlyph>
    <TTGlyph name="braceleft" xMin="52" yMin="-385" xMax="817" yMax="1602">
      <component glyphName=".ttfautohint" x="52" y="0" flags="0x0"/>
      <component glyphName="braceright" x="629" y="1217" scale="-1.0" flags="0x0"/>
    </TTGlyph>
</ttFont>
